{"glyphs":{"0":{"ha":925,"x_min":72,"x_max":852,"o":"m 72 438 q 102 629 72 541 q 186 783 132 718 q 480 919 302 919 q 753 791 650 919 q 852 460 852 666 q 732 99 852 229 q 455 -17 624 -17 q 182 109 292 -17 q 72 438 72 237 m 309 224 q 380 164 339 185 q 465 142 422 142 q 545 161 508 142 q 612 218 583 180 q 680 446 680 305 q 623 675 680 589 q 467 760 565 760 q 307 672 368 760 q 245 442 245 583 q 309 224 245 307 z "},"1":{"ha":467,"x_min":147,"x_max":320,"o":"m 147 902 l 320 902 l 320 0 l 147 0 l 147 902 z "},"2":{"ha":809,"x_min":56,"x_max":722,"o":"m 375 407 q 490 608 475 534 q 495 652 495 631 q 458 732 495 702 q 351 762 420 762 q 214 727 285 762 q 123 654 150 695 l 114 653 l 119 857 q 286 913 179 895 q 350 919 319 919 q 605 837 521 919 q 677 654 677 768 q 628 484 677 575 q 517 320 586 408 l 385 156 l 604 156 q 674 160 649 156 q 718 177 700 163 l 722 175 l 673 -10 l 599 -6 q 56 -5 407 5 l 375 407 z "},"3":{"ha":809,"x_min":56,"x_max":755,"o":"m 591 528 q 755 293 755 458 q 647 75 755 161 q 347 -17 534 -17 q 58 66 168 -17 l 56 248 l 62 256 q 346 145 144 145 q 582 302 582 145 q 513 390 582 358 q 368 418 450 418 q 193 380 254 418 l 189 385 l 195 545 q 368 567 277 567 l 403 567 q 440 566 422 567 q 496 643 484 591 q 500 672 500 657 q 492 702 500 686 q 465 728 483 717 q 378 755 427 755 q 296 749 330 755 q 232 734 263 744 q 132 678 165 711 l 128 682 l 120 855 q 385 919 229 919 q 590 863 508 919 q 678 700 678 802 q 654 600 678 644 q 591 528 629 555 m 377 549 q 406 551 394 549 l 377 549 z "},"4":{"ha":809,"x_min":32,"x_max":800,"o":"m 625 382 q 796 399 728 382 l 800 395 l 750 237 l 625 237 l 625 0 l 452 0 l 452 237 l 35 237 l 32 288 l 407 901 l 625 902 l 625 382 m 452 382 l 452 703 l 267 382 l 452 382 z "},"5":{"ha":925,"x_min":119,"x_max":830,"o":"m 328 593 q 475 608 395 608 q 624 585 556 608 q 738 525 692 563 q 830 330 830 449 q 718 80 830 178 q 432 -17 604 -17 q 126 77 239 -17 l 119 269 l 125 273 q 435 141 222 141 q 589 186 531 141 q 646 300 646 231 q 529 452 646 413 q 446 465 490 465 q 365 461 403 465 q 292 450 328 457 q 168 410 217 436 l 168 902 l 593 902 q 747 924 724 902 l 750 922 l 734 756 q 596 742 704 742 l 328 742 l 328 593 z "},"6":{"ha":925,"x_min":81,"x_max":850,"o":"m 178 108 q 105 243 130 165 q 81 396 81 320 q 93 535 81 472 q 130 655 105 598 q 194 760 155 712 q 285 844 233 808 q 555 919 397 919 q 759 879 673 919 l 765 712 l 762 708 q 543 763 688 763 q 354 689 433 763 q 254 507 278 618 q 467 616 338 591 q 556 623 505 623 q 665 602 608 623 q 764 544 723 582 q 850 328 850 463 q 738 80 850 179 q 471 -17 629 -17 q 178 108 284 -17 m 260 301 q 334 183 283 226 q 465 140 386 140 q 615 189 556 140 q 677 323 677 239 q 636 427 677 386 q 517 471 592 471 q 350 420 421 471 q 260 301 283 372 z "},"7":{"ha":699,"x_min":18,"x_max":710,"o":"m 395 87 q 399 0 395 41 l 193 0 q 263 324 193 100 q 456 749 345 590 l 122 744 q 28 727 48 744 l 24 730 l 18 907 l 371 905 q 483 905 433 905 q 571 905 532 905 q 710 909 659 907 l 593 672 q 395 87 395 269 z "},"8":{"ha":925,"x_min":64,"x_max":860,"o":"m 703 481 q 822 393 781 454 q 860 271 860 339 q 833 149 860 203 q 755 58 806 96 q 471 -19 653 -19 q 191 52 307 -19 q 64 271 64 130 q 149 447 64 370 q 210 488 176 471 q 126 661 126 555 q 214 844 126 772 q 471 920 307 920 q 725 840 630 920 q 811 656 811 767 q 703 481 811 545 m 311 703 q 299 663 299 684 q 312 621 299 642 q 354 583 326 601 q 543 524 416 544 q 630 617 607 557 q 594 735 659 694 q 462 764 548 764 q 311 703 348 764 m 329 410 q 245 288 245 361 q 479 137 245 140 q 667 199 629 135 q 680 251 680 222 q 668 297 680 280 q 631 327 656 314 q 525 360 593 347 q 433 378 457 373 q 391 389 410 384 q 329 410 356 398 z "},"9":{"ha":925,"x_min":77,"x_max":847,"o":"m 165 194 q 385 139 240 139 q 567 207 490 139 q 666 376 641 273 q 459 285 588 304 q 371 279 422 279 q 262 300 320 279 q 164 358 205 320 q 77 574 77 439 q 190 822 77 723 q 457 919 299 919 q 749 794 644 919 q 847 494 847 679 q 734 142 847 283 q 373 -17 606 -17 q 169 23 254 -17 l 163 190 l 165 194 m 416 431 q 504 444 462 431 q 579 476 547 456 q 665 587 646 519 q 536 750 633 713 q 461 762 503 762 q 380 750 418 762 q 313 713 341 737 q 251 579 251 663 q 292 475 251 516 q 416 431 336 431 z "},"\u0001":{"ha":0,"x_min":0,"x_max":0,"o":""},"\u0002":{"ha":0,"x_min":0,"x_max":0,"o":""},"\u0003":{"ha":0,"x_min":0,"x_max":0,"o":""},"\u0004":{"ha":0,"x_min":0,"x_max":0,"o":""},"\u0005":{"ha":0,"x_min":0,"x_max":0,"o":""},"\u0006":{"ha":0,"x_min":0,"x_max":0,"o":""},"\u0007":{"ha":0,"x_min":0,"x_max":0,"o":""},"\b":{"ha":0,"x_min":0,"x_max":0,"o":""},"\t":{"ha":0,"x_min":0,"x_max":0,"o":""},"\u0010":{"ha":0,"x_min":0,"x_max":0,"o":""},"\u0011":{"ha":0,"x_min":0,"x_max":0,"o":""},"\u0012":{"ha":0,"x_min":0,"x_max":0,"o":""},"\u0013":{"ha":0,"x_min":0,"x_max":0,"o":""},"\u0014":{"ha":0,"x_min":0,"x_max":0,"o":""},"\u0015":{"ha":0,"x_min":0,"x_max":0,"o":""},"\u0016":{"ha":0,"x_min":0,"x_max":0,"o":""},"\u0017":{"ha":0,"x_min":0,"x_max":0,"o":""},"\u0018":{"ha":0,"x_min":0,"x_max":0,"o":""},"\u0019":{"ha":0,"x_min":0,"x_max":0,"o":""}," ":{"ha":460,"x_min":0,"x_max":0,"o":""},"!":{"ha":464,"x_min":142,"x_max":321,"o":"m 317 254 q 199 258 283 258 l 144 258 l 143 921 l 205 918 l 220 918 q 320 924 298 918 l 317 254 m 321 163 q 319 76 319 129 q 321 0 319 24 l 142 0 q 147 83 147 42 q 143 163 147 124 l 321 163 z "},"\"":{"ha":696,"x_min":127,"x_max":569,"o":"m 138 753 q 127 970 133 909 l 297 970 q 286 752 289 895 l 283 663 l 140 663 l 138 753 m 410 753 q 399 970 405 909 l 569 970 q 557 752 561 895 l 555 663 l 412 663 l 410 753 z "},"#":{"ha":1041,"x_min":159,"x_max":882,"o":"m 850 333 q 766 336 817 336 l 702 336 l 672 120 l 519 120 l 549 336 l 424 336 l 394 120 l 241 120 l 271 336 l 243 336 q 159 333 191 336 l 161 473 q 250 469 176 469 l 290 469 l 309 606 l 261 606 q 177 602 210 606 l 179 743 q 269 739 194 739 l 327 739 l 357 956 l 511 956 l 480 739 l 605 739 l 635 956 l 789 956 l 758 739 l 790 739 q 880 743 864 739 l 882 602 q 798 606 849 606 l 740 606 l 721 469 l 758 469 q 848 473 833 469 l 850 333 m 568 469 l 587 606 l 462 606 l 443 469 l 568 469 z "},"$":{"ha":809,"x_min":98,"x_max":711,"o":"m 279 -132 q 286 -41 286 -109 l 286 -9 q 173 25 223 2 q 98 75 123 47 l 117 245 l 122 250 q 224 179 148 211 q 381 146 303 146 q 525 210 486 146 q 536 248 536 229 q 529 283 536 268 q 505 312 522 298 q 391 371 471 339 q 263 431 311 402 q 187 493 216 460 q 134 644 134 553 q 193 798 134 726 q 353 903 255 873 l 353 957 q 347 1048 353 1025 l 530 1048 q 527 964 527 1009 l 527 914 q 661 871 596 904 l 640 703 l 635 702 q 448 757 534 757 q 345 727 387 757 q 308 663 308 700 q 334 608 308 629 q 459 543 381 568 q 583 491 536 517 q 659 433 630 464 q 711 283 711 374 q 650 107 711 186 q 459 -8 579 16 l 459 -48 q 462 -132 462 -130 l 279 -132 z "},"%":{"ha":1501,"x_min":100,"x_max":1401,"o":"m 374 415 q 263 433 313 415 q 178 484 214 452 q 100 663 100 555 q 170 837 100 764 q 385 919 250 919 q 584 842 508 919 q 654 668 654 770 q 576 491 654 564 q 374 415 496 415 m 913 902 l 1079 902 l 570 0 l 404 0 l 913 902 m 381 553 q 437 563 413 553 q 479 589 462 572 q 515 670 515 621 q 479 749 515 715 q 378 785 441 785 q 278 749 316 785 q 243 668 243 717 q 279 589 243 621 q 381 553 318 553 m 847 227 q 864 322 847 277 q 917 405 882 368 q 1131 487 996 487 q 1331 410 1255 487 q 1401 236 1401 338 q 1324 59 1401 132 q 1116 -17 1242 -17 q 924 53 1000 -17 q 847 227 847 123 m 991 236 q 1000 192 991 213 q 1027 156 1009 172 q 1130 121 1065 121 q 1226 156 1189 121 q 1262 237 1262 189 q 1226 316 1262 283 q 1125 352 1188 352 q 1025 317 1063 352 q 991 236 991 284 z "},"&":{"ha":925,"x_min":42,"x_max":936,"o":"m 670 80 q 399 -17 558 -17 q 142 76 243 -17 q 42 300 42 166 q 146 500 42 420 q 214 541 178 525 q 175 669 175 606 q 195 775 175 731 q 252 851 216 819 q 448 919 328 919 q 605 878 534 919 q 602 789 602 821 q 603 736 602 747 q 603 721 604 725 q 602 713 603 716 q 601 704 600 709 l 597 699 q 492 758 570 740 q 431 763 469 763 q 370 741 394 763 q 346 684 346 718 q 429 536 346 626 q 491 471 454 507 l 650 326 q 672 450 672 385 q 652 516 672 490 q 644 524 647 522 l 644 532 l 743 493 q 789 475 771 481 q 815 465 806 469 q 831 450 831 458 q 776 218 831 328 q 865 154 845 161 q 895 145 884 146 q 932 148 927 141 l 936 144 l 866 -9 q 827 -17 854 -17 q 670 80 784 -17 m 269 195 q 297 170 269 195 q 404 146 325 146 q 546 189 483 146 l 473 256 q 286 442 355 363 q 212 316 212 389 q 269 195 212 243 z "},"'":{"ha":464,"x_min":146,"x_max":317,"o":"m 157 753 q 146 970 153 909 l 317 970 q 305 752 309 895 l 303 663 l 160 663 l 157 753 z "},"(":{"ha":630,"x_min":123,"x_max":513,"o":"m 339 -68 q 123 461 123 118 q 245 865 123 690 q 339 970 286 924 l 513 970 l 513 966 q 308 608 344 812 q 296 458 296 538 q 506 -64 296 163 l 506 -68 l 339 -68 z "},")":{"ha":630,"x_min":117,"x_max":506,"o":"m 290 -68 q 506 461 506 118 q 384 865 506 690 q 290 970 344 924 l 117 970 l 117 966 q 321 608 286 812 q 334 458 334 538 q 123 -64 334 163 l 123 -68 l 290 -68 z "},"*":{"ha":809,"x_min":87,"x_max":721,"o":"m 328 515 l 349 706 l 174 571 l 87 701 l 283 791 l 88 906 l 195 1028 l 347 881 l 320 1088 l 486 1088 l 457 873 l 612 1009 l 714 886 l 509 787 l 721 686 l 630 559 l 458 699 l 483 491 l 325 491 q 328 515 325 492 z "},"+":{"ha":925,"x_min":154,"x_max":770,"o":"m 238 339 q 154 336 186 339 l 156 503 q 245 499 171 499 l 382 499 l 382 629 q 378 719 382 704 l 546 721 q 543 637 543 688 l 543 499 l 679 499 q 768 503 753 499 l 770 336 q 686 339 738 339 l 543 339 l 543 189 q 546 104 543 137 l 378 106 q 382 196 382 122 l 382 339 l 238 339 z "},",":{"ha":346,"x_min":66,"x_max":279,"o":"m 98 -79 q 103 -42 98 -79 q 107 45 107 -5 q 100 149 107 95 l 269 176 l 274 142 q 279 63 279 104 q 275 -11 279 23 q 264 -75 271 -45 q 229 -151 249 -138 q 70 -198 196 -172 l 66 -194 q 98 -79 89 -153 z "},"-":{"ha":689,"x_min":121,"x_max":568,"o":"m 205 339 q 121 336 153 339 l 123 503 q 212 499 138 499 l 476 499 q 566 503 551 499 l 568 336 q 484 339 535 339 l 205 339 z "},".":{"ha":346,"x_min":74,"x_max":272,"o":"m 74 0 q 80 73 80 41 q 80 117 80 105 q 79 140 79 129 q 77 162 78 152 l 75 179 l 272 179 q 270 137 270 153 l 269 109 q 269 60 269 96 q 272 0 269 24 l 74 0 z "},"/":{"ha":580,"x_min":0,"x_max":580,"o":"m 406 1038 l 580 1038 l 174 -115 l 0 -115 l 406 1038 z "},":":{"ha":346,"x_min":74,"x_max":272,"o":"m 269 522 q 269 474 269 509 q 272 414 269 438 l 74 414 q 80 487 80 455 q 80 531 80 519 q 79 554 79 543 q 77 576 78 566 l 75 593 l 272 593 q 270 551 270 567 l 269 522 m 269 109 q 269 60 269 96 q 272 0 269 24 l 74 0 q 80 73 80 41 q 80 117 80 105 q 79 140 79 129 q 77 162 78 152 l 75 179 l 272 179 q 270 137 270 153 l 269 109 z "},";":{"ha":351,"x_min":68,"x_max":282,"o":"m 273 468 q 270 381 270 434 q 273 305 270 329 l 93 305 q 98 388 98 347 q 94 468 98 429 l 273 468 m 101 -79 q 105 -42 101 -79 q 110 45 110 -5 q 102 149 110 95 l 271 176 l 277 142 q 282 63 282 104 q 278 -11 282 23 q 267 -75 274 -45 q 232 -151 252 -138 q 73 -198 199 -172 l 68 -194 q 101 -79 92 -153 z "},"<":{"ha":925,"x_min":233,"x_max":691,"o":"m 233 439 l 691 722 l 691 532 l 393 363 l 691 180 l 691 -10 l 233 294 l 233 439 z "},"=":{"ha":925,"x_min":154,"x_max":770,"o":"m 238 488 q 154 485 186 488 l 156 652 q 245 648 171 648 l 679 648 q 768 652 753 648 l 770 485 q 686 488 738 488 l 238 488 m 238 203 q 154 200 186 203 l 156 368 q 245 363 171 363 l 679 363 q 768 368 753 363 l 770 200 q 686 203 738 203 l 238 203 z "},">":{"ha":922,"x_min":232,"x_max":690,"o":"m 232 180 l 530 363 l 232 532 l 232 722 l 690 439 l 690 294 l 232 -10 l 232 180 z "},"?":{"ha":696,"x_min":56,"x_max":602,"o":"m 414 309 q 286 233 355 265 q 201 353 201 265 q 221 423 201 391 q 336 547 260 484 q 406 615 391 593 q 428 675 428 648 q 416 723 428 703 q 385 755 405 742 q 280 783 343 783 q 132 727 197 783 q 95 681 109 708 l 90 680 q 84 740 92 709 l 56 842 q 304 932 152 932 q 521 859 434 932 q 602 690 602 788 q 582 606 602 641 q 495 500 549 547 q 421 432 441 453 q 391 397 401 411 q 375 355 375 375 q 387 324 375 336 q 414 309 399 312 m 399 163 q 396 76 396 129 q 399 0 396 24 l 219 0 q 224 83 224 42 q 220 163 224 124 l 399 163 z "},"@":{"ha":1617,"x_min":102,"x_max":1516,"o":"m 573 505 q 599 525 573 505 q 692 570 625 546 q 834 593 760 593 q 972 567 907 593 l 974 580 l 1145 580 l 1116 271 q 1114 217 1114 248 q 1190 146 1114 146 q 1320 246 1280 146 q 1340 378 1340 298 q 1307 531 1340 458 q 1212 659 1274 605 q 858 773 1078 773 q 446 626 605 773 q 276 239 276 469 q 411 -64 276 52 q 798 -185 553 -185 q 1073 -151 940 -185 q 1239 -80 1197 -119 l 1243 -82 l 1179 -245 q 779 -330 1009 -330 q 284 -187 465 -330 q 102 219 102 -41 q 107 308 102 244 q 144 450 113 372 q 227 597 176 528 q 346 725 277 667 q 495 826 414 783 q 864 915 667 915 q 1225 841 1070 915 q 1443 652 1366 774 q 1516 401 1516 538 q 1477 209 1516 288 q 1392 83 1439 130 q 1172 -10 1294 -10 q 987 58 1050 -10 q 762 -10 884 -10 q 532 73 617 -10 q 452 265 452 150 q 487 403 452 342 q 573 505 522 464 m 957 406 q 825 437 906 437 q 689 396 743 437 q 631 294 637 357 q 719 160 621 194 q 813 149 752 149 q 939 187 874 149 q 940 225 937 206 l 957 406 z "},"A":{"ha":812,"x_min":-7,"x_max":819,"o":"m 182 -5 q 46 0 124 0 l -7 0 l 288 827 q 307 891 307 882 q 307 903 307 901 l 307 904 q 401 902 351 902 q 498 903 441 902 l 499 902 q 498 895 498 899 q 518 826 498 882 l 819 -2 q 787 -1 806 -1 q 752 0 787 -1 q 722 0 735 0 l 616 0 l 553 195 l 246 195 l 182 -5 m 500 358 l 397 673 l 298 358 l 500 358 z "},"B":{"ha":812,"x_min":117,"x_max":782,"o":"m 687 66 q 662 46 687 66 q 557 5 637 26 q 362 -17 478 -17 q 117 4 247 -17 l 117 898 q 345 919 248 919 q 504 901 441 919 q 605 851 566 882 q 682 695 682 791 q 612 536 682 599 q 741 438 695 510 q 782 295 782 374 q 759 161 782 217 q 687 66 736 106 m 296 561 q 368 556 325 556 q 438 567 410 556 q 480 595 465 578 q 505 673 505 623 q 382 777 505 777 q 296 772 331 777 l 296 561 m 397 416 q 296 408 340 416 l 296 142 q 396 130 344 130 q 488 142 448 130 q 555 176 528 155 q 610 290 610 221 q 397 416 610 416 z "},"C":{"ha":806,"x_min":35,"x_max":751,"o":"m 521 919 q 737 875 648 919 l 737 667 l 736 666 q 576 743 698 724 q 485 749 540 749 q 377 729 430 749 q 290 670 324 708 q 224 459 224 596 q 308 222 224 300 q 491 157 377 157 q 700 212 620 157 q 749 260 729 231 l 751 259 l 751 69 q 472 -17 648 -17 q 148 115 265 -17 q 35 447 35 240 q 159 792 35 666 q 521 919 283 919 z "},"D":{"ha":925,"x_min":130,"x_max":842,"o":"m 336 -17 q 130 1 227 -17 l 130 908 q 337 919 219 919 q 552 887 456 919 q 712 795 648 854 q 842 460 842 675 q 697 95 842 220 q 336 -17 567 -17 m 306 149 q 394 140 350 140 q 489 158 438 140 q 577 212 540 175 q 657 437 657 289 q 480 735 657 680 q 345 753 422 753 l 327 753 q 306 753 317 753 l 306 149 z "},"E":{"ha":696,"x_min":117,"x_max":631,"o":"m 570 163 q 629 171 612 163 l 631 170 l 625 0 l 117 0 l 117 907 q 157 905 135 905 l 205 903 q 308 902 252 902 q 615 907 463 902 q 608 748 608 848 q 609 732 608 737 l 608 730 q 507 740 572 740 l 294 740 l 294 567 l 454 567 q 544 571 529 567 l 546 404 q 462 407 513 407 l 294 407 l 294 163 l 570 163 z "},"F":{"ha":693,"x_min":117,"x_max":635,"o":"m 592 390 q 508 393 559 393 l 302 393 l 302 0 l 117 0 l 117 907 q 159 905 135 905 l 209 903 q 316 902 260 902 q 635 907 483 902 q 627 748 627 848 q 629 732 627 737 l 627 730 q 527 740 591 740 l 302 740 l 302 553 l 500 553 q 590 557 575 553 l 592 390 z "},"G":{"ha":925,"x_min":50,"x_max":860,"o":"m 860 544 q 847 433 847 521 l 847 223 q 748 57 847 127 q 497 -17 646 -17 q 168 113 291 -17 q 50 427 50 236 q 170 766 50 631 q 542 919 305 919 q 792 858 700 919 l 781 658 l 776 656 q 682 724 752 698 q 543 749 616 749 q 415 726 470 749 q 323 661 361 703 q 243 429 243 573 q 313 228 243 304 q 495 153 384 153 q 661 216 618 153 q 674 262 674 237 l 674 375 l 587 375 q 510 363 516 375 l 508 363 l 502 541 q 656 535 521 535 l 736 535 q 858 545 810 535 l 860 544 z "},"H":{"ha":925,"x_min":123,"x_max":795,"o":"m 300 -4 q 145 0 235 0 l 123 0 l 123 905 q 183 902 165 902 l 211 902 q 300 907 264 902 l 300 546 l 618 546 l 618 905 q 728 902 675 902 q 795 907 781 902 l 795 -4 q 666 0 762 0 l 618 0 l 618 383 l 300 383 l 300 -4 z "},"I":{"ha":464,"x_min":138,"x_max":326,"o":"m 138 905 q 220 902 205 902 l 269 902 q 326 907 304 902 l 326 0 l 138 0 l 138 905 z "},"J":{"ha":583,"x_min":8,"x_max":484,"o":"m 304 905 q 365 902 346 902 l 418 902 q 484 907 451 902 l 484 300 q 404 65 484 151 q 201 -17 329 -17 q 53 18 113 -17 q 8 50 31 31 l 8 245 l 13 247 q 80 174 41 202 q 175 145 118 145 q 304 294 304 145 l 304 905 z "},"K":{"ha":809,"x_min":117,"x_max":801,"o":"m 290 -4 q 170 0 243 0 l 117 0 l 117 905 l 144 903 q 186 902 172 902 l 206 902 q 290 907 266 902 l 290 524 l 564 905 q 637 902 608 902 l 675 902 q 774 907 745 902 l 513 566 l 770 54 q 801 0 787 17 l 760 0 q 581 -5 616 0 q 561 74 574 40 l 388 404 l 290 275 l 290 -4 z "},"L":{"ha":580,"x_min":117,"x_max":541,"o":"m 249 0 q 117 -4 149 0 l 117 906 q 184 902 133 902 q 303 905 235 902 l 303 163 l 444 163 q 541 167 505 163 q 536 2 536 8 l 536 -5 q 313 0 470 0 l 249 0 z "},"M":{"ha":1044,"x_min":120,"x_max":924,"o":"m 300 -4 q 174 0 267 0 l 120 0 l 120 905 q 216 902 163 902 q 290 907 268 902 l 517 520 l 736 907 q 819 902 758 902 q 924 905 880 902 l 924 0 l 869 0 q 744 -4 777 0 l 744 604 l 522 207 l 300 572 l 300 -4 z "},"N":{"ha":922,"x_min":123,"x_max":798,"o":"m 123 0 q 127 50 127 23 l 127 902 l 262 902 l 622 336 l 622 856 q 615 902 622 893 l 798 902 q 795 842 795 875 l 795 0 l 654 0 l 300 543 l 300 0 l 123 0 z "},"O":{"ha":1041,"x_min":58,"x_max":983,"o":"m 191 107 q 160 137 191 107 q 93 249 129 166 q 58 430 58 332 q 91 617 58 529 q 186 772 124 705 q 335 879 248 840 q 531 919 422 919 q 846 801 718 919 q 983 460 983 675 q 842 115 983 253 q 635 -1 755 31 q 497 -17 576 -17 q 335 16 418 -17 q 191 107 252 48 m 246 439 q 267 323 246 376 q 326 233 288 271 q 530 153 405 153 q 720 229 648 153 q 793 446 793 309 q 724 661 793 574 q 517 753 648 753 q 316 659 391 753 q 246 439 246 572 z "},"P":{"ha":696,"x_min":104,"x_max":673,"o":"m 104 907 q 297 919 198 919 q 577 832 481 919 q 673 574 673 746 q 568 330 673 420 q 315 246 470 246 q 277 248 298 246 l 277 0 l 104 0 l 104 907 m 317 755 q 277 754 297 755 l 277 397 q 330 395 298 395 q 395 408 361 395 q 452 445 429 421 q 500 575 500 494 q 317 755 500 755 z "},"Q":{"ha":1041,"x_min":56,"x_max":1082,"o":"m 623 -4 q 491 -17 566 -17 q 333 16 416 -17 q 189 107 250 48 q 56 432 56 234 q 184 772 56 633 q 530 919 320 919 q 848 798 722 919 q 981 460 981 669 q 886 168 981 293 q 820 97 857 128 q 879 75 844 90 q 1019 39 953 40 l 1032 39 q 1079 48 1067 39 l 1082 46 l 1030 -83 q 994 -113 1021 -113 q 916 -96 956 -113 q 844 -66 876 -80 q 784 -41 812 -52 q 730 -22 755 -30 q 623 -4 686 -10 m 237 439 q 259 322 237 376 q 320 229 281 269 q 528 146 403 146 q 722 227 647 146 q 800 446 800 309 q 727 661 800 574 q 517 753 648 753 q 311 659 389 753 q 237 439 237 571 z "},"R":{"ha":809,"x_min":117,"x_max":776,"o":"m 408 351 q 365 349 388 349 q 296 353 342 349 l 296 0 l 117 0 l 117 907 q 350 919 212 919 q 631 849 538 919 q 724 635 724 780 q 639 442 724 522 q 575 397 611 416 l 713 106 q 776 -1 754 16 l 772 -5 q 566 -5 707 6 l 408 351 m 363 759 q 296 755 328 759 l 296 496 q 374 492 330 492 q 450 499 419 492 q 503 524 480 507 q 551 631 551 559 q 500 732 551 703 q 363 759 454 759 z "},"S":{"ha":809,"x_min":87,"x_max":742,"o":"m 661 852 l 648 652 l 644 651 q 473 749 593 726 q 400 756 435 756 q 340 750 365 756 q 298 732 315 744 q 260 669 260 708 q 293 591 260 617 q 428 548 334 560 q 579 513 522 535 q 673 458 636 492 q 742 282 742 396 q 629 52 742 133 q 387 -17 533 -17 q 153 28 269 -17 q 87 62 115 43 l 94 289 l 97 291 q 373 146 181 146 q 553 212 509 146 q 568 261 568 234 q 559 307 568 289 q 530 338 551 325 q 398 372 491 363 q 246 406 305 381 q 152 466 187 430 q 88 648 88 531 q 173 843 88 768 q 405 919 259 919 q 661 852 551 919 z "},"T":{"ha":696,"x_min":29,"x_max":667,"o":"m 442 -4 q 275 0 410 0 l 253 0 l 253 750 l 119 750 q 48 744 59 750 q 31 733 37 738 l 29 734 l 29 907 l 31 909 q 152 902 54 902 l 577 902 q 648 908 637 902 q 665 919 659 914 l 667 918 l 667 745 l 665 743 q 544 750 642 750 l 442 750 l 442 -4 z "},"U":{"ha":928,"x_min":111,"x_max":817,"o":"m 631 905 q 701 902 673 902 l 757 902 q 817 907 785 902 l 817 347 q 715 79 817 180 q 475 -17 620 -17 q 220 65 317 -17 q 111 331 111 157 l 111 905 q 217 902 167 902 q 299 907 267 902 l 299 322 q 351 189 299 237 q 473 146 400 146 q 618 257 582 146 q 631 356 631 297 l 631 905 z "},"V":{"ha":809,"x_min":23,"x_max":792,"o":"m 503 -3 q 431 0 481 0 l 357 0 q 323 -1 338 0 l 323 0 q 326 11 326 5 q 325 24 326 17 q 319 48 323 31 q 304 99 314 66 l 275 190 l 23 905 q 130 902 65 902 q 214 907 195 902 l 418 291 l 597 905 q 697 902 637 902 q 792 907 779 902 l 545 192 q 521 113 545 192 q 501 25 501 45 q 504 -1 501 5 l 503 -3 z "},"W":{"ha":1160,"x_min":5,"x_max":1147,"o":"m 439 -3 q 370 0 419 0 l 292 0 q 254 -1 269 0 l 253 0 q 256 11 256 5 q 255 24 256 17 q 249 48 254 31 q 236 99 245 66 l 5 905 q 111 902 49 902 q 191 907 172 902 l 351 294 l 507 905 q 525 903 517 904 l 540 903 q 596 902 562 902 q 666 907 630 902 l 825 294 l 961 905 q 1067 902 1002 902 q 1147 907 1133 902 l 952 192 q 913 45 915 68 q 911 14 911 22 q 913 -1 911 5 l 912 -3 q 844 0 890 0 q 770 0 803 0 q 722 -1 736 0 l 721 0 q 724 11 724 5 q 723 23 724 17 q 719 46 722 29 q 709 98 716 64 l 691 190 l 580 612 l 474 192 q 440 43 441 62 q 441 -1 437 5 l 439 -3 z "},"X":{"ha":809,"x_min":24,"x_max":784,"o":"m 528 836 q 543 881 543 866 q 540 902 543 895 l 784 902 q 765 883 777 894 q 739 856 753 871 q 677 768 705 818 l 513 469 l 666 182 l 684 145 q 772 0 736 38 l 551 0 q 528 64 548 24 l 395 319 q 251 26 254 35 q 245 0 248 14 l 24 0 q 76 73 50 26 l 157 217 l 302 462 l 112 819 q 58 902 81 877 l 286 902 q 283 887 283 895 q 300 836 283 869 l 414 610 l 528 836 z "},"Y":{"ha":809,"x_min":-5,"x_max":814,"o":"m 306 0 q 315 123 315 26 l 315 312 q 165 634 197 570 q 110 736 132 699 q 25 873 39 855 q -5 902 10 890 l 229 902 q 250 862 237 888 l 414 515 q 441 579 425 544 q 591 902 589 897 l 814 902 q 730 785 780 874 q 699 725 714 759 l 545 406 q 501 302 519 348 l 501 107 q 509 0 501 39 l 306 0 z "},"Z":{"ha":806,"x_min":62,"x_max":738,"o":"m 97 841 q 95 902 97 863 l 738 902 l 343 163 l 589 163 q 703 169 686 163 q 730 179 720 174 l 730 -10 q 682 -5 701 -7 q 642 -2 663 -3 q 519 0 610 0 l 62 0 l 471 739 l 257 739 q 89 725 125 739 q 97 821 97 759 l 97 841 z "},"[":{"ha":630,"x_min":132,"x_max":480,"o":"m 132 -75 q 135 -23 135 -31 l 135 807 q 132 970 135 902 q 349 970 243 970 q 480 973 454 970 l 478 806 q 395 810 462 810 l 308 810 l 314 85 l 359 85 q 478 90 462 85 l 480 -78 q 381 -75 429 -75 l 132 -75 z "},"\\":{"ha":580,"x_min":0,"x_max":580,"o":"m 174 1038 l 0 1038 l 406 -115 l 580 -115 l 174 1038 z "},"]":{"ha":630,"x_min":132,"x_max":480,"o":"m 479 -75 q 477 -23 477 -31 l 477 807 q 480 970 477 902 q 263 970 369 970 q 132 973 157 970 l 134 806 q 216 810 150 810 l 304 810 l 298 85 l 252 85 q 134 90 150 85 l 132 -78 q 231 -75 182 -75 l 479 -75 z "},"^":{"ha":809,"x_min":55,"x_max":753,"o":"m 326 960 l 471 960 l 753 346 l 562 346 l 399 760 l 245 346 l 55 346 l 326 960 z "},"_":{"ha":918,"x_min":-20,"x_max":939,"o":"m 939 -118 l 939 -227 l -20 -227 l -20 -118 l 939 -118 z "},"`":{"ha":545,"x_min":90,"x_max":421,"o":"m 90 1031 q 307 1019 205 1019 l 421 807 l 268 807 l 90 1026 l 90 1031 z "},"a":{"ha":809,"x_min":87,"x_max":753,"o":"m 568 42 q 393 -10 471 -10 q 260 4 315 -10 q 165 47 204 19 q 87 214 87 105 q 183 377 87 312 q 467 448 288 448 l 494 447 q 512 446 502 446 q 530 444 522 446 q 437 571 525 553 q 375 577 408 577 q 310 571 342 577 q 249 556 279 566 q 155 508 183 535 l 153 509 l 132 659 q 395 722 252 722 q 677 563 616 722 q 697 448 697 512 l 697 203 q 753 96 697 124 l 630 -17 q 568 42 591 3 m 531 322 q 493 326 513 326 l 466 326 q 275 259 316 326 q 263 218 263 239 q 271 179 263 196 q 297 152 279 163 q 402 132 332 132 q 532 165 471 132 q 531 180 531 172 l 531 322 z "},"b":{"ha":805,"x_min":103,"x_max":756,"o":"m 269 683 q 425 722 345 722 q 561 697 504 722 q 662 627 618 673 q 756 368 756 524 q 654 91 756 196 q 409 -10 555 -10 q 197 57 280 -10 q 103 267 103 133 l 103 1009 l 269 1009 l 269 683 m 269 269 q 418 149 269 149 q 540 213 490 149 q 590 375 590 278 q 537 522 590 473 q 410 566 490 566 q 303 534 361 566 q 269 511 285 524 l 269 269 z "},"c":{"ha":696,"x_min":58,"x_max":654,"o":"m 654 66 q 416 -10 578 -10 q 159 85 258 -10 q 58 343 58 182 q 157 612 58 507 q 440 722 263 722 q 650 667 566 722 l 623 494 l 618 494 q 550 546 586 534 q 433 566 492 566 q 342 551 375 566 q 285 510 309 536 q 237 366 237 456 q 347 159 237 208 q 428 142 385 142 q 502 150 470 142 q 559 170 533 157 q 633 233 614 197 l 638 231 l 654 66 z "},"d":{"ha":812,"x_min":60,"x_max":770,"o":"m 586 38 q 414 -10 500 -10 q 263 17 328 -10 q 153 92 199 44 q 60 345 60 189 q 168 614 60 507 q 448 722 277 722 q 550 709 500 722 l 550 1010 l 716 1010 l 716 286 q 725 168 716 195 q 744 127 733 140 q 770 102 754 114 l 643 -10 q 586 38 608 9 m 446 146 q 550 168 503 146 l 550 543 q 447 563 503 563 q 352 548 391 563 q 283 507 312 533 q 224 362 224 451 q 278 208 224 265 q 446 146 336 146 z "},"e":{"ha":812,"x_min":66,"x_max":764,"o":"m 66 349 q 93 496 66 428 q 170 614 120 564 q 446 722 275 722 q 678 627 591 722 q 764 395 764 534 q 756 321 764 341 q 480 302 688 302 l 241 302 q 323 190 259 230 q 491 149 388 149 q 676 188 599 149 q 707 207 696 198 q 703 149 705 178 l 696 43 q 529 -6 644 7 q 464 -10 495 -10 q 179 90 292 -10 q 66 349 66 191 m 584 434 q 425 580 556 580 q 269 491 322 580 q 243 431 252 464 q 283 430 260 431 l 334 430 q 382 429 359 429 l 420 429 q 488 430 455 429 l 544 432 q 584 434 566 433 z "},"f":{"ha":464,"x_min":3,"x_max":476,"o":"m 438 631 q 433 532 433 611 l 433 472 l 269 472 l 269 0 l 103 0 l 103 472 l 3 472 q 5 551 4 517 l 6 624 l 6 631 l 103 631 l 103 673 q 179 935 103 836 q 397 1037 258 1037 q 475 1029 456 1037 l 476 859 l 475 855 q 409 881 449 881 q 345 868 370 881 q 304 830 321 854 q 269 696 269 781 l 269 631 l 438 631 z "},"g":{"ha":809,"x_min":41,"x_max":793,"o":"m 282 189 q 257 136 257 155 q 263 106 257 117 q 290 86 269 96 q 437 49 334 65 q 597 9 539 33 q 691 -49 655 -14 q 758 -235 758 -115 q 673 -421 758 -356 q 422 -486 589 -486 q 151 -412 254 -486 q 45 -218 47 -339 q 155 -14 41 -77 q 114 47 124 12 q 103 127 103 82 q 169 254 103 202 q 92 435 92 327 q 179 637 92 555 q 416 722 271 722 q 560 694 493 722 q 690 759 648 731 q 743 800 731 787 l 747 800 q 761 753 753 783 l 773 705 q 793 622 789 644 q 688 576 763 589 q 717 456 717 519 q 695 342 717 393 q 633 252 673 291 q 407 169 545 169 q 282 189 340 169 m 264 494 q 255 444 255 469 q 266 396 255 419 q 296 355 276 373 q 415 314 342 314 q 511 351 471 314 q 554 449 554 392 q 515 542 554 507 q 409 577 477 577 q 264 494 297 577 m 431 -342 q 597 -225 597 -342 q 543 -136 597 -170 q 334 -75 482 -97 l 298 -69 q 233 -130 254 -93 q 212 -201 212 -168 q 228 -259 212 -235 q 271 -302 243 -283 q 431 -342 333 -342 z "},"h":{"ha":809,"x_min":117,"x_max":737,"o":"m 283 76 q 286 0 283 18 l 117 0 l 117 970 l 283 970 l 283 656 q 464 722 371 722 q 647 647 578 722 q 715 448 715 572 l 715 178 q 718 40 715 63 q 727 10 722 17 q 737 -2 733 3 l 736 -5 q 656 0 681 0 l 608 0 q 549 -2 585 0 l 549 391 q 507 529 549 484 q 422 563 476 563 q 283 471 343 563 l 283 76 z "},"i":{"ha":348,"x_min":78,"x_max":337,"o":"m 78 911 q 191 1060 132 996 l 337 945 q 283 875 308 909 q 231 801 283 875 l 78 911 m 256 76 q 259 0 256 18 l 87 0 l 87 709 l 256 709 l 256 76 z "},"j":{"ha":348,"x_min":-98,"x_max":295,"o":"m 64 906 q 165 1039 109 977 l 295 937 q 249 877 261 893 l 225 844 q 201 808 214 828 l 64 906 m -11 -105 q 90 44 90 -105 l 90 709 l 254 709 l 254 93 q 92 -244 254 -192 q -28 -261 39 -261 l -98 -83 l -97 -79 q -11 -105 -58 -105 z "},"k":{"ha":809,"x_min":110,"x_max":826,"o":"m 276 90 q 281 0 276 31 l 110 0 l 110 970 l 276 970 l 276 376 l 586 709 l 787 709 l 520 427 l 673 219 q 747 104 722 140 l 792 41 q 826 0 812 14 l 719 0 q 616 -10 659 0 l 405 299 l 276 162 l 276 90 z "},"l":{"ha":348,"x_min":87,"x_max":260,"o":"m 257 76 q 260 0 257 18 l 87 0 l 87 1010 l 257 1010 l 257 76 z "},"m":{"ha":1160,"x_min":111,"x_max":1085,"o":"m 283 196 q 288 0 283 43 l 111 0 l 111 709 l 283 709 l 283 648 q 473 722 376 722 q 641 623 589 722 q 728 693 693 676 q 843 722 785 722 q 942 703 901 722 q 1009 647 983 683 q 1063 448 1063 574 l 1063 178 q 1066 40 1063 63 q 1075 10 1069 17 q 1085 -2 1081 3 l 1084 -5 q 1004 0 1029 0 l 953 0 q 891 -2 928 0 l 891 365 q 842 553 891 524 q 804 563 826 563 q 765 558 782 563 q 733 541 748 553 q 676 469 708 523 q 677 458 677 464 q 677 279 677 453 q 685 0 677 106 q 587 0 627 0 q 510 -2 547 0 l 510 366 q 497 509 510 476 q 469 553 484 543 q 432 563 454 563 q 283 477 342 563 l 283 196 z "},"n":{"ha":812,"x_min":113,"x_max":736,"o":"m 278 87 q 283 0 278 27 l 113 0 l 113 709 l 278 709 l 278 648 q 469 722 368 722 q 647 647 581 722 q 713 448 713 571 l 713 178 q 717 40 713 63 q 726 10 720 17 q 736 -2 732 3 l 734 -5 q 654 0 680 0 l 607 0 q 549 -2 585 0 l 549 368 q 428 566 549 566 q 278 474 338 566 l 278 87 z "},"o":{"ha":812,"x_min":48,"x_max":770,"o":"m 48 351 q 74 493 48 425 q 146 612 99 562 q 416 722 250 722 q 677 618 581 722 q 770 361 770 519 q 675 100 770 203 q 407 -10 574 -10 q 137 98 235 -10 q 48 351 48 196 m 213 355 q 227 272 213 312 q 268 203 241 232 q 416 142 324 142 q 549 202 500 142 q 597 354 597 260 q 548 507 597 449 q 405 570 496 570 q 260 503 313 570 q 213 355 213 442 z "},"p":{"ha":809,"x_min":110,"x_max":766,"o":"m 276 14 l 276 -185 q 279 -261 276 -243 l 110 -261 l 110 709 l 276 709 l 276 665 q 433 722 358 722 q 567 701 509 722 q 669 636 625 680 q 766 363 766 541 q 711 154 766 246 q 582 29 665 76 q 423 -12 509 -12 q 276 14 338 -12 m 276 185 q 410 142 328 142 q 583 271 544 142 q 597 366 597 315 q 587 447 597 416 q 563 499 578 477 q 528 535 547 521 q 490 559 509 550 q 418 574 455 574 q 342 557 382 574 q 276 512 303 541 l 276 185 z "},"q":{"ha":809,"x_min":69,"x_max":741,"o":"m 572 -261 q 575 -185 575 -243 l 575 62 q 389 -10 491 -10 q 161 80 248 -10 q 69 330 69 174 q 167 613 69 506 q 408 715 262 715 q 583 680 519 715 l 741 709 l 741 -261 l 572 -261 m 575 522 q 419 568 526 568 q 285 505 335 568 q 235 347 235 441 q 336 159 235 205 q 416 142 370 142 q 575 231 511 142 l 575 522 z "},"r":{"ha":464,"x_min":94,"x_max":481,"o":"m 260 76 q 262 0 260 18 l 94 0 l 94 709 l 260 709 l 260 656 q 381 722 317 722 q 481 707 444 722 l 469 524 l 466 522 q 368 564 442 564 q 310 545 339 564 q 260 494 280 526 l 260 76 z "},"s":{"ha":696,"x_min":50,"x_max":638,"o":"m 338 -10 q 50 60 147 -10 q 54 106 52 80 l 60 155 q 67 215 66 203 q 69 228 68 227 q 80 217 70 229 q 119 188 90 205 q 184 158 147 171 q 353 130 265 130 q 470 208 470 130 q 448 245 470 233 q 330 276 408 266 q 203 307 252 287 q 122 356 153 328 q 64 496 64 410 q 146 663 64 602 q 369 722 227 722 q 610 642 510 722 q 600 608 605 625 q 576 544 584 564 l 561 504 q 559 498 559 498 q 548 513 557 498 q 415 578 505 562 q 358 583 387 583 q 235 509 235 583 q 260 469 235 483 q 392 431 309 444 q 519 398 476 419 q 589 349 563 378 q 638 208 638 296 q 562 53 638 113 q 338 -10 481 -10 z "},"t":{"ha":580,"x_min":42,"x_max":542,"o":"m 414 149 q 534 195 502 149 l 540 195 l 542 37 q 418 -7 509 4 q 358 -10 394 -10 q 279 3 321 -10 q 207 47 237 17 q 145 245 145 111 l 145 553 l 43 553 q 42 593 42 572 l 42 697 q 43 709 42 709 l 145 709 l 145 902 l 311 902 l 311 709 l 498 709 l 498 553 l 311 553 l 311 276 q 370 155 311 170 q 414 149 389 149 z "},"u":{"ha":809,"x_min":89,"x_max":698,"o":"m 524 62 q 335 -10 437 -10 q 163 64 225 -10 q 103 261 103 136 l 103 530 q 97 686 103 666 q 89 711 92 706 q 154 709 120 709 l 210 709 q 269 711 233 709 l 269 318 q 345 156 269 178 q 395 149 368 149 q 524 208 475 149 l 524 709 l 692 709 l 692 87 q 698 0 692 27 l 524 0 l 524 62 z "},"v":{"ha":699,"x_min":-3,"x_max":703,"o":"m -3 709 l 189 709 l 355 242 l 515 709 l 703 709 l 422 0 l 283 0 l -3 709 z "},"w":{"ha":1041,"x_min":5,"x_max":1036,"o":"m 5 709 l 187 709 l 313 199 l 449 709 l 605 709 l 745 189 l 871 709 l 1036 709 l 827 0 l 651 0 l 517 465 l 392 0 l 218 0 l 5 709 z "},"x":{"ha":699,"x_min":7,"x_max":699,"o":"m 254 361 l 14 709 l 226 709 l 351 492 l 487 709 l 684 709 q 669 689 684 709 l 448 374 l 699 0 l 489 0 l 353 230 l 219 0 l 7 0 l 254 361 z "},"y":{"ha":695,"x_min":18,"x_max":718,"o":"m 35 -236 l 79 -200 q 247 42 180 -118 l 278 117 l 18 709 l 208 709 l 371 299 l 522 709 l 718 709 q 631 527 682 660 l 530 275 q 210 -297 326 -205 l 35 -236 z "},"z":{"ha":694,"x_min":38,"x_max":671,"o":"m 98 677 l 97 709 l 670 709 l 324 136 l 591 136 q 671 153 650 136 l 627 -10 q 555 -7 597 -8 l 471 -3 q 323 0 393 0 q 38 -10 170 0 l 393 576 l 224 576 q 96 558 146 576 q 98 640 98 611 l 98 677 z "},"{":{"ha":696,"x_min":151,"x_max":520,"o":"m 520 -63 q 418 -71 473 -71 q 317 -57 363 -71 q 240 -18 270 -43 q 181 109 181 29 q 239 246 181 186 q 268 313 258 288 q 277 362 277 338 q 151 439 277 417 l 151 477 q 267 517 243 493 q 277 538 277 526 q 276 561 277 551 q 270 584 274 572 q 240 649 262 606 q 181 791 181 705 q 238 917 181 864 q 428 980 306 980 q 520 972 468 980 l 513 834 l 511 833 q 478 839 492 838 q 447 841 464 840 q 412 839 430 843 q 382 826 395 834 q 355 782 355 808 q 422 663 355 728 q 462 538 462 581 q 354 451 462 485 q 462 370 462 416 q 428 254 462 330 l 395 216 q 355 138 355 169 q 384 85 355 106 q 457 68 414 62 q 483 70 471 69 q 511 76 496 71 l 513 75 l 520 -63 z "},"|":{"ha":630,"x_min":225,"x_max":405,"o":"m 226 -115 q 229 -35 229 -72 l 229 955 q 225 1038 229 970 l 405 1038 q 401 913 401 970 l 401 -39 q 404 -115 401 -98 l 226 -115 z "},"}":{"ha":696,"x_min":151,"x_max":520,"o":"m 151 -63 q 252 -71 197 -71 q 354 -57 307 -71 q 431 -18 401 -43 q 490 109 490 29 q 431 246 490 186 q 403 313 413 288 q 393 362 393 338 q 520 439 393 417 l 520 477 q 404 517 428 493 q 393 538 393 526 q 395 561 393 551 q 401 584 397 572 q 431 649 409 606 q 490 791 490 705 q 433 917 490 864 q 243 980 365 980 q 151 972 203 980 l 157 834 l 160 833 q 193 839 179 838 q 224 841 207 840 q 258 839 241 843 q 289 826 276 834 q 316 782 316 808 q 248 663 316 728 q 209 538 209 581 q 317 451 209 485 q 209 370 209 416 q 243 254 209 330 l 276 216 q 316 138 316 169 q 287 85 316 106 q 214 68 256 62 q 188 70 200 69 q 160 76 175 71 l 157 75 l 151 -63 z "},"~":{"ha":1041,"x_min":91,"x_max":950,"o":"m 741 368 q 933 507 885 368 l 937 505 l 950 320 q 721 212 891 212 q 505 302 629 212 q 385 375 428 358 q 308 392 342 392 q 245 386 273 392 q 191 365 216 380 q 100 267 141 336 l 96 269 l 91 456 q 326 552 174 552 q 543 460 408 552 q 741 368 677 368 z "}," ":{"ha":298,"x_min":0,"x_max":0,"o":""},"¡":{"ha":464,"x_min":142,"x_max":321,"o":"m 146 670 q 264 666 180 666 l 319 666 l 320 3 l 258 5 l 243 5 q 143 0 165 5 l 146 670 m 142 761 q 144 847 144 795 q 142 924 144 900 l 321 924 q 316 841 316 882 q 320 761 316 800 l 142 761 z "},"¢":{"ha":925,"x_min":102,"x_max":805,"o":"m 441 -132 q 447 -41 447 -109 l 447 -16 q 198 96 294 -3 q 102 336 102 194 q 197 587 102 482 q 442 715 289 688 l 442 760 q 436 852 442 829 l 618 852 q 616 768 616 812 l 616 719 q 795 684 729 710 l 776 500 l 770 494 q 593 555 715 540 q 510 559 557 559 q 417 544 463 559 q 340 500 371 528 q 280 361 280 447 q 348 209 280 267 q 536 146 420 146 q 760 222 675 146 q 800 276 787 246 l 805 272 l 795 72 q 621 -3 738 18 l 621 -48 q 623 -132 623 -130 l 441 -132 z "},"£":{"ha":922,"x_min":123,"x_max":802,"o":"m 445 391 q 448 306 448 363 q 423 177 448 248 q 481 167 463 170 q 515 161 500 164 q 548 154 530 157 q 630 146 590 146 q 694 148 669 146 q 738 155 719 150 q 798 182 777 164 l 802 182 l 797 6 q 660 -17 740 -17 q 576 -8 631 -17 l 497 5 q 439 16 460 12 l 401 22 q 353 27 374 27 q 301 22 323 27 q 157 -18 244 -7 l 123 155 q 239 184 157 174 q 275 313 275 263 q 272 391 275 362 l 153 391 l 144 553 l 243 553 q 235 662 235 606 q 256 767 235 718 q 317 849 278 816 q 537 919 400 919 q 747 890 665 919 l 723 720 l 722 717 q 611 748 670 739 q 532 756 551 756 q 408 646 408 756 q 413 553 408 589 l 587 553 q 676 557 661 553 l 678 387 q 594 391 646 391 l 445 391 z "},"¤":{"ha":1041,"x_min":136,"x_max":905,"o":"m 791 587 q 832 441 832 520 q 786 296 832 363 l 838 244 q 900 186 869 212 l 770 58 q 710 126 755 82 l 649 187 q 518 162 587 162 q 391 185 449 162 l 332 125 q 271 56 283 77 l 142 186 q 174 213 158 199 l 256 296 q 216 435 216 358 q 255 577 216 512 l 204 628 q 136 688 160 673 l 264 818 q 322 756 290 787 l 385 693 q 526 722 452 722 q 658 699 601 722 q 775 820 751 791 l 905 691 q 836 631 884 680 l 791 587 m 386 442 q 397 394 386 416 q 429 355 409 372 q 528 322 469 322 q 625 355 586 322 q 667 445 667 389 q 628 528 667 493 q 524 566 586 566 q 423 529 463 566 q 386 442 386 494 z "},"¥":{"ha":1041,"x_min":114,"x_max":926,"o":"m 449 0 q 458 123 458 26 l 458 251 l 220 251 l 220 384 l 458 384 l 458 448 l 220 448 l 220 581 l 367 581 l 253 742 q 114 902 174 855 l 355 902 q 390 834 359 881 l 540 585 l 688 834 q 716 902 718 889 l 926 902 q 821 746 911 894 l 713 581 l 769 581 q 859 585 844 581 l 859 444 q 776 448 826 448 l 631 448 l 631 384 l 768 384 q 857 388 842 384 l 857 248 q 769 251 825 251 l 631 251 l 631 107 q 639 0 631 39 l 449 0 z "},"¦":{"ha":630,"x_min":225,"x_max":405,"o":"m 401 653 q 404 577 401 595 l 226 577 q 229 629 229 621 l 229 955 q 225 1038 229 970 l 405 1038 q 401 913 401 970 l 401 653 m 401 -39 q 404 -115 401 -98 l 226 -115 l 227 -93 q 229 -43 229 -70 l 229 261 q 225 344 229 276 l 405 344 q 401 220 401 276 l 401 -39 z "},"§":{"ha":925,"x_min":100,"x_max":824,"o":"m 692 119 q 783 -49 783 47 q 673 -245 783 -175 q 438 -309 574 -309 q 222 -262 328 -309 q 172 -231 192 -248 l 164 -24 l 166 -22 q 285 -115 198 -76 q 458 -154 370 -154 q 556 -137 522 -154 q 603 -106 590 -121 q 616 -75 616 -92 q 407 35 616 -3 q 123 190 193 73 q 100 271 100 228 q 239 492 100 414 q 140 667 140 570 q 235 845 140 775 q 504 919 334 919 q 711 877 621 919 q 753 852 736 865 l 728 656 l 724 654 q 553 753 669 728 q 473 761 514 761 q 403 754 432 761 q 354 737 374 748 q 312 682 312 715 q 425 589 312 626 q 524 567 460 578 q 648 532 587 557 q 747 477 708 508 q 824 336 824 415 q 692 119 824 195 m 276 348 q 266 314 266 332 q 284 278 266 295 q 331 248 302 262 q 395 224 360 235 q 464 207 431 214 q 568 188 516 195 l 606 214 q 651 257 642 239 q 660 294 660 275 q 635 332 660 313 q 570 366 610 351 q 385 415 499 394 q 276 348 307 395 z "},"¨":{"ha":589,"x_min":62,"x_max":534,"o":"m 534 970 q 531 883 531 936 q 534 807 531 831 l 354 807 q 359 890 359 849 q 355 970 359 931 l 534 970 m 242 970 q 239 883 239 936 q 242 807 239 831 l 62 807 q 68 890 68 849 q 64 970 68 931 l 242 970 z "},"©":{"ha":1273,"x_min":117,"x_max":1155,"o":"m 264 205 q 230 235 264 205 q 156 352 195 266 q 117 531 117 438 q 138 689 117 624 q 196 804 159 753 q 282 892 233 855 q 391 954 332 930 q 769 985 570 1028 q 996 883 899 958 q 1135 686 1095 806 q 1155 556 1155 625 q 1136 425 1155 486 q 1083 310 1118 363 q 1002 214 1049 257 q 897 141 954 171 q 650 78 777 78 q 429 111 524 78 q 264 205 334 144 m 277 542 q 302 419 277 475 q 375 320 328 363 q 633 227 477 227 q 901 316 801 227 q 996 536 996 402 q 898 773 996 682 q 635 865 798 865 q 370 772 468 865 q 277 542 277 682 m 812 370 q 652 326 761 326 q 464 389 536 326 q 395 543 395 450 q 469 703 395 638 q 667 770 547 770 q 806 743 747 770 l 806 589 l 805 589 q 705 627 775 616 q 669 630 686 630 q 577 607 608 630 q 546 547 546 584 q 582 488 546 511 q 677 466 617 466 q 787 492 734 466 q 811 509 802 500 l 812 509 l 812 370 z "},"ª":{"ha":809,"x_min":81,"x_max":727,"o":"m 524 455 q 369 391 456 391 q 229 413 281 391 q 144 471 176 435 q 81 649 81 538 q 157 841 81 765 q 363 919 235 919 q 499 880 436 919 l 499 923 l 672 923 l 672 609 q 727 471 672 494 l 726 467 l 591 380 q 524 455 556 391 m 499 741 q 381 770 438 770 q 289 739 323 770 q 254 657 254 709 q 294 573 254 606 q 391 540 334 540 q 499 568 448 540 l 499 741 z "},"«":{"ha":925,"x_min":136,"x_max":789,"o":"m 155 304 q 136 351 136 338 q 152 404 136 374 l 288 621 l 461 621 l 307 357 l 465 95 l 292 95 l 155 304 m 479 304 q 460 351 460 338 q 475 404 460 374 l 612 621 l 785 621 l 631 357 l 789 95 l 616 95 l 479 304 z "},"¬":{"ha":1041,"x_min":178,"x_max":863,"o":"m 262 339 q 178 336 210 339 l 180 503 q 269 499 195 499 l 770 499 q 860 503 845 499 l 860 229 q 863 145 860 178 l 696 147 q 700 237 700 163 l 700 339 l 262 339 z "},"­":{"ha":833,"x_min":0,"x_max":0,"o":""},"®":{"ha":1270,"x_min":116,"x_max":1154,"o":"m 263 205 q 229 235 263 205 q 155 352 194 266 q 116 531 116 438 q 137 689 116 624 q 195 804 158 753 q 281 892 231 855 q 389 954 331 930 q 768 985 569 1028 q 994 883 898 958 q 1134 686 1094 806 q 1154 556 1154 625 q 1135 425 1154 486 q 1082 310 1116 363 q 1000 214 1048 257 q 895 141 953 171 q 649 78 775 78 q 427 111 522 78 q 263 205 332 144 m 275 542 q 301 419 275 475 q 374 320 327 363 q 631 227 475 227 q 899 316 800 227 q 994 536 994 402 q 897 773 994 682 q 633 865 796 865 q 369 772 467 865 q 275 542 275 682 m 669 433 q 633 431 647 431 l 612 431 q 601 432 606 431 l 601 336 l 448 336 l 448 749 q 594 768 516 768 q 719 754 672 768 q 796 718 766 741 q 855 603 855 672 q 800 487 855 534 l 836 416 q 849 393 842 406 q 887 335 882 339 l 886 334 q 859 336 870 336 l 830 336 q 719 333 757 336 l 669 433 m 632 545 q 709 606 709 545 q 685 642 709 628 q 636 655 661 655 l 608 655 q 601 654 604 655 l 601 547 q 617 545 610 545 l 632 545 z "},"¯":{"ha":630,"x_min":86,"x_max":544,"o":"m 544 1033 q 541 981 541 999 l 541 958 q 544 918 541 953 l 86 918 l 88 935 q 92 976 92 958 q 87 1033 92 994 l 544 1033 z "},"°":{"ha":696,"x_min":104,"x_max":591,"o":"m 342 496 q 245 514 289 496 q 171 563 202 532 q 104 728 104 628 q 169 895 104 827 q 354 967 239 967 q 526 894 456 967 q 591 732 591 825 q 522 564 591 631 q 342 496 450 496 m 271 657 q 278 650 271 657 q 306 635 286 643 q 351 627 327 627 q 394 635 375 627 q 427 657 413 643 q 456 734 456 688 q 395 831 456 806 q 349 840 374 840 q 304 831 323 840 q 270 808 284 823 q 241 744 241 778 q 249 691 241 710 q 271 657 257 671 z "},"±":{"ha":925,"x_min":154,"x_max":770,"o":"m 543 392 q 546 308 543 340 l 378 310 q 382 399 382 326 l 382 543 l 238 543 q 154 539 186 543 l 156 707 q 245 703 171 703 l 382 703 l 382 833 q 378 922 382 907 l 546 924 q 543 840 543 892 l 543 703 l 679 703 q 768 707 753 703 l 770 539 q 686 543 738 543 l 543 543 l 543 392 m 238 68 q 154 64 186 68 l 156 218 q 245 214 171 214 l 679 214 q 768 218 753 214 l 770 64 q 686 68 738 68 l 238 68 z "},"²":{"ha":580,"x_min":67,"x_max":513,"o":"m 446 409 q 275 415 351 415 q 67 410 147 415 l 129 508 q 254 758 254 707 q 242 793 254 778 q 217 809 231 809 q 189 807 203 809 q 160 799 174 804 q 108 771 127 788 l 103 770 l 106 926 q 248 953 146 953 q 381 914 327 953 q 437 807 437 875 q 342 551 437 713 l 448 551 q 509 562 494 551 l 513 561 l 446 409 z "},"³":{"ha":580,"x_min":76,"x_max":494,"o":"m 402 715 q 469 656 444 693 q 494 578 494 619 q 478 505 494 536 q 432 452 462 473 q 264 406 370 406 q 77 455 143 406 l 76 590 l 79 594 q 207 545 113 560 q 260 541 234 541 q 337 583 337 541 q 323 610 337 600 q 275 630 298 630 q 241 629 252 630 q 221 626 230 627 q 200 621 202 623 l 198 625 l 201 730 q 263 740 222 740 l 264 740 q 299 777 299 753 q 236 822 299 822 q 124 793 172 822 l 123 795 l 118 924 q 277 960 171 960 q 412 925 360 960 q 464 825 464 890 q 402 715 464 760 z "},"´":{"ha":580,"x_min":165,"x_max":496,"o":"m 279 1019 q 496 1031 381 1019 l 496 1026 l 318 807 l 165 807 l 279 1019 z "},"µ":{"ha":925,"x_min":156,"x_max":864,"o":"m 241 -276 q 165 -31 165 -219 l 165 556 q 156 711 165 652 q 218 709 187 709 l 272 709 q 331 711 294 709 l 331 205 q 465 149 376 149 q 566 191 523 149 l 566 709 l 732 709 l 732 254 q 804 149 732 149 q 859 171 840 149 l 864 171 l 825 3 q 753 -10 803 -10 q 608 58 661 -10 q 429 -10 523 -10 q 315 18 371 -10 q 378 -184 319 -144 l 378 -187 l 241 -276 z "},"¶":{"ha":925,"x_min":79,"x_max":807,"o":"m 365 15 q 269 0 325 0 q 170 19 214 0 l 170 181 l 175 182 q 241 162 212 162 q 282 166 271 162 q 301 180 294 170 q 317 250 317 200 l 317 382 q 137 466 203 386 q 79 640 79 536 q 273 884 79 829 q 421 902 336 902 l 807 902 q 802 740 802 846 l 802 76 q 804 0 802 18 l 635 0 l 635 741 q 579 743 603 743 l 534 743 q 490 742 512 743 l 490 317 q 365 15 490 63 z "},"·":{"ha":346,"x_min":74,"x_max":272,"o":"m 74 407 q 80 480 80 448 q 80 524 80 512 q 79 547 79 536 q 77 569 78 559 l 75 586 l 272 586 q 270 544 270 560 l 269 515 q 269 467 269 503 q 272 407 269 431 l 74 407 z "},"¸":{"ha":456,"x_min":115,"x_max":315,"o":"m 304 27 q 309 -7 304 27 q 315 -102 315 -45 q 300 -197 315 -159 q 265 -245 285 -234 q 119 -293 225 -271 l 115 -289 q 163 0 163 -222 l 304 27 z "},"¹":{"ha":464,"x_min":149,"x_max":315,"o":"m 149 943 l 315 943 l 315 407 l 149 407 l 149 943 z "},"º":{"ha":809,"x_min":109,"x_max":700,"o":"m 396 391 q 272 414 327 391 q 180 474 216 437 q 109 649 109 546 q 193 841 109 764 q 408 919 279 919 q 616 846 533 919 q 700 659 700 772 q 614 471 700 549 q 396 391 527 391 m 311 571 q 320 563 311 571 q 354 547 329 555 q 408 538 380 538 q 459 547 436 538 q 498 571 481 555 q 534 650 534 604 q 495 735 534 701 q 412 770 457 770 q 343 759 368 770 q 303 731 319 748 q 271 663 271 698 q 282 608 271 629 q 311 571 292 587 z "},"»":{"ha":925,"x_min":136,"x_max":789,"o":"m 446 304 q 465 351 465 338 q 450 404 465 374 l 313 621 l 140 621 l 294 357 l 136 95 l 309 95 l 446 304 m 770 304 q 789 351 789 338 q 773 404 789 374 l 637 621 l 464 621 l 618 357 l 460 95 l 633 95 l 770 304 z "},"¼":{"ha":1382,"x_min":170,"x_max":1212,"o":"m 170 943 l 336 943 l 336 407 l 170 407 l 170 943 m 747 902 l 913 902 l 405 0 l 239 0 l 747 902 m 1109 246 q 1210 256 1173 246 l 1212 254 l 1170 97 l 1095 97 l 1095 0 l 929 0 l 929 97 l 667 97 l 654 127 l 865 522 l 1095 522 l 1095 246 l 1109 246 m 929 246 l 929 407 l 864 246 l 929 246 z "},"½":{"ha":1385,"x_min":188,"x_max":1197,"o":"m 188 943 l 354 943 l 354 407 l 188 407 l 188 943 m 749 902 l 916 902 l 407 0 l 241 0 l 749 902 m 1130 -5 q 751 -5 931 7 l 813 94 q 938 344 938 293 q 926 379 938 363 q 901 395 915 395 q 873 392 888 395 q 844 385 859 390 q 792 357 812 374 l 787 356 l 791 511 q 932 538 830 538 q 1065 500 1011 538 q 1121 393 1121 460 q 1026 136 1121 298 l 1132 136 q 1194 148 1179 136 l 1197 146 l 1130 -5 z "},"¾":{"ha":1501,"x_min":146,"x_max":1354,"o":"m 891 902 l 1057 902 l 549 0 l 382 0 l 891 902 m 1252 246 q 1352 256 1316 246 l 1354 254 l 1312 97 l 1238 97 l 1238 0 l 1072 0 l 1072 97 l 810 97 l 796 127 l 1007 522 l 1238 522 l 1238 246 l 1252 246 m 1072 246 l 1072 407 l 1006 246 l 1072 246 m 473 715 q 539 656 514 693 q 564 578 564 619 q 548 505 564 536 q 503 452 532 473 q 335 406 441 406 q 148 455 214 406 l 146 590 l 150 594 q 277 545 184 560 q 330 541 304 541 q 408 583 408 541 q 394 610 408 600 q 346 630 369 630 q 311 629 322 630 q 292 626 300 627 q 271 621 273 623 l 269 625 l 272 730 q 334 740 292 740 l 334 740 q 370 777 370 753 q 306 822 370 822 q 195 793 243 822 l 193 795 l 189 924 q 347 960 241 960 q 483 925 431 960 q 534 825 534 890 q 473 715 534 760 z "},"¿":{"ha":696,"x_min":56,"x_max":602,"o":"m 244 595 q 372 671 303 639 q 456 551 456 639 q 437 481 456 513 q 322 357 397 420 q 252 289 267 311 q 230 229 230 256 q 241 181 230 201 q 273 149 253 162 q 378 121 315 121 q 526 177 460 121 q 563 223 549 196 l 568 224 q 574 164 566 195 l 602 62 q 353 -28 506 -28 q 137 45 224 -28 q 56 214 56 116 q 76 298 56 263 q 163 404 109 357 q 237 472 216 451 q 267 507 257 493 q 283 549 283 529 q 271 580 283 568 q 244 595 259 592 m 259 741 q 262 828 262 775 q 259 904 262 880 l 439 904 q 433 821 433 862 q 437 741 433 780 l 259 741 z "},"À":{"ha":812,"x_min":-7,"x_max":819,"o":"m 182 -5 q 46 0 124 0 l -7 0 l 288 827 q 307 891 307 882 q 307 903 307 901 l 307 904 q 401 902 351 902 q 498 903 441 902 l 499 902 q 498 895 498 899 q 518 826 498 882 l 819 -2 q 787 -1 806 -1 q 752 0 787 -1 q 722 0 735 0 l 616 0 l 553 195 l 246 195 l 182 -5 m 500 358 l 397 673 l 298 358 l 500 358 m 240 1224 q 457 1213 355 1213 l 572 1000 l 418 1000 l 241 1219 l 240 1224 z "},"Á":{"ha":812,"x_min":-7,"x_max":819,"o":"m 182 -5 q 46 0 124 0 l -7 0 l 288 827 q 307 891 307 882 q 307 903 307 901 l 307 904 q 401 902 351 902 q 498 903 441 902 l 499 902 q 498 895 498 899 q 518 826 498 882 l 819 -2 q 787 -1 806 -1 q 752 0 787 -1 q 722 0 735 0 l 616 0 l 553 195 l 246 195 l 182 -5 m 500 358 l 397 673 l 298 358 l 500 358 m 355 1213 q 572 1224 456 1213 l 571 1219 l 393 1000 l 240 1000 l 355 1213 z "},"Â":{"ha":812,"x_min":-7,"x_max":819,"o":"m 182 -5 q 46 0 124 0 l -7 0 l 288 827 q 307 891 307 882 q 307 903 307 901 l 307 904 q 401 902 351 902 q 498 903 441 902 l 499 902 q 498 895 498 899 q 518 826 498 882 l 819 -2 q 787 -1 806 -1 q 752 0 787 -1 q 722 0 735 0 l 616 0 l 553 195 l 246 195 l 182 -5 m 500 358 l 397 673 l 298 358 l 500 358 m 337 999 q 159 997 191 999 l 157 999 l 321 1223 q 366 1221 337 1221 l 400 1221 l 482 1223 l 655 999 l 652 997 l 479 999 l 403 1119 l 337 999 z "},"Ã":{"ha":812,"x_min":-7,"x_max":819,"o":"m 182 -5 q 46 0 124 0 l -7 0 l 288 827 q 307 891 307 882 q 307 903 307 901 l 307 904 q 401 902 351 902 q 498 903 441 902 l 499 902 q 498 895 498 899 q 518 826 498 882 l 819 -2 q 787 -1 806 -1 q 752 0 787 -1 q 722 0 735 0 l 616 0 l 553 195 l 246 195 l 182 -5 m 500 358 l 397 673 l 298 358 l 500 358 m 295 1061 q 182 1010 231 1061 l 179 1011 l 176 1146 q 302 1200 222 1200 q 418 1163 364 1200 q 528 1126 471 1126 q 634 1183 609 1126 l 635 1182 l 629 1036 q 587 1002 617 1015 q 525 989 557 989 q 472 994 492 989 q 435 1008 452 1000 q 404 1025 418 1016 q 373 1042 389 1034 q 295 1061 335 1061 z "},"Ä":{"ha":812,"x_min":-7,"x_max":819,"o":"m 182 -5 q 46 0 124 0 l -7 0 l 288 827 q 307 891 307 882 q 307 903 307 901 l 307 904 q 401 902 351 902 q 498 903 441 902 l 499 902 q 498 895 498 899 q 518 826 498 882 l 819 -2 q 787 -1 806 -1 q 752 0 787 -1 q 722 0 735 0 l 616 0 l 553 195 l 246 195 l 182 -5 m 500 358 l 397 673 l 298 358 l 500 358 m 642 1163 q 639 1077 639 1129 q 642 1000 639 1024 l 462 1000 q 467 1083 467 1042 q 463 1163 467 1124 l 642 1163 m 350 1163 q 347 1077 347 1129 q 350 1000 347 1024 l 170 1000 q 176 1083 176 1042 q 172 1163 176 1124 l 350 1163 z "},"Å":{"ha":812,"x_min":-7,"x_max":819,"o":"m 182 -5 q 46 0 124 0 l -7 0 l 288 827 q 307 891 307 882 q 307 903 307 901 l 307 904 q 401 902 351 902 q 498 903 441 902 l 499 902 q 498 895 498 899 q 518 826 498 882 l 819 -2 q 787 -1 806 -1 q 752 0 787 -1 q 722 0 735 0 l 616 0 l 553 195 l 246 195 l 182 -5 m 500 358 l 397 673 l 298 358 l 500 358 m 401 927 q 326 938 360 927 q 268 969 292 949 q 216 1086 216 1012 q 267 1203 216 1158 q 411 1250 319 1250 q 544 1203 492 1250 q 595 1089 595 1158 q 541 970 595 1015 q 401 927 488 927 m 345 1043 q 350 1038 345 1043 q 370 1028 355 1034 q 404 1023 386 1023 q 436 1028 422 1023 q 461 1042 450 1033 q 485 1082 485 1062 q 480 1114 485 1102 q 465 1135 475 1126 q 412 1158 441 1158 q 368 1152 382 1158 q 343 1135 353 1145 q 324 1097 324 1117 q 329 1064 324 1076 q 345 1043 334 1052 z "},"Æ":{"ha":1157,"x_min":-10,"x_max":1093,"o":"m 189 -5 q 43 0 116 0 l -10 0 l 466 827 l 488 864 q 500 890 500 882 q 498 903 500 899 l 499 904 q 593 902 543 902 l 734 902 q 815 902 776 902 l 896 903 q 1077 907 985 904 q 1069 748 1069 848 q 1071 732 1069 737 l 1069 730 q 969 740 1034 740 l 745 740 l 745 567 l 922 567 q 1012 571 997 567 l 1014 404 q 930 407 981 407 l 745 407 l 745 163 l 1032 163 q 1090 171 1074 163 l 1093 170 l 1086 0 l 572 0 l 573 195 l 297 195 l 189 -5 m 574 358 l 577 717 l 385 358 l 574 358 z "},"Ç":{"ha":806,"x_min":35,"x_max":751,"o":"m 536 -14 q 541 -105 541 -52 q 525 -197 541 -159 q 490 -245 510 -234 q 345 -293 450 -271 l 340 -289 q 385 -87 374 -241 q 388 -11 388 -45 q 125 141 220 14 q 35 447 35 262 q 159 792 35 666 q 508 919 283 919 q 737 875 648 919 l 737 667 l 736 666 q 576 743 698 724 q 485 749 540 749 q 377 729 430 749 q 290 670 324 708 q 224 459 224 596 q 308 222 224 300 q 491 157 377 157 q 700 212 620 157 q 749 260 729 231 l 751 259 l 751 69 q 536 -14 669 0 z "},"È":{"ha":696,"x_min":117,"x_max":631,"o":"m 570 163 q 629 171 612 163 l 631 170 l 625 0 l 117 0 l 117 907 q 157 905 135 905 l 205 903 q 308 902 252 902 q 615 907 463 902 q 608 748 608 848 q 609 732 608 737 l 608 730 q 507 740 572 740 l 294 740 l 294 567 l 454 567 q 544 571 529 567 l 546 404 q 462 407 513 407 l 294 407 l 294 163 l 570 163 m 198 1224 q 415 1213 313 1213 l 530 1000 l 376 1000 l 199 1219 l 198 1224 z "},"É":{"ha":696,"x_min":117,"x_max":631,"o":"m 570 163 q 629 171 612 163 l 631 170 l 625 0 l 117 0 l 117 907 q 157 905 135 905 l 205 903 q 308 902 252 902 q 615 907 463 902 q 608 748 608 848 q 609 732 608 737 l 608 730 q 507 740 572 740 l 294 740 l 294 567 l 454 567 q 544 571 529 567 l 546 404 q 462 407 513 407 l 294 407 l 294 163 l 570 163 m 313 1213 q 530 1224 414 1213 l 529 1219 l 351 1000 l 198 1000 l 313 1213 z "},"Ê":{"ha":696,"x_min":115,"x_max":631,"o":"m 570 163 q 629 171 612 163 l 631 170 l 625 0 l 117 0 l 117 907 q 157 905 135 905 l 205 903 q 308 902 252 902 q 615 907 463 902 q 608 748 608 848 q 609 732 608 737 l 608 730 q 507 740 572 740 l 294 740 l 294 567 l 454 567 q 544 571 529 567 l 546 404 q 462 407 513 407 l 294 407 l 294 163 l 570 163 m 295 999 q 117 997 149 999 l 115 999 l 279 1223 q 323 1221 295 1221 l 358 1221 l 440 1223 l 613 999 l 610 997 l 437 999 l 361 1119 l 295 999 z "},"Ë":{"ha":696,"x_min":117,"x_max":631,"o":"m 570 163 q 629 171 612 163 l 631 170 l 625 0 l 117 0 l 117 907 q 157 905 135 905 l 205 903 q 308 902 252 902 q 615 907 463 902 q 608 748 608 848 q 609 732 608 737 l 608 730 q 507 740 572 740 l 294 740 l 294 567 l 454 567 q 544 571 529 567 l 546 404 q 462 407 513 407 l 294 407 l 294 163 l 570 163 m 600 1163 q 597 1077 597 1129 q 600 1000 597 1024 l 420 1000 q 425 1083 425 1042 q 421 1163 425 1124 l 600 1163 m 308 1163 q 305 1077 305 1129 q 308 1000 305 1024 l 128 1000 q 134 1083 134 1042 q 130 1163 134 1124 l 308 1163 z "},"Ì":{"ha":464,"x_min":58,"x_max":390,"o":"m 138 905 q 220 902 205 902 l 269 902 q 326 907 304 902 l 326 0 l 138 0 l 138 905 m 58 1224 q 275 1213 174 1213 l 390 1000 l 237 1000 l 59 1219 l 58 1224 z "},"Í":{"ha":464,"x_min":58,"x_max":390,"o":"m 138 905 q 220 902 205 902 l 269 902 q 326 907 304 902 l 326 0 l 138 0 l 138 905 m 173 1213 q 390 1224 275 1213 l 389 1219 l 212 1000 l 58 1000 l 173 1213 z "},"Î":{"ha":464,"x_min":-25,"x_max":473,"o":"m 138 905 q 220 902 205 902 l 269 902 q 326 907 304 902 l 326 0 l 138 0 l 138 905 m 155 999 q -23 997 9 999 l -25 999 l 139 1223 q 184 1221 155 1221 l 218 1221 l 300 1223 l 473 999 l 471 997 l 298 999 l 221 1119 l 155 999 z "},"Ï":{"ha":464,"x_min":-12,"x_max":460,"o":"m 138 905 q 220 902 205 902 l 269 902 q 326 907 304 902 l 326 0 l 138 0 l 138 905 m 460 1163 q 457 1077 457 1129 q 460 1000 457 1024 l 280 1000 q 286 1083 286 1042 q 281 1163 286 1124 l 460 1163 m 168 1163 q 165 1077 165 1129 q 168 1000 165 1024 l -12 1000 q -6 1083 -6 1042 q -10 1163 -6 1124 l 168 1163 z "},"Ð":{"ha":925,"x_min":62,"x_max":842,"o":"m 336 -17 q 130 1 227 -17 l 130 372 l 62 372 l 62 532 l 130 532 l 130 908 q 337 919 219 919 q 552 887 456 919 q 712 795 648 854 q 842 460 842 675 q 697 95 842 220 q 336 -17 567 -17 m 306 149 q 394 140 350 140 q 489 158 438 140 q 577 212 540 175 q 657 437 657 289 q 480 735 657 680 q 345 753 422 753 l 327 753 q 306 753 317 753 l 306 532 l 509 532 l 509 372 l 306 372 l 306 149 z "},"Ñ":{"ha":922,"x_min":123,"x_max":798,"o":"m 123 0 q 127 50 127 23 l 127 902 l 262 902 l 622 336 l 622 856 q 615 902 622 893 l 798 902 q 795 842 795 875 l 795 0 l 654 0 l 300 543 l 300 0 l 123 0 m 350 1061 q 237 1010 286 1061 l 234 1011 l 231 1146 q 357 1200 277 1200 q 473 1163 419 1200 q 583 1126 526 1126 q 689 1183 664 1126 l 690 1182 l 684 1036 q 642 1002 672 1015 q 580 989 612 989 q 527 994 547 989 q 490 1008 507 1000 q 459 1025 473 1016 q 428 1042 444 1034 q 350 1061 390 1061 z "},"Ò":{"ha":1041,"x_min":58,"x_max":983,"o":"m 191 107 q 160 137 191 107 q 93 249 129 166 q 58 430 58 332 q 91 617 58 529 q 186 772 124 705 q 335 879 248 840 q 531 919 422 919 q 846 801 718 919 q 983 460 983 675 q 842 115 983 253 q 635 -1 755 31 q 497 -17 576 -17 q 335 16 418 -17 q 191 107 252 48 m 246 439 q 267 323 246 376 q 326 233 288 271 q 530 153 405 153 q 720 229 648 153 q 793 446 793 309 q 724 661 793 574 q 517 753 648 753 q 316 659 391 753 q 246 439 246 572 m 355 1224 q 572 1213 470 1213 l 686 1000 l 533 1000 l 355 1219 l 355 1224 z "},"Ó":{"ha":1041,"x_min":58,"x_max":983,"o":"m 191 107 q 160 137 191 107 q 93 249 129 166 q 58 430 58 332 q 91 617 58 529 q 186 772 124 705 q 335 879 248 840 q 531 919 422 919 q 846 801 718 919 q 983 460 983 675 q 842 115 983 253 q 635 -1 755 31 q 497 -17 576 -17 q 335 16 418 -17 q 191 107 252 48 m 246 439 q 267 323 246 376 q 326 233 288 271 q 530 153 405 153 q 720 229 648 153 q 793 446 793 309 q 724 661 793 574 q 517 753 648 753 q 316 659 391 753 q 246 439 246 572 m 469 1213 q 686 1224 571 1213 l 686 1219 l 508 1000 l 355 1000 l 469 1213 z "},"Ô":{"ha":1041,"x_min":58,"x_max":983,"o":"m 191 107 q 160 137 191 107 q 93 249 129 166 q 58 430 58 332 q 91 617 58 529 q 186 772 124 705 q 335 879 248 840 q 531 919 422 919 q 846 801 718 919 q 983 460 983 675 q 842 115 983 253 q 635 -1 755 31 q 497 -17 576 -17 q 335 16 418 -17 q 191 107 252 48 m 246 439 q 267 323 246 376 q 326 233 288 271 q 530 153 405 153 q 720 229 648 153 q 793 446 793 309 q 724 661 793 574 q 517 753 648 753 q 316 659 391 753 q 246 439 246 572 m 452 999 q 273 997 306 999 l 271 999 l 435 1223 q 480 1221 452 1221 l 515 1221 l 597 1223 l 770 999 l 767 997 l 594 999 l 517 1119 l 452 999 z "},"Õ":{"ha":1041,"x_min":58,"x_max":983,"o":"m 191 107 q 160 137 191 107 q 93 249 129 166 q 58 430 58 332 q 91 617 58 529 q 186 772 124 705 q 335 879 248 840 q 531 919 422 919 q 846 801 718 919 q 983 460 983 675 q 842 115 983 253 q 635 -1 755 31 q 497 -17 576 -17 q 335 16 418 -17 q 191 107 252 48 m 246 439 q 267 323 246 376 q 326 233 288 271 q 530 153 405 153 q 720 229 648 153 q 793 446 793 309 q 724 661 793 574 q 517 753 648 753 q 316 659 391 753 q 246 439 246 572 m 410 1061 q 296 1010 346 1061 l 294 1011 l 291 1146 q 416 1200 337 1200 q 532 1163 479 1200 q 643 1126 586 1126 q 749 1183 724 1126 l 750 1182 l 743 1036 q 702 1002 732 1015 q 640 989 672 989 q 587 994 607 989 q 550 1008 567 1000 q 518 1025 533 1016 q 488 1042 504 1034 q 410 1061 450 1061 z "},"Ö":{"ha":1041,"x_min":58,"x_max":983,"o":"m 191 107 q 160 137 191 107 q 93 249 129 166 q 58 430 58 332 q 91 617 58 529 q 186 772 124 705 q 335 879 248 840 q 531 919 422 919 q 846 801 718 919 q 983 460 983 675 q 842 115 983 253 q 635 -1 755 31 q 497 -17 576 -17 q 335 16 418 -17 q 191 107 252 48 m 246 439 q 267 323 246 376 q 326 233 288 271 q 530 153 405 153 q 720 229 648 153 q 793 446 793 309 q 724 661 793 574 q 517 753 648 753 q 316 659 391 753 q 246 439 246 572 m 756 1163 q 753 1077 753 1129 q 756 1000 753 1024 l 576 1000 q 582 1083 582 1042 q 578 1163 582 1124 l 756 1163 m 465 1163 q 462 1077 462 1129 q 465 1000 462 1024 l 285 1000 q 290 1083 290 1042 q 286 1163 290 1124 l 465 1163 z "},"×":{"ha":925,"x_min":184,"x_max":741,"o":"m 184 260 q 250 321 199 269 l 346 417 l 254 509 q 189 570 204 561 l 305 690 q 363 628 331 659 l 460 531 l 556 627 q 616 693 608 677 l 736 576 q 675 519 706 551 l 573 417 l 680 311 q 741 254 711 279 l 621 137 q 561 203 612 153 l 460 304 l 358 202 q 300 140 326 171 l 184 260 z "},"Ø":{"ha":1041,"x_min":58,"x_max":983,"o":"m 495 -17 q 327 19 414 -17 l 248 -115 l 115 -115 l 227 76 q 103 226 149 136 q 58 422 58 316 q 91 617 58 529 q 186 772 124 705 q 335 879 248 840 q 522 919 422 919 q 703 888 622 919 l 789 1038 l 922 1038 l 804 835 q 983 460 983 707 q 842 115 983 253 q 495 -17 707 -17 m 614 737 q 510 753 569 753 q 400 727 451 753 q 316 659 350 702 q 246 439 246 572 q 321 237 246 317 l 614 737 m 417 173 q 530 153 472 153 q 636 172 588 153 q 720 229 685 192 q 793 446 793 309 q 710 675 793 587 l 417 173 z "},"Ù":{"ha":928,"x_min":111,"x_max":817,"o":"m 631 905 q 701 902 673 902 l 757 902 q 817 907 785 902 l 817 347 q 715 79 817 180 q 475 -17 620 -17 q 220 65 317 -17 q 111 331 111 157 l 111 905 q 217 902 167 902 q 299 907 267 902 l 299 322 q 351 189 299 237 q 473 146 400 146 q 618 257 582 146 q 631 356 631 297 l 631 905 m 298 1224 q 515 1213 413 1213 l 629 1000 l 476 1000 l 298 1219 l 298 1224 z "},"Ú":{"ha":928,"x_min":111,"x_max":817,"o":"m 631 905 q 701 902 673 902 l 757 902 q 817 907 785 902 l 817 347 q 715 79 817 180 q 475 -17 620 -17 q 220 65 317 -17 q 111 331 111 157 l 111 905 q 217 902 167 902 q 299 907 267 902 l 299 322 q 351 189 299 237 q 473 146 400 146 q 618 257 582 146 q 631 356 631 297 l 631 905 m 412 1213 q 629 1224 514 1213 l 629 1219 l 451 1000 l 298 1000 l 412 1213 z "},"Û":{"ha":928,"x_min":111,"x_max":817,"o":"m 631 905 q 701 902 673 902 l 757 902 q 817 907 785 902 l 817 347 q 715 79 817 180 q 475 -17 620 -17 q 220 65 317 -17 q 111 331 111 157 l 111 905 q 217 902 167 902 q 299 907 267 902 l 299 322 q 351 189 299 237 q 473 146 400 146 q 618 257 582 146 q 631 356 631 297 l 631 905 m 395 999 q 216 997 249 999 l 214 999 l 378 1223 q 423 1221 395 1221 l 458 1221 l 540 1223 l 713 999 l 710 997 l 537 999 l 460 1119 l 395 999 z "},"Ü":{"ha":928,"x_min":111,"x_max":817,"o":"m 631 905 q 701 902 673 902 l 757 902 q 817 907 785 902 l 817 347 q 715 79 817 180 q 475 -17 620 -17 q 220 65 317 -17 q 111 331 111 157 l 111 905 q 217 902 167 902 q 299 907 267 902 l 299 322 q 351 189 299 237 q 473 146 400 146 q 618 257 582 146 q 631 356 631 297 l 631 905 m 699 1163 q 696 1077 696 1129 q 699 1000 696 1024 l 519 1000 q 525 1083 525 1042 q 521 1163 525 1124 l 699 1163 m 408 1163 q 405 1077 405 1129 q 408 1000 405 1024 l 228 1000 q 233 1083 233 1042 q 229 1163 233 1124 l 408 1163 z "},"Ý":{"ha":809,"x_min":-5,"x_max":814,"o":"m 306 0 q 315 123 315 26 l 315 312 q 165 634 197 570 q 110 736 132 699 q 25 873 39 855 q -5 902 10 890 l 229 902 q 250 862 237 888 l 414 515 q 441 579 425 544 q 591 902 589 897 l 814 902 q 730 785 780 874 q 699 725 714 759 l 545 406 q 501 302 519 348 l 501 107 q 509 0 501 39 l 306 0 m 353 1213 q 570 1224 455 1213 l 570 1219 l 392 1000 l 239 1000 l 353 1213 z "},"Þ":{"ha":809,"x_min":117,"x_max":727,"o":"m 624 213 q 501 151 574 172 q 367 130 428 130 q 290 132 307 130 l 290 0 l 117 0 l 117 902 l 290 902 l 290 769 q 616 680 499 769 q 727 450 727 594 q 624 213 727 296 m 492 562 q 426 599 465 585 q 350 613 387 613 q 290 610 313 613 l 290 288 q 338 286 316 286 q 492 324 437 286 q 547 435 547 363 q 492 562 547 513 z "},"ß":{"ha":809,"x_min":39,"x_max":802,"o":"m 525 144 q 634 243 634 144 q 505 370 634 306 q 404 446 427 416 q 364 536 364 493 q 378 611 364 580 q 417 669 393 642 q 451 711 441 696 q 467 738 461 726 q 477 776 477 760 q 471 802 477 792 q 454 821 465 812 q 395 838 430 838 q 335 826 360 838 q 291 784 309 814 q 252 576 252 721 l 252 -31 q 237 -178 252 -134 q 176 -276 214 -248 l 39 -187 l 39 -184 q 79 -85 71 -163 q 86 184 86 -17 l 86 549 q 408 980 86 980 q 576 925 509 980 q 644 788 644 870 q 606 682 644 732 q 574 645 591 663 q 549 618 556 627 q 537 602 541 609 q 530 578 530 589 q 535 559 530 568 q 556 537 541 550 q 645 474 589 509 q 729 412 701 440 q 773 354 757 385 q 802 238 802 300 q 785 136 802 176 q 736 62 769 95 q 539 -10 664 -10 q 371 27 427 -10 l 364 197 l 367 200 q 439 156 401 167 q 525 144 478 144 z "},"à":{"ha":809,"x_min":87,"x_max":753,"o":"m 568 42 q 393 -10 471 -10 q 260 4 315 -10 q 165 47 204 19 q 87 214 87 105 q 183 377 87 312 q 467 448 288 448 l 494 447 q 512 446 502 446 q 530 444 522 446 q 437 571 525 553 q 375 577 408 577 q 310 571 342 577 q 249 556 279 566 q 155 508 183 535 l 153 509 l 132 659 q 395 722 252 722 q 677 563 616 722 q 697 448 697 512 l 697 203 q 753 96 697 124 l 630 -17 q 568 42 591 3 m 531 322 q 493 326 513 326 l 466 326 q 275 259 316 326 q 263 218 263 239 q 271 179 263 196 q 297 152 279 163 q 402 132 332 132 q 532 165 471 132 q 531 180 531 172 l 531 322 m 190 1031 q 407 1019 305 1019 l 522 807 l 368 807 l 191 1026 l 190 1031 z "},"á":{"ha":809,"x_min":87,"x_max":753,"o":"m 568 42 q 393 -10 471 -10 q 260 4 315 -10 q 165 47 204 19 q 87 214 87 105 q 183 377 87 312 q 467 448 288 448 l 494 447 q 512 446 502 446 q 530 444 522 446 q 437 571 525 553 q 375 577 408 577 q 310 571 342 577 q 249 556 279 566 q 155 508 183 535 l 153 509 l 132 659 q 395 722 252 722 q 677 563 616 722 q 697 448 697 512 l 697 203 q 753 96 697 124 l 630 -17 q 568 42 591 3 m 531 322 q 493 326 513 326 l 466 326 q 275 259 316 326 q 263 218 263 239 q 271 179 263 196 q 297 152 279 163 q 402 132 332 132 q 532 165 471 132 q 531 180 531 172 l 531 322 m 386 1019 q 603 1031 488 1019 l 602 1026 l 425 807 l 271 807 l 386 1019 z "},"â":{"ha":809,"x_min":87,"x_max":753,"o":"m 568 42 q 393 -10 471 -10 q 260 4 315 -10 q 165 47 204 19 q 87 214 87 105 q 183 377 87 312 q 467 448 288 448 l 494 447 q 512 446 502 446 q 530 444 522 446 q 437 571 525 553 q 375 577 408 577 q 310 571 342 577 q 249 556 279 566 q 155 508 183 535 l 153 509 l 132 659 q 395 722 252 722 q 677 563 616 722 q 697 448 697 512 l 697 203 q 753 96 697 124 l 630 -17 q 568 42 591 3 m 531 322 q 493 326 513 326 l 466 326 q 275 259 316 326 q 263 218 263 239 q 271 179 263 196 q 297 152 279 163 q 402 132 332 132 q 532 165 471 132 q 531 180 531 172 l 531 322 m 328 806 q 149 804 182 806 l 147 806 l 311 1030 q 356 1028 328 1028 l 391 1028 l 473 1030 l 646 806 l 643 804 l 470 806 l 393 926 l 328 806 z "},"ã":{"ha":809,"x_min":87,"x_max":753,"o":"m 568 42 q 393 -10 471 -10 q 260 4 315 -10 q 165 47 204 19 q 87 214 87 105 q 183 377 87 312 q 467 448 288 448 l 494 447 q 512 446 502 446 q 530 444 522 446 q 437 571 525 553 q 375 577 408 577 q 310 571 342 577 q 249 556 279 566 q 155 508 183 535 l 153 509 l 132 659 q 395 722 252 722 q 677 563 616 722 q 697 448 697 512 l 697 203 q 753 96 697 124 l 630 -17 q 568 42 591 3 m 531 322 q 493 326 513 326 l 466 326 q 275 259 316 326 q 263 218 263 239 q 271 179 263 196 q 297 152 279 163 q 402 132 332 132 q 532 165 471 132 q 531 180 531 172 l 531 322 m 286 868 q 172 817 222 868 l 170 818 l 167 953 q 292 1007 213 1007 q 408 970 355 1007 q 519 933 462 933 q 625 990 600 933 l 626 989 l 619 842 q 578 809 608 822 q 515 795 548 795 q 463 801 483 795 q 426 814 443 806 q 394 832 409 823 q 363 849 380 841 q 286 868 326 868 z "},"ä":{"ha":809,"x_min":87,"x_max":753,"o":"m 568 42 q 393 -10 471 -10 q 260 4 315 -10 q 165 47 204 19 q 87 214 87 105 q 183 377 87 312 q 467 448 288 448 l 494 447 q 512 446 502 446 q 530 444 522 446 q 437 571 525 553 q 375 577 408 577 q 310 571 342 577 q 249 556 279 566 q 155 508 183 535 l 153 509 l 132 659 q 395 722 252 722 q 677 563 616 722 q 697 448 697 512 l 697 203 q 753 96 697 124 l 630 -17 q 568 42 591 3 m 531 322 q 493 326 513 326 l 466 326 q 275 259 316 326 q 263 218 263 239 q 271 179 263 196 q 297 152 279 163 q 402 132 332 132 q 532 165 471 132 q 531 180 531 172 l 531 322 m 632 970 q 629 883 629 936 q 632 807 629 831 l 452 807 q 458 890 458 849 q 454 970 458 931 l 632 970 m 340 970 q 338 883 338 936 q 340 807 338 831 l 161 807 q 166 890 166 849 q 162 970 166 931 l 340 970 z "},"å":{"ha":809,"x_min":87,"x_max":753,"o":"m 568 42 q 393 -10 471 -10 q 260 4 315 -10 q 165 47 204 19 q 87 214 87 105 q 183 377 87 312 q 467 448 288 448 l 494 447 q 512 446 502 446 q 530 444 522 446 q 437 571 525 553 q 375 577 408 577 q 310 571 342 577 q 249 556 279 566 q 155 508 183 535 l 153 509 l 132 659 q 395 722 252 722 q 677 563 616 722 q 697 448 697 512 l 697 203 q 753 96 697 124 l 630 -17 q 568 42 591 3 m 531 322 q 493 326 513 326 l 466 326 q 275 259 316 326 q 263 218 263 239 q 271 179 263 196 q 297 152 279 163 q 402 132 332 132 q 532 165 471 132 q 531 180 531 172 l 531 322 m 392 800 q 317 811 351 800 q 258 842 283 822 q 207 959 207 885 q 258 1077 207 1031 q 401 1123 309 1123 q 534 1076 483 1123 q 585 962 585 1031 q 531 844 585 888 q 392 800 478 800 m 335 916 q 340 911 335 916 q 361 901 345 907 q 394 896 376 896 q 427 901 412 896 q 452 916 441 906 q 475 955 475 935 q 470 987 475 975 q 455 1009 465 999 q 402 1031 432 1031 q 358 1025 373 1031 q 334 1009 343 1019 q 315 970 315 990 q 320 937 315 949 q 335 916 325 925 z "},"æ":{"ha":1273,"x_min":85,"x_max":1192,"o":"m 605 71 q 355 -10 500 -10 q 157 57 231 -10 q 85 225 85 123 q 186 412 85 337 q 444 489 289 489 q 475 487 464 489 q 332 583 450 583 q 186 526 253 583 q 149 488 165 509 l 147 489 l 127 646 q 367 722 224 722 q 591 621 511 722 q 867 722 694 722 q 1097 631 1004 722 q 1192 395 1192 539 q 1183 323 1192 355 q 901 302 1108 302 q 788 302 837 302 q 706 303 739 302 q 650 303 673 303 q 734 190 668 230 q 919 149 800 149 q 1126 221 1038 149 q 1116 43 1123 146 q 951 -6 1062 7 q 884 -10 917 -10 q 605 71 710 -10 m 663 452 q 707 450 682 451 l 756 450 q 804 450 781 450 l 841 450 q 917 450 879 450 l 979 452 q 1023 454 1004 453 q 907 558 1000 532 q 847 566 878 566 q 788 558 815 566 q 736 536 760 550 q 663 452 688 506 m 519 184 q 479 347 479 250 q 433 349 466 349 q 365 341 401 349 q 302 319 328 333 q 251 241 251 289 q 284 164 251 193 q 367 135 317 135 q 519 184 460 135 z "},"ç":{"ha":696,"x_min":58,"x_max":654,"o":"m 429 -10 q 434 -103 434 -47 q 419 -197 434 -159 q 384 -245 404 -234 q 238 -293 344 -271 l 234 -289 q 281 0 281 -222 l 304 4 q 125 123 192 34 q 58 343 58 214 q 157 612 58 507 q 440 722 263 722 q 650 667 566 722 l 623 494 l 618 494 q 550 546 586 534 q 433 566 492 566 q 342 551 375 566 q 285 510 309 536 q 237 366 237 456 q 347 159 237 208 q 428 142 385 142 q 502 150 470 142 q 559 170 533 157 q 633 233 614 197 l 638 231 l 654 66 q 429 -10 581 -7 z "},"è":{"ha":812,"x_min":66,"x_max":764,"o":"m 66 349 q 93 496 66 428 q 170 614 120 564 q 446 722 275 722 q 678 627 591 722 q 764 395 764 534 q 756 321 764 341 q 480 302 688 302 l 241 302 q 323 190 259 230 q 491 149 388 149 q 676 188 599 149 q 707 207 696 198 q 703 149 705 178 l 696 43 q 529 -6 644 7 q 464 -10 495 -10 q 179 90 292 -10 q 66 349 66 191 m 584 434 q 425 580 556 580 q 269 491 322 580 q 243 431 252 464 q 283 430 260 431 l 334 430 q 382 429 359 429 l 420 429 q 488 430 455 429 l 544 432 q 584 434 566 433 m 209 1031 q 426 1019 324 1019 l 541 807 l 387 807 l 210 1026 l 209 1031 z "},"é":{"ha":812,"x_min":66,"x_max":764,"o":"m 66 349 q 93 496 66 428 q 170 614 120 564 q 446 722 275 722 q 678 627 591 722 q 764 395 764 534 q 756 321 764 341 q 480 302 688 302 l 241 302 q 323 190 259 230 q 491 149 388 149 q 676 188 599 149 q 707 207 696 198 q 703 149 705 178 l 696 43 q 529 -6 644 7 q 464 -10 495 -10 q 179 90 292 -10 q 66 349 66 191 m 584 434 q 425 580 556 580 q 269 491 322 580 q 243 431 252 464 q 283 430 260 431 l 334 430 q 382 429 359 429 l 420 429 q 488 430 455 429 l 544 432 q 584 434 566 433 m 405 1019 q 622 1031 507 1019 l 621 1026 l 444 807 l 290 807 l 405 1019 z "},"ê":{"ha":812,"x_min":66,"x_max":764,"o":"m 66 349 q 93 496 66 428 q 170 614 120 564 q 446 722 275 722 q 678 627 591 722 q 764 395 764 534 q 756 321 764 341 q 480 302 688 302 l 241 302 q 323 190 259 230 q 491 149 388 149 q 676 188 599 149 q 707 207 696 198 q 703 149 705 178 l 696 43 q 529 -6 644 7 q 464 -10 495 -10 q 179 90 292 -10 q 66 349 66 191 m 584 434 q 425 580 556 580 q 269 491 322 580 q 243 431 252 464 q 283 430 260 431 l 334 430 q 382 429 359 429 l 420 429 q 488 430 455 429 l 544 432 q 584 434 566 433 m 347 806 q 168 804 201 806 l 166 806 l 330 1030 q 375 1028 347 1028 l 410 1028 l 492 1030 l 665 806 l 662 804 l 489 806 l 412 926 l 347 806 z "},"ë":{"ha":812,"x_min":66,"x_max":764,"o":"m 66 349 q 93 496 66 428 q 170 614 120 564 q 446 722 275 722 q 678 627 591 722 q 764 395 764 534 q 756 321 764 341 q 480 302 688 302 l 241 302 q 323 190 259 230 q 491 149 388 149 q 676 188 599 149 q 707 207 696 198 q 703 149 705 178 l 696 43 q 529 -6 644 7 q 464 -10 495 -10 q 179 90 292 -10 q 66 349 66 191 m 584 434 q 425 580 556 580 q 269 491 322 580 q 243 431 252 464 q 283 430 260 431 l 334 430 q 382 429 359 429 l 420 429 q 488 430 455 429 l 544 432 q 584 434 566 433 m 651 970 q 648 883 648 936 q 651 807 648 831 l 471 807 q 477 890 477 849 q 473 970 477 931 l 651 970 m 359 970 q 357 883 357 936 q 359 807 357 831 l 180 807 q 185 890 185 849 q 181 970 185 931 l 359 970 z "},"ì":{"ha":348,"x_min":-41,"x_max":290,"o":"m 256 76 q 259 0 256 18 l 87 0 l 87 709 l 256 709 l 256 76 m -41 1031 q 176 1019 74 1019 l 290 807 l 137 807 l -41 1026 l -41 1031 z "},"í":{"ha":348,"x_min":40,"x_max":372,"o":"m 256 76 q 259 0 256 18 l 87 0 l 87 709 l 256 709 l 256 76 m 155 1019 q 372 1031 256 1019 l 371 1026 l 193 807 l 40 807 l 155 1019 z "},"î":{"ha":348,"x_min":-84,"x_max":414,"o":"m 256 76 q 259 0 256 18 l 87 0 l 87 709 l 256 709 l 256 76 m 96 806 q -82 804 -50 806 l -84 806 l 80 1030 q 125 1028 96 1028 l 159 1028 l 241 1030 l 414 806 l 412 804 l 239 806 l 162 926 l 96 806 z "},"ï":{"ha":348,"x_min":-71,"x_max":401,"o":"m 256 76 q 259 0 256 18 l 87 0 l 87 709 l 256 709 l 256 76 m 401 970 q 398 883 398 936 q 401 807 398 831 l 221 807 q 227 890 227 849 q 222 970 227 931 l 401 970 m 109 970 q 106 883 106 936 q 109 807 106 831 l -71 807 q -65 890 -65 849 q -69 970 -65 931 l 109 970 z "},"ð":{"ha":809,"x_min":62,"x_max":728,"o":"m 542 788 q 728 342 728 569 q 627 87 728 189 q 390 -10 529 -10 q 155 82 250 -10 q 62 300 62 173 q 163 534 62 452 q 386 607 251 607 q 492 587 435 607 q 389 730 451 658 l 180 652 l 142 775 l 292 829 q 213 899 255 864 l 123 970 l 340 970 q 446 886 397 930 l 608 945 l 646 827 l 542 788 m 563 336 l 562 347 q 492 428 534 405 q 406 451 451 451 q 334 443 361 451 q 285 418 306 434 q 237 315 237 380 q 284 199 237 248 q 406 149 333 149 q 512 193 469 149 q 563 336 563 245 z "},"ñ":{"ha":812,"x_min":113,"x_max":736,"o":"m 278 87 q 283 0 278 27 l 113 0 l 113 709 l 278 709 l 278 648 q 469 722 368 722 q 647 647 581 722 q 713 448 713 571 l 713 178 q 717 40 713 63 q 726 10 720 17 q 736 -2 732 3 l 734 -5 q 654 0 680 0 l 607 0 q 549 -2 585 0 l 549 368 q 428 566 549 566 q 278 474 338 566 l 278 87 m 328 868 q 214 817 264 868 l 212 818 l 209 953 q 334 1007 255 1007 q 450 970 397 1007 q 561 933 504 933 q 667 990 642 933 l 668 989 l 661 842 q 620 809 650 822 q 557 795 590 795 q 505 801 525 795 q 468 814 485 806 q 436 832 451 823 q 406 849 422 841 q 328 868 368 868 z "},"ò":{"ha":812,"x_min":48,"x_max":770,"o":"m 48 351 q 74 493 48 425 q 146 612 99 562 q 416 722 250 722 q 677 618 581 722 q 770 361 770 519 q 675 100 770 203 q 407 -10 574 -10 q 137 98 235 -10 q 48 351 48 196 m 213 355 q 227 272 213 312 q 268 203 241 232 q 416 142 324 142 q 549 202 500 142 q 597 354 597 260 q 548 507 597 449 q 405 570 496 570 q 260 503 313 570 q 213 355 213 442 m 199 1031 q 416 1019 315 1019 l 531 807 l 378 807 l 200 1026 l 199 1031 z "},"ó":{"ha":812,"x_min":48,"x_max":770,"o":"m 48 351 q 74 493 48 425 q 146 612 99 562 q 416 722 250 722 q 677 618 581 722 q 770 361 770 519 q 675 100 770 203 q 407 -10 574 -10 q 137 98 235 -10 q 48 351 48 196 m 213 355 q 227 272 213 312 q 268 203 241 232 q 416 142 324 142 q 549 202 500 142 q 597 354 597 260 q 548 507 597 449 q 405 570 496 570 q 260 503 313 570 q 213 355 213 442 m 395 1019 q 612 1031 497 1019 l 612 1026 l 434 807 l 281 807 l 395 1019 z "},"ô":{"ha":812,"x_min":48,"x_max":770,"o":"m 48 351 q 74 493 48 425 q 146 612 99 562 q 416 722 250 722 q 677 618 581 722 q 770 361 770 519 q 675 100 770 203 q 407 -10 574 -10 q 137 98 235 -10 q 48 351 48 196 m 213 355 q 227 272 213 312 q 268 203 241 232 q 416 142 324 142 q 549 202 500 142 q 597 354 597 260 q 548 507 597 449 q 405 570 496 570 q 260 503 313 570 q 213 355 213 442 m 337 806 q 159 804 191 806 l 157 806 l 321 1030 q 366 1028 337 1028 l 400 1028 l 482 1030 l 655 806 l 652 804 l 479 806 l 403 926 l 337 806 z "},"õ":{"ha":812,"x_min":48,"x_max":770,"o":"m 48 351 q 74 493 48 425 q 146 612 99 562 q 416 722 250 722 q 677 618 581 722 q 770 361 770 519 q 675 100 770 203 q 407 -10 574 -10 q 137 98 235 -10 q 48 351 48 196 m 213 355 q 227 272 213 312 q 268 203 241 232 q 416 142 324 142 q 549 202 500 142 q 597 354 597 260 q 548 507 597 449 q 405 570 496 570 q 260 503 313 570 q 213 355 213 442 m 295 868 q 182 817 231 868 l 179 818 l 176 953 q 302 1007 222 1007 q 418 970 364 1007 q 528 933 471 933 q 634 990 609 933 l 635 989 l 629 842 q 587 809 617 822 q 525 795 557 795 q 472 801 492 795 q 435 814 452 806 q 404 832 418 823 q 373 849 389 841 q 295 868 335 868 z "},"ö":{"ha":812,"x_min":48,"x_max":770,"o":"m 48 351 q 74 493 48 425 q 146 612 99 562 q 416 722 250 722 q 677 618 581 722 q 770 361 770 519 q 675 100 770 203 q 407 -10 574 -10 q 137 98 235 -10 q 48 351 48 196 m 213 355 q 227 272 213 312 q 268 203 241 232 q 416 142 324 142 q 549 202 500 142 q 597 354 597 260 q 548 507 597 449 q 405 570 496 570 q 260 503 313 570 q 213 355 213 442 m 642 970 q 639 883 639 936 q 642 807 639 831 l 462 807 q 467 890 467 849 q 463 970 467 931 l 642 970 m 350 970 q 347 883 347 936 q 350 807 347 831 l 170 807 q 176 890 176 849 q 172 970 176 931 l 350 970 z "},"÷":{"ha":925,"x_min":154,"x_max":770,"o":"m 560 708 q 559 660 559 696 q 563 600 559 625 l 365 600 q 371 673 371 642 q 371 717 371 705 q 370 741 370 729 q 368 762 369 752 l 366 779 l 563 779 q 561 737 561 753 l 560 708 m 238 339 q 154 336 186 339 l 156 503 q 245 499 171 499 l 679 499 q 768 503 753 499 l 770 336 q 686 339 738 339 l 238 339 m 560 174 q 559 126 559 161 q 563 66 559 90 l 365 66 q 371 139 371 107 q 371 183 371 171 q 370 206 370 195 q 368 228 369 218 l 366 245 l 563 245 q 561 203 561 219 l 560 174 z "},"ø":{"ha":812,"x_min":48,"x_max":770,"o":"m 675 100 q 651 74 675 100 q 561 19 628 49 q 414 -10 493 -10 q 272 10 336 -10 l 203 -115 l 83 -115 l 179 59 q 48 347 48 160 q 146 612 48 507 q 416 722 250 722 q 534 705 478 722 l 591 807 l 710 807 l 629 660 q 734 534 698 612 q 770 371 770 457 q 746 218 770 286 q 675 100 722 151 m 456 564 q 395 570 433 570 q 320 551 357 570 q 260 503 284 533 q 213 359 213 442 q 262 210 213 269 l 456 564 m 349 151 q 420 142 381 142 q 492 158 458 142 q 549 202 526 174 q 597 354 597 260 q 546 509 597 450 l 349 151 z "},"ù":{"ha":809,"x_min":89,"x_max":698,"o":"m 524 62 q 335 -10 437 -10 q 163 64 225 -10 q 103 261 103 136 l 103 530 q 97 686 103 666 q 89 711 92 706 q 154 709 120 709 l 210 709 q 269 711 233 709 l 269 318 q 345 156 269 178 q 395 149 368 149 q 524 208 475 149 l 524 709 l 692 709 l 692 87 q 698 0 692 27 l 524 0 l 524 62 m 180 1031 q 397 1019 296 1019 l 512 807 l 359 807 l 181 1026 l 180 1031 z "},"ú":{"ha":809,"x_min":89,"x_max":698,"o":"m 524 62 q 335 -10 437 -10 q 163 64 225 -10 q 103 261 103 136 l 103 530 q 97 686 103 666 q 89 711 92 706 q 154 709 120 709 l 210 709 q 269 711 233 709 l 269 318 q 345 156 269 178 q 395 149 368 149 q 524 208 475 149 l 524 709 l 692 709 l 692 87 q 698 0 692 27 l 524 0 l 524 62 m 376 1019 q 593 1031 478 1019 l 593 1026 l 415 807 l 262 807 l 376 1019 z "},"û":{"ha":809,"x_min":89,"x_max":698,"o":"m 524 62 q 335 -10 437 -10 q 163 64 225 -10 q 103 261 103 136 l 103 530 q 97 686 103 666 q 89 711 92 706 q 154 709 120 709 l 210 709 q 269 711 233 709 l 269 318 q 345 156 269 178 q 395 149 368 149 q 524 208 475 149 l 524 709 l 692 709 l 692 87 q 698 0 692 27 l 524 0 l 524 62 m 318 806 q 140 804 172 806 l 138 806 l 302 1030 q 347 1028 318 1028 l 381 1028 l 463 1030 l 636 806 l 633 804 l 460 806 l 384 926 l 318 806 z "},"ü":{"ha":809,"x_min":89,"x_max":698,"o":"m 524 62 q 335 -10 437 -10 q 163 64 225 -10 q 103 261 103 136 l 103 530 q 97 686 103 666 q 89 711 92 706 q 154 709 120 709 l 210 709 q 269 711 233 709 l 269 318 q 345 156 269 178 q 395 149 368 149 q 524 208 475 149 l 524 709 l 692 709 l 692 87 q 698 0 692 27 l 524 0 l 524 62 m 623 970 q 620 883 620 936 q 623 807 620 831 l 443 807 q 448 890 448 849 q 444 970 448 931 l 623 970 m 331 970 q 328 883 328 936 q 331 807 328 831 l 151 807 q 157 890 157 849 q 153 970 157 931 l 331 970 z "},"ý":{"ha":695,"x_min":18,"x_max":718,"o":"m 35 -236 l 79 -200 q 247 42 180 -118 l 278 117 l 18 709 l 208 709 l 371 299 l 522 709 l 718 709 q 631 527 682 660 l 530 275 q 210 -297 326 -205 l 35 -236 m 376 1019 q 593 1031 477 1019 l 592 1026 l 414 807 l 261 807 l 376 1019 z "},"þ":{"ha":809,"x_min":110,"x_max":763,"o":"m 492 -1 q 393 -12 453 -12 q 276 13 332 -12 l 276 -185 q 279 -261 276 -243 l 110 -261 l 110 970 l 279 970 q 276 894 276 952 l 276 682 q 427 722 352 722 q 561 701 502 722 q 665 635 619 679 q 763 363 763 537 q 644 84 763 192 q 492 -1 576 22 m 276 199 q 403 149 331 149 q 541 209 488 149 q 597 374 597 271 q 490 552 597 508 q 418 566 455 566 q 342 550 382 566 q 276 506 303 534 l 276 199 z "},"ÿ":{"ha":695,"x_min":18,"x_max":718,"o":"m 35 -236 l 79 -200 q 247 42 180 -118 l 278 117 l 18 709 l 208 709 l 371 299 l 522 709 l 718 709 q 631 527 682 660 l 530 275 q 210 -297 326 -205 l 35 -236 m 622 970 q 619 883 619 936 q 622 807 619 831 l 442 807 q 448 890 448 849 q 444 970 448 931 l 622 970 m 330 970 q 328 883 328 936 q 330 807 328 831 l 151 807 q 156 890 156 849 q 152 970 156 931 l 330 970 z "},"Ā":{"ha":812,"x_min":-7,"x_max":819,"o":"m 182 -5 q 46 0 124 0 l -7 0 l 288 827 q 307 891 307 882 q 307 903 307 901 l 307 904 q 401 902 351 902 q 498 903 441 902 l 499 902 q 498 895 498 899 q 518 826 498 882 l 819 -2 q 787 -1 806 -1 q 752 0 787 -1 q 722 0 735 0 l 616 0 l 553 195 l 246 195 l 182 -5 m 500 358 l 397 673 l 298 358 l 500 358 m 639 1153 q 636 1101 636 1119 l 636 1078 q 639 1038 636 1073 l 181 1038 l 183 1055 q 186 1096 186 1078 q 182 1153 186 1114 l 639 1153 z "},"ā":{"ha":809,"x_min":87,"x_max":753,"o":"m 568 42 q 393 -10 471 -10 q 260 4 315 -10 q 165 47 204 19 q 87 214 87 105 q 183 377 87 312 q 467 448 288 448 l 494 447 q 512 446 502 446 q 530 444 522 446 q 437 571 525 553 q 375 577 408 577 q 310 571 342 577 q 249 556 279 566 q 155 508 183 535 l 153 509 l 132 659 q 395 722 252 722 q 677 563 616 722 q 697 448 697 512 l 697 203 q 753 96 697 124 l 630 -17 q 568 42 591 3 m 531 322 q 493 326 513 326 l 466 326 q 275 259 316 326 q 263 218 263 239 q 271 179 263 196 q 297 152 279 163 q 402 132 332 132 q 532 165 471 132 q 531 180 531 172 l 531 322 m 625 1033 q 623 981 623 999 l 623 958 q 625 918 623 953 l 168 918 l 170 935 q 173 976 173 958 q 169 1033 173 994 l 625 1033 z "},"Ă":{"ha":812,"x_min":-7,"x_max":819,"o":"m 182 -5 q 46 0 124 0 l -7 0 l 288 827 q 307 891 307 882 q 307 903 307 901 l 307 904 q 401 902 351 902 q 498 903 441 902 l 499 902 q 498 895 498 899 q 518 826 498 882 l 819 -2 q 787 -1 806 -1 q 752 0 787 -1 q 722 0 735 0 l 616 0 l 553 195 l 246 195 l 182 -5 m 500 358 l 397 673 l 298 358 l 500 358 m 640 1225 q 646 1179 646 1218 q 632 1101 646 1139 q 589 1032 618 1063 q 406 964 524 964 q 222 1032 288 964 q 165 1178 165 1092 q 172 1225 165 1218 l 262 1223 q 287 1143 269 1169 q 406 1086 327 1086 q 522 1139 484 1086 q 549 1223 543 1169 l 640 1225 z "},"ă":{"ha":809,"x_min":87,"x_max":753,"o":"m 568 42 q 393 -10 471 -10 q 260 4 315 -10 q 165 47 204 19 q 87 214 87 105 q 183 377 87 312 q 467 448 288 448 l 494 447 q 512 446 502 446 q 530 444 522 446 q 437 571 525 553 q 375 577 408 577 q 310 571 342 577 q 249 556 279 566 q 155 508 183 535 l 153 509 l 132 659 q 395 722 252 722 q 677 563 616 722 q 697 448 697 512 l 697 203 q 753 96 697 124 l 630 -17 q 568 42 591 3 m 531 322 q 493 326 513 326 l 466 326 q 275 259 316 326 q 263 218 263 239 q 271 179 263 196 q 297 152 279 163 q 402 132 332 132 q 532 165 471 132 q 531 180 531 172 l 531 322 m 630 1092 q 637 1046 637 1085 q 623 968 637 1006 q 580 899 609 930 q 396 831 514 831 q 212 899 278 831 q 155 1045 155 959 q 162 1092 155 1085 l 252 1090 q 277 1010 259 1036 q 396 954 317 954 q 512 1006 475 954 q 540 1090 533 1036 l 630 1092 z "},"Ą":{"ha":812,"x_min":-7,"x_max":819,"o":"m 182 -5 q 46 0 124 0 l -7 0 l 288 827 q 307 891 307 882 q 307 903 307 901 l 307 904 q 401 902 351 902 q 498 903 441 902 l 499 902 q 498 895 498 899 q 518 826 498 882 l 819 -2 q 693 -49 746 -2 q 644 -148 644 -93 q 773 -219 644 -219 q 813 -208 798 -219 l 814 -212 l 744 -376 q 500 -267 564 -376 q 477 -167 477 -227 q 540 -26 477 -97 q 607 28 566 2 l 553 195 l 246 195 l 182 -5 m 500 358 l 397 673 l 298 358 l 500 358 z "},"ą":{"ha":809,"x_min":87,"x_max":753,"o":"m 478 5 q 371 -10 426 -10 q 260 4 315 -10 q 165 47 204 19 q 87 214 87 105 q 183 377 87 312 q 467 448 288 448 l 494 447 q 512 446 502 446 q 530 444 522 446 q 437 571 525 553 q 375 577 408 577 q 310 571 342 577 q 249 556 279 566 q 155 508 183 535 l 153 509 l 132 659 q 395 722 252 722 q 677 563 616 722 q 697 448 697 512 l 697 203 q 753 96 697 124 l 630 -17 q 568 42 591 3 q 478 5 524 19 q 552 62 509 35 l 698 96 l 753 96 l 656 7 q 571 -90 587 -56 q 554 -148 554 -123 q 684 -219 554 -219 q 724 -208 709 -219 l 725 -212 l 654 -376 q 411 -267 474 -376 q 388 -167 388 -227 q 435 -46 388 -117 q 478 5 453 -20 m 531 322 q 493 326 513 326 l 466 326 q 275 259 316 326 q 263 218 263 239 q 271 179 263 196 q 297 152 279 163 q 402 132 332 132 q 532 165 471 132 q 531 180 531 172 l 531 322 z "},"Ć":{"ha":806,"x_min":35,"x_max":751,"o":"m 521 919 q 737 875 648 919 l 737 667 l 736 666 q 576 743 698 724 q 485 749 540 749 q 377 729 430 749 q 290 670 324 708 q 224 459 224 596 q 308 222 224 300 q 491 157 377 157 q 700 212 620 157 q 749 260 729 231 l 751 259 l 751 69 q 472 -17 648 -17 q 148 115 265 -17 q 35 447 35 240 q 159 792 35 666 q 521 919 283 919 m 403 1213 q 620 1224 505 1213 l 619 1219 l 441 1000 l 288 1000 l 403 1213 z "},"ć":{"ha":696,"x_min":58,"x_max":654,"o":"m 654 66 q 416 -10 578 -10 q 159 85 258 -10 q 58 343 58 182 q 157 612 58 507 q 440 722 263 722 q 650 667 566 722 l 623 494 l 618 494 q 550 546 586 534 q 433 566 492 566 q 342 551 375 566 q 285 510 309 536 q 237 366 237 456 q 347 159 237 208 q 428 142 385 142 q 502 150 470 142 q 559 170 533 157 q 633 233 614 197 l 638 231 l 654 66 m 388 1019 q 605 1031 490 1019 l 604 1026 l 427 807 l 273 807 l 388 1019 z "},"Ĉ":{"ha":806,"x_min":35,"x_max":751,"o":"m 521 919 q 737 875 648 919 l 737 667 l 736 666 q 576 743 698 724 q 485 749 540 749 q 377 729 430 749 q 290 670 324 708 q 224 459 224 596 q 308 222 224 300 q 491 157 377 157 q 700 212 620 157 q 749 260 729 231 l 751 259 l 751 69 q 472 -17 648 -17 q 148 115 265 -17 q 35 447 35 240 q 159 792 35 666 q 521 919 283 919 m 385 999 q 207 997 239 999 l 205 999 l 369 1223 q 414 1221 385 1221 l 448 1221 l 530 1223 l 703 999 l 701 997 l 528 999 l 451 1119 l 385 999 z "},"ĉ":{"ha":696,"x_min":58,"x_max":654,"o":"m 654 66 q 416 -10 578 -10 q 159 85 258 -10 q 58 343 58 182 q 157 612 58 507 q 440 722 263 722 q 650 667 566 722 l 623 494 l 618 494 q 550 546 586 534 q 433 566 492 566 q 342 551 375 566 q 285 510 309 536 q 237 366 237 456 q 347 159 237 208 q 428 142 385 142 q 502 150 470 142 q 559 170 533 157 q 633 233 614 197 l 638 231 l 654 66 m 330 806 q 151 804 184 806 l 149 806 l 313 1030 q 358 1028 330 1028 l 393 1028 l 475 1030 l 648 806 l 645 804 l 472 806 l 395 926 l 330 806 z "},"Ċ":{"ha":806,"x_min":35,"x_max":751,"o":"m 521 919 q 737 875 648 919 l 737 667 l 736 666 q 576 743 698 724 q 485 749 540 749 q 377 729 430 749 q 290 670 324 708 q 224 459 224 596 q 308 222 224 300 q 491 157 377 157 q 700 212 620 157 q 749 260 729 231 l 751 259 l 751 69 q 472 -17 648 -17 q 148 115 265 -17 q 35 447 35 240 q 159 792 35 666 q 521 919 283 919 m 338 1097 q 439 1230 382 1168 l 569 1128 q 523 1068 535 1084 l 499 1035 q 475 1000 488 1019 l 338 1097 z "},"ċ":{"ha":696,"x_min":58,"x_max":654,"o":"m 654 66 q 416 -10 578 -10 q 159 85 258 -10 q 58 343 58 182 q 157 612 58 507 q 440 722 263 722 q 650 667 566 722 l 623 494 l 618 494 q 550 546 586 534 q 433 566 492 566 q 342 551 375 566 q 285 510 309 536 q 237 366 237 456 q 347 159 237 208 q 428 142 385 142 q 502 150 470 142 q 559 170 533 157 q 633 233 614 197 l 638 231 l 654 66 m 283 906 q 384 1039 327 977 l 513 937 q 467 877 479 893 l 444 844 q 419 808 432 828 l 283 906 z "},"Č":{"ha":806,"x_min":35,"x_max":751,"o":"m 521 919 q 737 875 648 919 l 737 667 l 736 666 q 576 743 698 724 q 485 749 540 749 q 377 729 430 749 q 290 670 324 708 q 224 459 224 596 q 308 222 224 300 q 491 157 377 157 q 700 212 620 157 q 749 260 729 231 l 751 259 l 751 69 q 472 -17 648 -17 q 148 115 265 -17 q 35 447 35 240 q 159 792 35 666 q 521 919 283 919 m 448 928 l 414 928 q 369 926 385 928 l 205 1151 l 207 1153 q 385 1151 239 1151 l 451 1031 l 528 1151 l 701 1153 l 703 1151 l 530 926 l 448 928 z "},"č":{"ha":696,"x_min":58,"x_max":654,"o":"m 654 66 q 416 -10 578 -10 q 159 85 258 -10 q 58 343 58 182 q 157 612 58 507 q 440 722 263 722 q 650 667 566 722 l 623 494 l 618 494 q 550 546 586 534 q 433 566 492 566 q 342 551 375 566 q 285 510 309 536 q 237 366 237 456 q 347 159 237 208 q 428 142 385 142 q 502 150 470 142 q 559 170 533 157 q 633 233 614 197 l 638 231 l 654 66 m 393 806 l 358 806 q 313 804 330 806 l 149 1028 l 151 1030 q 330 1028 184 1028 l 395 908 l 472 1028 l 645 1030 l 648 1028 l 475 804 l 393 806 z "},"Ď":{"ha":925,"x_min":130,"x_max":842,"o":"m 336 -17 q 130 1 227 -17 l 130 908 q 337 919 219 919 q 552 887 456 919 q 712 795 648 854 q 842 460 842 675 q 697 95 842 220 q 336 -17 567 -17 m 306 149 q 394 140 350 140 q 489 158 438 140 q 577 212 540 175 q 657 437 657 289 q 480 735 657 680 q 345 753 422 753 l 327 753 q 306 753 317 753 l 306 149 m 483 928 l 448 928 q 404 926 420 928 l 239 1151 l 241 1153 q 420 1151 274 1151 l 486 1031 l 562 1151 l 735 1153 l 738 1151 l 565 926 l 483 928 z "},"ď":{"ha":968,"x_min":60,"x_max":968,"o":"m 586 38 q 414 -10 500 -10 q 263 17 328 -10 q 153 92 199 44 q 60 345 60 189 q 168 614 60 507 q 448 722 277 722 q 550 709 500 722 l 550 1010 l 716 1010 l 716 286 q 725 168 716 195 q 744 127 733 140 q 770 102 754 114 l 643 -10 q 586 38 608 9 m 446 146 q 550 168 503 146 l 550 543 q 447 563 503 563 q 352 548 391 563 q 283 507 312 533 q 224 362 224 451 q 278 208 224 265 q 446 146 336 146 m 961 980 q 968 872 968 909 q 966 802 968 836 q 960 741 964 768 q 935 673 949 683 q 878 655 918 663 l 803 640 l 799 644 q 810 766 810 663 l 810 833 q 806 953 810 902 l 961 980 z "},"Đ":{"ha":925,"x_min":62,"x_max":842,"o":"m 336 -17 q 130 1 227 -17 l 130 372 l 62 372 l 62 532 l 130 532 l 130 908 q 337 919 219 919 q 552 887 456 919 q 712 795 648 854 q 842 460 842 675 q 697 95 842 220 q 336 -17 567 -17 m 306 149 q 394 140 350 140 q 489 158 438 140 q 577 212 540 175 q 657 437 657 289 q 480 735 657 680 q 345 753 422 753 l 327 753 q 306 753 317 753 l 306 532 l 509 532 l 509 372 l 306 372 l 306 149 z "},"đ":{"ha":842,"x_min":60,"x_max":796,"o":"m 586 38 q 414 -10 500 -10 q 263 17 328 -10 q 153 92 199 44 q 60 345 60 189 q 168 614 60 507 q 448 722 277 722 q 550 709 500 722 l 550 794 l 501 794 q 417 791 450 794 l 419 918 q 509 913 434 913 l 550 913 l 550 1010 l 716 1010 l 716 913 q 794 918 780 913 l 796 791 q 716 794 764 794 l 716 286 q 725 168 716 195 q 744 127 733 140 q 770 102 754 114 l 643 -10 q 586 38 608 9 m 446 146 q 550 168 503 146 l 550 543 q 447 563 503 563 q 352 548 391 563 q 283 507 312 533 q 224 362 224 451 q 278 208 224 265 q 446 146 336 146 z "},"Ē":{"ha":696,"x_min":117,"x_max":631,"o":"m 570 163 q 629 171 612 163 l 631 170 l 625 0 l 117 0 l 117 907 q 157 905 135 905 l 205 903 q 308 902 252 902 q 615 907 463 902 q 608 748 608 848 q 609 732 608 737 l 608 730 q 507 740 572 740 l 294 740 l 294 567 l 454 567 q 544 571 529 567 l 546 404 q 462 407 513 407 l 294 407 l 294 163 l 570 163 m 597 1153 q 594 1101 594 1119 l 594 1078 q 597 1038 594 1073 l 139 1038 l 141 1055 q 144 1096 144 1078 q 140 1153 144 1114 l 597 1153 z "},"ē":{"ha":812,"x_min":66,"x_max":764,"o":"m 66 349 q 93 496 66 428 q 170 614 120 564 q 446 722 275 722 q 678 627 591 722 q 764 395 764 534 q 756 321 764 341 q 480 302 688 302 l 241 302 q 323 190 259 230 q 491 149 388 149 q 676 188 599 149 q 707 207 696 198 q 703 149 705 178 l 696 43 q 529 -6 644 7 q 464 -10 495 -10 q 179 90 292 -10 q 66 349 66 191 m 584 434 q 425 580 556 580 q 269 491 322 580 q 243 431 252 464 q 283 430 260 431 l 334 430 q 382 429 359 429 l 420 429 q 488 430 455 429 l 544 432 q 584 434 566 433 m 644 1033 q 642 981 642 999 l 642 958 q 644 918 642 953 l 186 918 l 189 935 q 192 976 192 958 q 188 1033 192 994 l 644 1033 z "},"Ĕ":{"ha":696,"x_min":117,"x_max":631,"o":"m 570 163 q 629 171 612 163 l 631 170 l 625 0 l 117 0 l 117 907 q 157 905 135 905 l 205 903 q 308 902 252 902 q 615 907 463 902 q 608 748 608 848 q 609 732 608 737 l 608 730 q 507 740 572 740 l 294 740 l 294 567 l 454 567 q 544 571 529 567 l 546 404 q 462 407 513 407 l 294 407 l 294 163 l 570 163 m 597 1225 q 604 1179 604 1218 q 590 1101 604 1139 q 547 1032 576 1063 q 363 964 481 964 q 180 1032 245 964 q 123 1178 123 1092 q 130 1225 123 1218 l 220 1223 q 245 1143 227 1169 q 363 1086 285 1086 q 479 1139 442 1086 q 507 1223 500 1169 l 597 1225 z "},"ĕ":{"ha":812,"x_min":66,"x_max":764,"o":"m 66 349 q 93 496 66 428 q 170 614 120 564 q 446 722 275 722 q 678 627 591 722 q 764 395 764 534 q 756 321 764 341 q 480 302 688 302 l 241 302 q 323 190 259 230 q 491 149 388 149 q 676 188 599 149 q 707 207 696 198 q 703 149 705 178 l 696 43 q 529 -6 644 7 q 464 -10 495 -10 q 179 90 292 -10 q 66 349 66 191 m 584 434 q 425 580 556 580 q 269 491 322 580 q 243 431 252 464 q 283 430 260 431 l 334 430 q 382 429 359 429 l 420 429 q 488 430 455 429 l 544 432 q 584 434 566 433 m 649 1092 q 656 1046 656 1085 q 642 968 656 1006 q 599 899 628 930 q 415 831 533 831 q 231 899 297 831 q 174 1045 174 959 q 181 1092 174 1085 l 271 1090 q 296 1010 278 1036 q 415 954 336 954 q 531 1006 494 954 q 559 1090 552 1036 l 649 1092 z "},"Ė":{"ha":696,"x_min":117,"x_max":631,"o":"m 570 163 q 629 171 612 163 l 631 170 l 625 0 l 117 0 l 117 907 q 157 905 135 905 l 205 903 q 308 902 252 902 q 615 907 463 902 q 608 748 608 848 q 609 732 608 737 l 608 730 q 507 740 572 740 l 294 740 l 294 567 l 454 567 q 544 571 529 567 l 546 404 q 462 407 513 407 l 294 407 l 294 163 l 570 163 m 248 1097 q 349 1230 292 1168 l 479 1128 q 433 1068 445 1084 l 409 1035 q 385 1000 397 1019 l 248 1097 z "},"ė":{"ha":812,"x_min":66,"x_max":764,"o":"m 66 349 q 93 496 66 428 q 170 614 120 564 q 446 722 275 722 q 678 627 591 722 q 764 395 764 534 q 756 321 764 341 q 480 302 688 302 l 241 302 q 323 190 259 230 q 491 149 388 149 q 676 188 599 149 q 707 207 696 198 q 703 149 705 178 l 696 43 q 529 -6 644 7 q 464 -10 495 -10 q 179 90 292 -10 q 66 349 66 191 m 584 434 q 425 580 556 580 q 269 491 322 580 q 243 431 252 464 q 283 430 260 431 l 334 430 q 382 429 359 429 l 420 429 q 488 430 455 429 l 544 432 q 584 434 566 433 m 300 906 q 401 1039 344 977 l 530 937 q 484 877 496 893 l 460 844 q 436 808 449 828 l 300 906 z "},"Ę":{"ha":696,"x_min":117,"x_max":631,"o":"m 585 -217 q 625 -206 610 -217 l 627 -210 l 556 -374 q 313 -264 376 -374 q 290 -165 290 -224 q 332 -48 290 -109 q 378 0 350 -24 l 117 0 l 117 907 q 157 905 135 905 l 205 903 q 308 902 252 902 q 615 907 463 902 q 608 748 608 848 q 609 732 608 737 l 608 730 q 507 740 572 740 l 294 740 l 294 567 l 454 567 q 544 571 529 567 l 546 404 q 462 407 513 407 l 294 407 l 294 163 l 570 163 q 629 171 612 163 l 631 170 l 625 9 l 631 0 l 624 0 q 503 -49 553 -3 q 456 -146 456 -93 q 585 -217 456 -217 z "},"ę":{"ha":812,"x_min":66,"x_max":764,"o":"m 368 -174 q 456 -10 368 -94 q 177 92 287 -7 q 66 350 66 193 q 170 614 66 508 q 446 722 275 722 q 678 627 591 722 q 764 395 764 534 q 756 321 764 341 q 480 302 688 302 l 241 302 q 323 190 259 230 q 491 149 388 149 q 676 188 599 149 q 707 207 696 198 q 703 149 705 178 l 696 43 l 684 35 q 557 -76 600 -16 q 527 -142 527 -119 q 538 -180 527 -166 q 567 -203 549 -195 q 637 -219 599 -219 q 690 -208 675 -219 l 691 -212 l 621 -376 q 368 -174 368 -376 m 584 434 q 425 580 556 580 q 269 491 322 580 q 243 431 252 464 q 283 430 260 431 l 334 430 q 382 429 359 429 l 420 429 q 488 430 455 429 l 544 432 q 584 434 566 433 z "},"Ě":{"ha":696,"x_min":115,"x_max":631,"o":"m 570 163 q 629 171 612 163 l 631 170 l 625 0 l 117 0 l 117 907 q 157 905 135 905 l 205 903 q 308 902 252 902 q 615 907 463 902 q 608 748 608 848 q 609 732 608 737 l 608 730 q 507 740 572 740 l 294 740 l 294 567 l 454 567 q 544 571 529 567 l 546 404 q 462 407 513 407 l 294 407 l 294 163 l 570 163 m 358 928 l 323 928 q 279 926 295 928 l 115 1151 l 117 1153 q 295 1151 149 1151 l 361 1031 l 437 1151 l 610 1153 l 613 1151 l 440 926 l 358 928 z "},"ě":{"ha":812,"x_min":66,"x_max":764,"o":"m 66 349 q 93 496 66 428 q 170 614 120 564 q 446 722 275 722 q 678 627 591 722 q 764 395 764 534 q 756 321 764 341 q 480 302 688 302 l 241 302 q 323 190 259 230 q 491 149 388 149 q 676 188 599 149 q 707 207 696 198 q 703 149 705 178 l 696 43 q 529 -6 644 7 q 464 -10 495 -10 q 179 90 292 -10 q 66 349 66 191 m 584 434 q 425 580 556 580 q 269 491 322 580 q 243 431 252 464 q 283 430 260 431 l 334 430 q 382 429 359 429 l 420 429 q 488 430 455 429 l 544 432 q 584 434 566 433 m 410 806 l 375 806 q 330 804 347 806 l 166 1028 l 168 1030 q 347 1028 201 1028 l 412 908 l 489 1028 l 662 1030 l 665 1028 l 492 804 l 410 806 z "},"Ĝ":{"ha":925,"x_min":50,"x_max":860,"o":"m 860 544 q 847 433 847 521 l 847 223 q 748 57 847 127 q 497 -17 646 -17 q 168 113 291 -17 q 50 427 50 236 q 170 766 50 631 q 542 919 305 919 q 792 858 700 919 l 781 658 l 776 656 q 682 724 752 698 q 543 749 616 749 q 415 726 470 749 q 323 661 361 703 q 243 429 243 573 q 313 228 243 304 q 495 153 384 153 q 661 216 618 153 q 674 262 674 237 l 674 375 l 587 375 q 510 363 516 375 l 508 363 l 502 541 q 656 535 521 535 l 736 535 q 858 545 810 535 l 860 544 m 420 999 q 242 997 275 999 l 240 999 l 404 1223 q 449 1221 420 1221 l 484 1221 l 566 1223 l 739 999 l 736 997 l 563 999 l 486 1119 l 420 999 z "},"ĝ":{"ha":809,"x_min":41,"x_max":793,"o":"m 282 189 q 257 136 257 155 q 263 106 257 117 q 290 86 269 96 q 437 49 334 65 q 597 9 539 33 q 691 -49 655 -14 q 758 -235 758 -115 q 673 -421 758 -356 q 422 -486 589 -486 q 151 -412 254 -486 q 45 -218 47 -339 q 155 -14 41 -77 q 114 47 124 12 q 103 127 103 82 q 169 254 103 202 q 92 435 92 327 q 179 637 92 555 q 416 722 271 722 q 560 694 493 722 q 690 759 648 731 q 743 800 731 787 l 747 800 q 761 753 753 783 l 773 705 q 793 622 789 644 q 688 576 763 589 q 717 456 717 519 q 695 342 717 393 q 633 252 673 291 q 407 169 545 169 q 282 189 340 169 m 264 494 q 255 444 255 469 q 266 396 255 419 q 296 355 276 373 q 415 314 342 314 q 511 351 471 314 q 554 449 554 392 q 515 542 554 507 q 409 577 477 577 q 264 494 297 577 m 431 -342 q 597 -225 597 -342 q 543 -136 597 -170 q 334 -75 482 -97 l 298 -69 q 233 -130 254 -93 q 212 -201 212 -168 q 228 -259 212 -235 q 271 -302 243 -283 q 431 -342 333 -342 m 366 806 q 187 804 220 806 l 185 806 l 349 1030 q 394 1028 366 1028 l 429 1028 l 511 1030 l 684 806 l 681 804 l 508 806 l 431 926 l 366 806 z "},"Ğ":{"ha":925,"x_min":50,"x_max":860,"o":"m 860 544 q 847 433 847 521 l 847 223 q 748 57 847 127 q 497 -17 646 -17 q 168 113 291 -17 q 50 427 50 236 q 170 766 50 631 q 542 919 305 919 q 792 858 700 919 l 781 658 l 776 656 q 682 724 752 698 q 543 749 616 749 q 415 726 470 749 q 323 661 361 703 q 243 429 243 573 q 313 228 243 304 q 495 153 384 153 q 661 216 618 153 q 674 262 674 237 l 674 375 l 587 375 q 510 363 516 375 l 508 363 l 502 541 q 656 535 521 535 l 736 535 q 858 545 810 535 l 860 544 m 723 1225 q 730 1179 730 1218 q 716 1101 730 1139 q 673 1032 702 1063 q 489 964 607 964 q 305 1032 371 964 q 248 1178 248 1092 q 255 1225 248 1218 l 345 1223 q 370 1143 352 1169 q 489 1086 410 1086 q 605 1139 568 1086 q 633 1223 626 1169 l 723 1225 z "},"ğ":{"ha":809,"x_min":41,"x_max":793,"o":"m 282 189 q 257 136 257 155 q 263 106 257 117 q 290 86 269 96 q 437 49 334 65 q 597 9 539 33 q 691 -49 655 -14 q 758 -235 758 -115 q 673 -421 758 -356 q 422 -486 589 -486 q 151 -412 254 -486 q 45 -218 47 -339 q 155 -14 41 -77 q 114 47 124 12 q 103 127 103 82 q 169 254 103 202 q 92 435 92 327 q 179 637 92 555 q 416 722 271 722 q 560 694 493 722 q 690 759 648 731 q 743 800 731 787 l 747 800 q 761 753 753 783 l 773 705 q 793 622 789 644 q 688 576 763 589 q 717 456 717 519 q 695 342 717 393 q 633 252 673 291 q 407 169 545 169 q 282 189 340 169 m 264 494 q 255 444 255 469 q 266 396 255 419 q 296 355 276 373 q 415 314 342 314 q 511 351 471 314 q 554 449 554 392 q 515 542 554 507 q 409 577 477 577 q 264 494 297 577 m 431 -342 q 597 -225 597 -342 q 543 -136 597 -170 q 334 -75 482 -97 l 298 -69 q 233 -130 254 -93 q 212 -201 212 -168 q 228 -259 212 -235 q 271 -302 243 -283 q 431 -342 333 -342 m 668 1092 q 675 1046 675 1085 q 661 968 675 1006 q 618 899 647 930 q 434 831 552 831 q 250 899 316 831 q 193 1045 193 959 q 200 1092 193 1085 l 290 1090 q 315 1010 297 1036 q 434 954 355 954 q 550 1006 513 954 q 578 1090 571 1036 l 668 1092 z "},"Ġ":{"ha":925,"x_min":50,"x_max":860,"o":"m 860 544 q 847 433 847 521 l 847 223 q 748 57 847 127 q 497 -17 646 -17 q 168 113 291 -17 q 50 427 50 236 q 170 766 50 631 q 542 919 305 919 q 792 858 700 919 l 781 658 l 776 656 q 682 724 752 698 q 543 749 616 749 q 415 726 470 749 q 323 661 361 703 q 243 429 243 573 q 313 228 243 304 q 495 153 384 153 q 661 216 618 153 q 674 262 674 237 l 674 375 l 587 375 q 510 363 516 375 l 508 363 l 502 541 q 656 535 521 535 l 736 535 q 858 545 810 535 l 860 544 m 374 1097 q 475 1230 418 1168 l 604 1128 q 558 1068 570 1084 l 534 1035 q 510 1000 523 1019 l 374 1097 z "},"ġ":{"ha":809,"x_min":41,"x_max":793,"o":"m 282 189 q 257 136 257 155 q 263 106 257 117 q 290 86 269 96 q 437 49 334 65 q 597 9 539 33 q 691 -49 655 -14 q 758 -235 758 -115 q 673 -421 758 -356 q 422 -486 589 -486 q 151 -412 254 -486 q 45 -218 47 -339 q 155 -14 41 -77 q 114 47 124 12 q 103 127 103 82 q 169 254 103 202 q 92 435 92 327 q 179 637 92 555 q 416 722 271 722 q 560 694 493 722 q 690 759 648 731 q 743 800 731 787 l 747 800 q 761 753 753 783 l 773 705 q 793 622 789 644 q 688 576 763 589 q 717 456 717 519 q 695 342 717 393 q 633 252 673 291 q 407 169 545 169 q 282 189 340 169 m 264 494 q 255 444 255 469 q 266 396 255 419 q 296 355 276 373 q 415 314 342 314 q 511 351 471 314 q 554 449 554 392 q 515 542 554 507 q 409 577 477 577 q 264 494 297 577 m 431 -342 q 597 -225 597 -342 q 543 -136 597 -170 q 334 -75 482 -97 l 298 -69 q 233 -130 254 -93 q 212 -201 212 -168 q 228 -259 212 -235 q 271 -302 243 -283 q 431 -342 333 -342 m 319 906 q 420 1039 363 977 l 549 937 q 503 877 515 893 l 479 844 q 455 808 468 828 l 319 906 z "},"Ģ":{"ha":925,"x_min":50,"x_max":860,"o":"m 860 544 q 847 433 847 521 l 847 223 q 748 57 847 127 q 497 -17 646 -17 q 168 113 291 -17 q 50 427 50 236 q 170 766 50 631 q 542 919 305 919 q 792 858 700 919 l 781 658 l 776 656 q 682 724 752 698 q 543 749 616 749 q 415 726 470 749 q 323 661 361 703 q 243 429 243 573 q 313 228 243 304 q 495 153 384 153 q 661 216 618 153 q 674 262 674 237 l 674 375 l 587 375 q 510 363 516 375 l 508 363 l 502 541 q 656 535 521 535 l 736 535 q 858 545 810 535 l 860 544 m 366 -412 q 407 -261 407 -338 q 399 -130 407 -184 l 568 -102 l 574 -137 q 579 -215 579 -175 q 575 -280 579 -256 q 564 -323 571 -305 q 509 -378 548 -362 q 370 -416 465 -396 l 366 -412 z "},"ģ":{"ha":809,"x_min":41,"x_max":793,"o":"m 282 189 q 257 136 257 155 q 263 106 257 117 q 290 86 269 96 q 437 49 334 65 q 597 9 539 33 q 691 -49 655 -14 q 758 -235 758 -115 q 673 -421 758 -356 q 422 -486 589 -486 q 151 -412 254 -486 q 45 -218 47 -339 q 155 -14 41 -77 q 114 47 124 12 q 103 127 103 82 q 169 254 103 202 q 92 435 92 327 q 179 637 92 555 q 416 722 271 722 q 560 694 493 722 q 690 759 648 731 q 743 800 731 787 l 747 800 q 761 753 753 783 l 773 705 q 793 622 789 644 q 688 576 763 589 q 717 456 717 519 q 695 342 717 393 q 633 252 673 291 q 407 169 545 169 q 282 189 340 169 m 264 494 q 255 444 255 469 q 266 396 255 419 q 296 355 276 373 q 415 314 342 314 q 511 351 471 314 q 554 449 554 392 q 515 542 554 507 q 409 577 477 577 q 264 494 297 577 m 431 -342 q 597 -225 597 -342 q 543 -136 597 -170 q 334 -75 482 -97 l 298 -69 q 233 -130 254 -93 q 212 -201 212 -168 q 228 -259 212 -235 q 271 -302 243 -283 q 431 -342 333 -342 m 501 1198 q 460 1047 460 1124 q 467 916 460 970 l 298 888 l 293 923 q 288 1001 288 961 q 292 1066 288 1042 q 302 1109 296 1091 q 358 1164 319 1148 q 497 1202 401 1182 l 501 1198 z "},"Ĥ":{"ha":925,"x_min":123,"x_max":795,"o":"m 300 -4 q 145 0 235 0 l 123 0 l 123 905 q 183 902 165 902 l 211 902 q 300 907 264 902 l 300 546 l 618 546 l 618 905 q 728 902 675 902 q 795 907 781 902 l 795 -4 q 666 0 762 0 l 618 0 l 618 383 l 300 383 l 300 -4 m 394 999 q 216 997 248 999 l 214 999 l 378 1223 q 422 1221 394 1221 l 457 1221 l 539 1223 l 712 999 l 709 997 l 536 999 l 460 1119 l 394 999 z "},"ĥ":{"ha":809,"x_min":117,"x_max":737,"o":"m 283 76 q 286 0 283 18 l 117 0 l 117 970 l 283 970 l 283 656 q 464 722 371 722 q 647 647 578 722 q 715 448 715 572 l 715 178 q 718 40 715 63 q 727 10 722 17 q 737 -2 733 3 l 736 -5 q 656 0 681 0 l 608 0 q 549 -2 585 0 l 549 391 q 507 529 549 484 q 422 563 476 563 q 283 471 343 563 l 283 76 m 382 999 q 203 997 236 999 l 201 999 l 366 1223 q 410 1221 382 1221 l 445 1221 l 527 1223 l 700 999 l 697 997 l 524 999 l 448 1119 l 382 999 z "},"Ħ":{"ha":925,"x_min":39,"x_max":881,"o":"m 300 -4 q 145 0 235 0 l 123 0 l 123 661 l 39 661 l 46 688 q 49 714 49 696 q 42 760 49 732 l 123 760 l 123 905 q 183 902 165 902 l 211 902 q 300 907 264 902 l 300 760 l 618 760 l 618 905 q 728 902 675 902 q 795 907 781 902 l 795 760 l 881 760 q 877 720 877 738 l 877 694 q 881 661 877 684 l 795 661 l 795 -4 q 666 0 762 0 l 618 0 l 618 383 l 300 383 l 300 -4 m 618 546 l 618 661 l 300 661 l 300 546 l 618 546 z "},"ħ":{"ha":809,"x_min":65,"x_max":737,"o":"m 283 76 q 286 0 283 18 l 117 0 l 117 773 l 65 773 l 68 791 q 71 831 71 813 q 66 888 71 850 l 117 888 l 117 970 l 283 970 l 283 888 l 442 888 q 439 837 439 854 l 439 812 q 442 773 439 808 l 283 773 l 283 656 q 464 722 371 722 q 647 647 578 722 q 715 448 715 572 l 715 178 q 718 40 715 63 q 727 10 722 17 q 737 -2 733 3 l 736 -5 q 656 0 681 0 l 608 0 q 549 -2 585 0 l 549 391 q 507 529 549 484 q 422 563 476 563 q 283 471 343 563 l 283 76 z "},"Ĩ":{"ha":464,"x_min":-5,"x_max":454,"o":"m 138 905 q 220 902 205 902 l 269 902 q 326 907 304 902 l 326 0 l 138 0 l 138 905 m 113 1061 q 0 1010 50 1061 l -3 1011 l -5 1146 q 120 1200 41 1200 q 236 1163 182 1200 q 347 1126 290 1126 q 452 1183 427 1126 l 454 1182 l 447 1036 q 406 1002 435 1015 q 343 989 376 989 q 291 994 311 989 q 254 1008 271 1000 q 222 1025 237 1016 q 191 1042 208 1034 q 113 1061 153 1061 z "},"ĩ":{"ha":348,"x_min":-64,"x_max":395,"o":"m 256 76 q 259 0 256 18 l 87 0 l 87 709 l 256 709 l 256 76 m 54 868 q -59 817 -9 868 l -62 818 l -64 953 q 61 1007 -18 1007 q 177 970 123 1007 q 288 933 231 933 q 393 990 368 933 l 395 989 l 388 842 q 347 809 376 822 q 284 795 317 795 q 232 801 252 795 q 195 814 212 806 q 163 832 178 823 q 132 849 149 841 q 54 868 94 868 z "},"Ī":{"ha":464,"x_min":-1,"x_max":457,"o":"m 138 905 q 220 902 205 902 l 269 902 q 326 907 304 902 l 326 0 l 138 0 l 138 905 m 457 1153 q 454 1101 454 1119 l 454 1078 q 457 1038 454 1073 l -1 1038 l 1 1055 q 5 1096 5 1078 q 1 1153 5 1114 l 457 1153 z "},"ī":{"ha":464,"x_min":-7,"x_max":450,"o":"m 313 76 q 315 0 313 18 l 143 0 l 143 709 l 313 709 l 313 76 m 450 1033 q 448 981 448 999 l 448 958 q 450 918 448 953 l -7 918 l -5 935 q -2 976 -2 958 q -6 1033 -2 994 l 450 1033 z "},"Ĭ":{"ha":464,"x_min":-16,"x_max":465,"o":"m 138 905 q 220 902 205 902 l 269 902 q 326 907 304 902 l 326 0 l 138 0 l 138 905 m 458 1225 q 465 1179 465 1218 q 451 1101 465 1139 q 408 1032 437 1063 q 224 964 342 964 q 41 1032 106 964 q -16 1178 -16 1092 q -9 1225 -16 1218 l 81 1223 q 106 1143 87 1169 q 224 1086 146 1086 q 340 1139 303 1086 q 368 1223 361 1169 l 458 1225 z "},"ĭ":{"ha":464,"x_min":-20,"x_max":462,"o":"m 313 76 q 315 0 313 18 l 143 0 l 143 709 l 313 709 l 313 76 m 455 1092 q 462 1046 462 1085 q 448 968 462 1006 q 405 899 434 930 q 221 831 339 831 q 37 899 103 831 q -20 1045 -20 959 q -13 1092 -20 1085 l 77 1090 q 102 1010 84 1036 q 221 954 142 954 q 337 1006 300 954 q 365 1090 358 1036 l 455 1092 z "},"Į":{"ha":464,"x_min":45,"x_max":382,"o":"m 258 -203 q 267 -208 258 -203 q 298 -216 276 -212 q 342 -219 319 -219 q 380 -208 366 -219 l 382 -212 l 311 -376 q 128 -342 191 -376 q 45 -187 45 -295 q 91 -52 45 -121 q 138 0 109 -24 l 138 905 q 220 902 205 902 l 248 902 q 326 907 304 902 l 326 0 l 311 0 q 241 -79 270 -24 q 218 -143 218 -121 q 229 -180 218 -166 q 258 -203 240 -195 z "},"į":{"ha":348,"x_min":-13,"x_max":337,"o":"m 78 911 q 191 1060 132 996 l 337 945 q 283 875 308 909 q 231 801 283 875 l 78 911 m 200 -203 q 209 -208 200 -203 q 240 -216 218 -212 q 285 -219 262 -219 q 323 -208 308 -219 l 324 -212 l 254 -376 q 71 -342 134 -376 q -13 -187 -13 -295 q 34 -52 -13 -121 q 80 0 52 -24 l 87 2 l 87 709 l 256 709 l 256 76 q 259 0 256 18 l 253 0 q 183 -79 212 -24 q 160 -143 160 -121 q 171 -180 160 -166 q 200 -203 182 -195 z "},"İ":{"ha":464,"x_min":109,"x_max":340,"o":"m 138 905 q 220 902 205 902 l 269 902 q 326 907 304 902 l 326 0 l 138 0 l 138 905 m 109 1097 q 210 1230 153 1168 l 340 1128 q 294 1068 306 1084 l 270 1035 q 245 1000 258 1019 l 109 1097 z "},"ı":{"ha":348,"x_min":87,"x_max":259,"o":"m 256 76 q 259 0 256 18 l 87 0 l 87 709 l 256 709 l 256 76 z "},"Ĳ":{"ha":1047,"x_min":138,"x_max":947,"o":"m 138 905 q 220 902 205 902 l 269 902 q 326 907 304 902 l 326 0 l 138 0 l 138 905 m 768 905 q 829 902 810 902 l 882 902 q 947 907 915 902 l 947 300 q 868 65 947 151 q 665 -17 793 -17 q 517 18 576 -17 q 472 50 494 31 l 472 245 l 477 247 q 544 174 505 202 q 639 145 582 145 q 768 294 768 145 l 768 905 z "},"ĳ":{"ha":696,"x_min":78,"x_max":643,"o":"m 78 911 q 191 1060 132 996 l 337 945 q 283 875 308 909 q 231 801 283 875 l 78 911 m 256 76 q 259 0 256 18 l 87 0 l 87 709 l 256 709 l 256 76 m 412 906 q 513 1039 456 977 l 643 937 q 597 877 609 893 l 573 844 q 549 808 562 828 l 412 906 m 337 -105 q 437 44 437 -105 l 437 709 l 602 709 l 602 93 q 440 -244 602 -192 q 320 -261 387 -261 l 250 -83 l 251 -79 q 337 -105 290 -105 z "},"Ĵ":{"ha":583,"x_min":8,"x_max":644,"o":"m 304 905 q 365 902 346 902 l 418 902 q 484 907 451 902 l 484 300 q 404 65 484 151 q 201 -17 329 -17 q 53 18 113 -17 q 8 50 31 31 l 8 245 l 13 247 q 80 174 41 202 q 175 145 118 145 q 304 294 304 145 l 304 905 m 326 999 q 148 997 180 999 l 146 999 l 310 1223 q 355 1221 326 1221 l 389 1221 l 471 1223 l 644 999 l 642 997 l 469 999 l 392 1119 l 326 999 z "},"ĵ":{"ha":349,"x_min":-97,"x_max":424,"o":"m -9 -105 q 90 44 90 -105 l 90 709 l 256 709 l 256 93 q 94 -244 256 -192 q -26 -261 41 -261 l -97 -83 l -96 -79 q -9 -105 -57 -105 m 106 806 q -73 804 -40 806 l -75 806 l 90 1030 q 134 1028 106 1028 l 169 1028 l 251 1030 l 424 806 l 421 804 l 248 806 l 172 926 l 106 806 z "},"Ķ":{"ha":809,"x_min":117,"x_max":801,"o":"m 290 -4 q 170 0 243 0 l 117 0 l 117 905 l 144 903 q 186 902 172 902 l 206 902 q 290 907 266 902 l 290 524 l 564 905 q 637 902 608 902 l 675 902 q 774 907 745 902 l 513 566 l 770 54 q 801 0 787 17 l 760 0 q 581 -5 616 0 q 561 74 574 40 l 388 404 l 290 275 l 290 -4 m 359 -412 q 401 -261 401 -338 q 393 -130 401 -184 l 562 -102 l 568 -137 q 573 -215 573 -175 q 569 -280 573 -256 q 558 -323 565 -305 q 503 -378 542 -362 q 363 -416 459 -396 l 359 -412 z "},"ķ":{"ha":809,"x_min":110,"x_max":826,"o":"m 276 90 q 281 0 276 31 l 110 0 l 110 970 l 276 970 l 276 376 l 586 709 l 787 709 l 520 427 l 673 219 q 747 104 722 140 l 792 41 q 826 0 812 14 l 719 0 q 616 -10 659 0 l 405 299 l 276 162 l 276 90 m 328 -412 q 370 -261 370 -338 q 362 -130 370 -184 l 531 -102 l 536 -137 q 542 -215 542 -175 q 538 -280 542 -256 q 527 -323 534 -305 q 471 -378 511 -362 q 332 -416 428 -396 l 328 -412 z "},"ĸ":{"ha":810,"x_min":110,"x_max":826,"o":"m 276 90 q 281 0 276 31 l 110 0 l 110 709 l 276 709 l 276 376 l 586 709 l 787 709 l 520 427 l 673 219 q 747 104 722 140 l 792 41 q 826 0 812 14 l 719 0 q 616 -10 659 0 l 405 299 l 276 162 l 276 90 z "},"Ĺ":{"ha":580,"x_min":117,"x_max":541,"o":"m 249 0 q 117 -4 149 0 l 117 906 q 184 902 133 902 q 303 905 235 902 l 303 163 l 444 163 q 541 167 505 163 q 536 2 536 8 l 536 -5 q 313 0 470 0 l 249 0 m 319 1213 q 536 1224 420 1213 l 535 1219 l 357 1000 l 204 1000 l 319 1213 z "},"ĺ":{"ha":348,"x_min":26,"x_max":357,"o":"m 257 76 q 260 0 257 18 l 87 0 l 87 919 l 257 919 l 257 76 m 140 1213 q 357 1224 242 1213 l 357 1219 l 179 1000 l 26 1000 l 140 1213 z "},"Ļ":{"ha":580,"x_min":117,"x_max":541,"o":"m 249 0 q 117 -4 149 0 l 117 906 q 184 902 133 902 q 303 905 235 902 l 303 163 l 444 163 q 541 167 505 163 q 536 2 536 8 l 536 -5 q 313 0 470 0 l 249 0 m 257 -412 q 298 -261 298 -338 q 291 -130 298 -184 l 460 -102 l 465 -137 q 471 -215 471 -175 q 467 -280 471 -256 q 456 -323 463 -305 q 400 -378 439 -362 q 261 -416 357 -396 l 257 -412 z "},"ļ":{"ha":348,"x_min":62,"x_max":275,"o":"m 257 76 q 260 0 257 18 l 87 0 l 87 1010 l 257 1010 l 257 76 m 62 -412 q 103 -261 103 -338 q 96 -130 103 -184 l 264 -102 l 270 -137 q 275 -215 275 -175 q 271 -280 275 -256 q 260 -323 267 -305 q 205 -378 244 -362 q 66 -416 161 -396 l 62 -412 z "},"Ľ":{"ha":665,"x_min":117,"x_max":591,"o":"m 249 0 q 117 -4 149 0 l 117 906 q 184 902 133 902 q 303 905 235 902 l 303 163 l 444 163 q 541 167 505 163 q 536 2 536 8 l 536 -5 q 313 0 470 0 l 249 0 m 584 980 q 591 872 591 909 q 589 802 591 836 q 583 741 587 768 q 558 673 572 683 q 501 655 541 663 l 426 640 l 422 644 q 433 766 433 663 l 433 833 q 429 953 433 902 l 584 980 z "},"ľ":{"ha":460,"x_min":87,"x_max":501,"o":"m 257 76 q 260 0 257 18 l 87 0 l 87 1010 l 257 1010 l 257 76 m 494 980 q 501 872 501 909 q 499 802 501 836 q 492 741 496 768 q 468 673 482 683 q 411 655 451 663 l 336 640 l 332 644 q 342 766 342 663 l 342 833 q 338 953 342 902 l 494 980 z "},"Ŀ":{"ha":693,"x_min":117,"x_max":666,"o":"m 249 0 q 117 -4 149 0 l 117 906 q 184 902 133 902 q 303 905 235 902 l 303 163 l 444 163 q 541 167 505 163 q 536 2 536 8 l 536 -5 q 313 0 470 0 l 249 0 m 468 466 q 474 539 474 507 q 474 583 474 571 q 473 606 473 595 q 471 628 472 618 l 469 645 l 666 645 q 664 603 664 619 l 663 574 q 663 526 663 562 q 666 466 663 490 l 468 466 z "},"ŀ":{"ha":577,"x_min":120,"x_max":541,"o":"m 381 410 q 387 499 387 445 q 382 579 387 553 l 541 579 q 538 485 538 535 q 541 410 538 434 l 381 410 m 290 76 q 292 0 290 18 l 120 0 l 120 1010 l 290 1010 l 290 76 z "},"Ł":{"ha":607,"x_min":17,"x_max":541,"o":"m 249 0 q 117 -4 149 0 l 117 386 l 20 353 q 20 380 20 366 l 20 430 q 17 505 18 494 l 117 540 l 117 906 q 184 902 133 902 q 303 905 235 902 l 303 605 l 478 666 l 479 590 l 479 529 q 479 511 479 519 l 303 450 l 303 163 l 444 163 q 541 167 505 163 q 536 2 536 8 l 536 -5 q 313 0 470 0 l 249 0 z "},"ł":{"ha":410,"x_min":18,"x_max":384,"o":"m 290 76 q 292 0 290 18 l 120 0 l 120 408 l 20 370 q 21 395 21 382 l 21 440 l 20 475 q 18 509 19 492 l 120 547 l 120 970 l 290 970 l 290 610 l 382 644 q 381 608 381 627 l 381 575 q 384 509 381 543 l 290 473 l 290 76 z "},"Ń":{"ha":922,"x_min":123,"x_max":798,"o":"m 123 0 q 127 50 127 23 l 127 902 l 262 902 l 622 336 l 622 856 q 615 902 622 893 l 798 902 q 795 842 795 875 l 795 0 l 654 0 l 300 543 l 300 0 l 123 0 m 410 1213 q 627 1224 511 1213 l 626 1219 l 448 1000 l 295 1000 l 410 1213 z "},"ń":{"ha":812,"x_min":113,"x_max":736,"o":"m 278 87 q 283 0 278 27 l 113 0 l 113 709 l 278 709 l 278 648 q 469 722 368 722 q 647 647 581 722 q 713 448 713 571 l 713 178 q 717 40 713 63 q 726 10 720 17 q 736 -2 732 3 l 734 -5 q 654 0 680 0 l 607 0 q 549 -2 585 0 l 549 368 q 428 566 549 566 q 278 474 338 566 l 278 87 m 428 1019 q 645 1031 530 1019 l 644 1026 l 467 807 l 313 807 l 428 1019 z "},"Ņ":{"ha":922,"x_min":123,"x_max":798,"o":"m 123 0 q 127 50 127 23 l 127 902 l 262 902 l 622 336 l 622 856 q 615 902 622 893 l 798 902 q 795 842 795 875 l 795 0 l 654 0 l 300 543 l 300 0 l 123 0 m 348 -412 q 389 -261 389 -338 q 382 -130 389 -184 l 551 -102 l 556 -137 q 562 -215 562 -175 q 557 -280 562 -256 q 547 -323 553 -305 q 491 -378 530 -362 q 352 -416 448 -396 l 348 -412 z "},"ņ":{"ha":812,"x_min":113,"x_max":736,"o":"m 278 87 q 283 0 278 27 l 113 0 l 113 709 l 278 709 l 278 648 q 469 722 368 722 q 647 647 581 722 q 713 448 713 571 l 713 178 q 717 40 713 63 q 726 10 720 17 q 736 -2 732 3 l 734 -5 q 654 0 680 0 l 607 0 q 549 -2 585 0 l 549 368 q 428 566 549 566 q 278 474 338 566 l 278 87 m 326 -412 q 367 -261 367 -338 q 359 -130 367 -184 l 528 -102 l 534 -137 q 539 -215 539 -175 q 535 -280 539 -256 q 524 -323 531 -305 q 469 -378 508 -362 q 330 -416 425 -396 l 326 -412 z "},"Ň":{"ha":922,"x_min":123,"x_max":798,"o":"m 123 0 q 127 50 127 23 l 127 902 l 262 902 l 622 336 l 622 856 q 615 902 622 893 l 798 902 q 795 842 795 875 l 795 0 l 654 0 l 300 543 l 300 0 l 123 0 m 455 928 l 420 928 q 376 926 392 928 l 212 1151 l 214 1153 q 392 1151 246 1151 l 458 1031 l 534 1151 l 707 1153 l 710 1151 l 537 926 l 455 928 z "},"ň":{"ha":812,"x_min":113,"x_max":736,"o":"m 278 87 q 283 0 278 27 l 113 0 l 113 709 l 278 709 l 278 648 q 469 722 368 722 q 647 647 581 722 q 713 448 713 571 l 713 178 q 717 40 713 63 q 726 10 720 17 q 736 -2 732 3 l 734 -5 q 654 0 680 0 l 607 0 q 549 -2 585 0 l 549 368 q 428 566 549 566 q 278 474 338 566 l 278 87 m 433 806 l 398 806 q 353 804 370 806 l 189 1028 l 191 1030 q 370 1028 224 1028 l 435 908 l 512 1028 l 685 1030 l 688 1028 l 515 804 l 433 806 z "},"Ŋ":{"ha":922,"x_min":123,"x_max":798,"o":"m 123 0 q 127 50 127 23 l 127 902 l 276 902 l 621 340 l 621 856 q 614 902 621 893 l 798 902 q 794 842 794 875 l 795 -72 q 703 -307 795 -219 q 491 -389 616 -389 q 286 -322 366 -389 l 286 -153 l 291 -152 q 414 -222 348 -211 q 470 -227 438 -227 q 530 -216 502 -227 q 579 -184 559 -205 q 622 -77 622 -143 l 622 39 l 300 535 l 300 0 l 123 0 z "},"ŋ":{"ha":812,"x_min":113,"x_max":714,"o":"m 278 87 q 283 0 278 27 l 113 0 l 113 709 l 278 709 l 278 648 q 470 722 368 722 q 648 647 581 722 q 714 448 714 571 l 714 300 q 708 -91 714 -20 q 680 -212 702 -162 q 622 -292 658 -262 q 431 -347 555 -347 l 361 -169 l 362 -165 q 436 -191 401 -191 q 491 -183 472 -191 q 522 -157 509 -175 q 548 -42 548 -119 l 549 368 q 429 566 549 566 q 278 474 338 566 l 278 87 z "},"Ō":{"ha":1041,"x_min":58,"x_max":983,"o":"m 191 107 q 160 137 191 107 q 93 249 129 166 q 58 430 58 332 q 91 617 58 529 q 186 772 124 705 q 335 879 248 840 q 531 919 422 919 q 846 801 718 919 q 983 460 983 675 q 842 115 983 253 q 635 -1 755 31 q 497 -17 576 -17 q 335 16 418 -17 q 191 107 252 48 m 246 439 q 267 323 246 376 q 326 233 288 271 q 530 153 405 153 q 720 229 648 153 q 793 446 793 309 q 724 661 793 574 q 517 753 648 753 q 316 659 391 753 q 246 439 246 572 m 753 1153 q 751 1101 751 1119 l 751 1078 q 753 1038 751 1073 l 296 1038 l 298 1055 q 301 1096 301 1078 q 297 1153 301 1114 l 753 1153 z "},"ō":{"ha":812,"x_min":48,"x_max":770,"o":"m 48 351 q 74 493 48 425 q 146 612 99 562 q 416 722 250 722 q 677 618 581 722 q 770 361 770 519 q 675 100 770 203 q 407 -10 574 -10 q 137 98 235 -10 q 48 351 48 196 m 213 355 q 227 272 213 312 q 268 203 241 232 q 416 142 324 142 q 549 202 500 142 q 597 354 597 260 q 548 507 597 449 q 405 570 496 570 q 260 503 313 570 q 213 355 213 442 m 635 1033 q 632 981 632 999 l 632 958 q 635 918 632 953 l 177 918 l 179 935 q 182 976 182 958 q 178 1033 182 994 l 635 1033 z "},"Ŏ":{"ha":1041,"x_min":58,"x_max":983,"o":"m 191 107 q 160 137 191 107 q 93 249 129 166 q 58 430 58 332 q 91 617 58 529 q 186 772 124 705 q 335 879 248 840 q 531 919 422 919 q 846 801 718 919 q 983 460 983 675 q 842 115 983 253 q 635 -1 755 31 q 497 -17 576 -17 q 335 16 418 -17 q 191 107 252 48 m 246 439 q 267 323 246 376 q 326 233 288 271 q 530 153 405 153 q 720 229 648 153 q 793 446 793 309 q 724 661 793 574 q 517 753 648 753 q 316 659 391 753 q 246 439 246 572 m 754 1225 q 761 1179 761 1218 q 747 1101 761 1139 q 704 1032 733 1063 q 520 964 638 964 q 336 1032 402 964 q 279 1178 279 1092 q 286 1225 279 1218 l 376 1223 q 401 1143 383 1169 q 520 1086 441 1086 q 636 1139 599 1086 q 664 1223 657 1169 l 754 1225 z "},"ŏ":{"ha":812,"x_min":48,"x_max":770,"o":"m 48 351 q 74 493 48 425 q 146 612 99 562 q 416 722 250 722 q 677 618 581 722 q 770 361 770 519 q 675 100 770 203 q 407 -10 574 -10 q 137 98 235 -10 q 48 351 48 196 m 213 355 q 227 272 213 312 q 268 203 241 232 q 416 142 324 142 q 549 202 500 142 q 597 354 597 260 q 548 507 597 449 q 405 570 496 570 q 260 503 313 570 q 213 355 213 442 m 640 1092 q 646 1046 646 1085 q 632 968 646 1006 q 589 899 618 930 q 406 831 524 831 q 222 899 288 831 q 165 1045 165 959 q 172 1092 165 1085 l 262 1090 q 287 1010 269 1036 q 406 954 327 954 q 522 1006 484 954 q 549 1090 543 1036 l 640 1092 z "},"Ő":{"ha":1041,"x_min":58,"x_max":983,"o":"m 191 107 q 160 137 191 107 q 93 249 129 166 q 58 430 58 332 q 91 617 58 529 q 186 772 124 705 q 335 879 248 840 q 531 919 422 919 q 846 801 718 919 q 983 460 983 675 q 842 115 983 253 q 635 -1 755 31 q 497 -17 576 -17 q 335 16 418 -17 q 191 107 252 48 m 246 439 q 267 323 246 376 q 326 233 288 271 q 530 153 405 153 q 720 229 648 153 q 793 446 793 309 q 724 661 793 574 q 517 753 648 753 q 316 659 391 753 q 246 439 246 572 m 677 1226 q 847 1238 732 1226 l 846 1233 l 669 1014 l 563 1014 l 677 1226 m 416 1226 q 477 1229 452 1226 l 572 1238 l 572 1233 l 394 1014 l 302 1014 l 416 1226 z "},"ő":{"ha":812,"x_min":48,"x_max":770,"o":"m 48 351 q 74 493 48 425 q 146 612 99 562 q 416 722 250 722 q 677 618 581 722 q 770 361 770 519 q 675 100 770 203 q 407 -10 574 -10 q 137 98 235 -10 q 48 351 48 196 m 213 355 q 227 272 213 312 q 268 203 241 232 q 416 142 324 142 q 549 202 500 142 q 597 354 597 260 q 548 507 597 449 q 405 570 496 570 q 260 503 313 570 q 213 355 213 442 m 563 1019 q 732 1031 617 1019 l 732 1026 l 554 807 l 448 807 l 563 1019 m 302 1019 q 363 1021 337 1019 l 458 1031 l 457 1026 l 279 807 l 187 807 l 302 1019 z "},"Œ":{"ha":1385,"x_min":49,"x_max":1322,"o":"m 801 97 q 505 -17 673 -17 q 182 107 311 -17 q 49 432 49 234 q 178 772 49 633 q 524 919 313 919 q 801 820 684 919 l 801 907 q 841 905 819 905 l 887 903 q 988 902 933 902 q 1306 907 1154 902 q 1299 748 1299 848 q 1300 732 1299 737 l 1299 730 q 1198 740 1263 740 l 974 740 l 974 567 l 1172 567 q 1261 571 1246 567 l 1263 404 q 1179 407 1231 407 l 974 407 l 974 163 l 1261 163 q 1320 171 1303 163 l 1322 170 l 1316 0 l 801 0 l 801 97 m 224 439 q 247 322 224 376 q 311 229 271 269 q 521 146 395 146 q 718 227 640 146 q 801 446 801 312 q 718 666 801 578 q 510 753 634 753 q 300 659 382 753 q 224 439 224 570 z "},"œ":{"ha":1385,"x_min":43,"x_max":1343,"o":"m 1036 -10 q 712 120 824 -10 q 584 24 660 59 q 415 -10 508 -10 q 251 21 321 -10 q 134 104 180 53 q 43 347 43 203 q 148 614 43 509 q 436 722 256 722 q 717 595 616 722 q 1011 722 824 722 q 1248 634 1156 722 q 1343 395 1343 543 q 1335 323 1343 355 q 1052 302 1259 302 q 955 302 1052 302 q 874 304 911 302 l 874 454 q 955 450 902 450 q 1032 450 1008 450 q 1081 451 1055 450 q 1131 452 1081 451 q 1174 454 1155 453 q 1053 558 1149 532 q 986 566 1023 566 q 916 553 950 566 q 856 514 882 539 q 796 377 802 461 l 797 353 l 797 345 q 799 317 797 341 q 821 259 800 294 q 877 199 842 224 q 1069 149 948 149 q 1278 221 1190 149 q 1267 43 1274 146 q 1101 -6 1213 7 q 1036 -10 1068 -10 m 208 357 q 225 278 208 316 q 270 210 241 239 q 420 149 331 149 q 568 202 509 149 q 631 350 631 258 q 572 504 631 442 q 422 566 514 566 q 264 501 326 566 q 208 357 208 441 z "},"Ŕ":{"ha":809,"x_min":117,"x_max":776,"o":"m 408 351 q 365 349 388 349 q 296 353 342 349 l 296 0 l 117 0 l 117 907 q 350 919 212 919 q 631 849 538 919 q 724 635 724 780 q 639 442 724 522 q 575 397 611 416 l 713 106 q 776 -1 754 16 l 772 -5 q 566 -5 707 6 l 408 351 m 363 759 q 296 755 328 759 l 296 496 q 374 492 330 492 q 450 499 419 492 q 503 524 480 507 q 551 631 551 559 q 500 732 551 703 q 363 759 454 759 m 419 1213 q 636 1224 521 1213 l 635 1219 l 458 1000 l 304 1000 l 419 1213 z "},"ŕ":{"ha":464,"x_min":94,"x_max":517,"o":"m 260 76 q 262 0 260 18 l 94 0 l 94 709 l 260 709 l 260 656 q 381 722 317 722 q 481 707 444 722 l 469 524 l 466 522 q 368 564 442 564 q 310 545 339 564 q 260 494 280 526 l 260 76 m 300 1019 q 517 1031 402 1019 l 517 1026 l 339 807 l 186 807 l 300 1019 z "},"Ŗ":{"ha":809,"x_min":117,"x_max":776,"o":"m 408 351 q 365 349 388 349 q 296 353 342 349 l 296 0 l 117 0 l 117 907 q 350 919 212 919 q 631 849 538 919 q 724 635 724 780 q 639 442 724 522 q 575 397 611 416 l 713 106 q 776 -1 754 16 l 772 -5 q 566 -5 707 6 l 408 351 m 363 759 q 296 755 328 759 l 296 496 q 374 492 330 492 q 450 499 419 492 q 503 524 480 507 q 551 631 551 559 q 500 732 551 703 q 363 759 454 759 m 357 -412 q 399 -261 399 -338 q 391 -130 399 -184 l 560 -102 l 566 -137 q 571 -215 571 -175 q 567 -280 571 -256 q 556 -323 563 -305 q 500 -378 540 -362 q 361 -416 457 -396 l 357 -412 z "},"ŗ":{"ha":464,"x_min":77,"x_max":481,"o":"m 260 76 q 262 0 260 18 l 94 0 l 94 709 l 260 709 l 260 656 q 381 722 317 722 q 481 707 444 722 l 469 524 l 466 522 q 368 564 442 564 q 310 545 339 564 q 260 494 280 526 l 260 76 m 77 -412 q 118 -261 118 -338 q 111 -130 118 -184 l 279 -102 l 285 -137 q 290 -215 290 -175 q 286 -280 290 -256 q 275 -323 282 -305 q 220 -378 259 -362 q 81 -416 176 -396 l 77 -412 z "},"Ř":{"ha":809,"x_min":117,"x_max":776,"o":"m 408 351 q 365 349 388 349 q 296 353 342 349 l 296 0 l 117 0 l 117 907 q 350 919 212 919 q 631 849 538 919 q 724 635 724 780 q 639 442 724 522 q 575 397 611 416 l 713 106 q 776 -1 754 16 l 772 -5 q 566 -5 707 6 l 408 351 m 363 759 q 296 755 328 759 l 296 496 q 374 492 330 492 q 450 499 419 492 q 503 524 480 507 q 551 631 551 559 q 500 732 551 703 q 363 759 454 759 m 465 928 l 430 928 q 385 926 401 928 l 221 1151 l 223 1153 q 401 1151 256 1151 l 467 1031 l 544 1151 l 717 1153 l 720 1151 l 547 926 l 465 928 z "},"ř":{"ha":464,"x_min":62,"x_max":561,"o":"m 260 76 q 262 0 260 18 l 94 0 l 94 709 l 260 709 l 260 656 q 381 722 317 722 q 481 707 444 722 l 469 524 l 466 522 q 368 564 442 564 q 310 545 339 564 q 260 494 280 526 l 260 76 m 306 806 l 271 806 q 227 804 243 806 l 62 1028 l 64 1030 q 243 1028 97 1028 l 309 908 l 385 1028 l 558 1030 l 561 1028 l 388 804 l 306 806 z "},"Ś":{"ha":809,"x_min":87,"x_max":742,"o":"m 661 852 l 648 652 l 644 651 q 473 749 593 726 q 400 756 435 756 q 340 750 365 756 q 298 732 315 744 q 260 669 260 708 q 293 591 260 617 q 428 548 334 560 q 579 513 522 535 q 673 458 636 492 q 742 282 742 396 q 629 52 742 133 q 387 -17 533 -17 q 153 28 269 -17 q 87 62 115 43 l 94 289 l 97 291 q 373 146 181 146 q 553 212 509 146 q 568 261 568 234 q 559 307 568 289 q 530 338 551 325 q 398 372 491 363 q 246 406 305 381 q 152 466 187 430 q 88 648 88 531 q 173 843 88 768 q 405 919 259 919 q 661 852 551 919 m 353 1213 q 570 1224 455 1213 l 570 1219 l 392 1000 l 239 1000 l 353 1213 z "},"ś":{"ha":696,"x_min":50,"x_max":638,"o":"m 338 -10 q 50 60 147 -10 q 54 106 52 80 l 60 155 q 67 215 66 203 q 69 228 68 227 q 80 217 70 229 q 119 188 90 205 q 184 158 147 171 q 353 130 265 130 q 470 208 470 130 q 448 245 470 233 q 330 276 408 266 q 203 307 252 287 q 122 356 153 328 q 64 496 64 410 q 146 663 64 602 q 369 722 227 722 q 610 642 510 722 q 600 608 605 625 q 576 544 584 564 l 561 504 q 559 498 559 498 q 548 513 557 498 q 415 578 505 562 q 358 583 387 583 q 235 509 235 583 q 260 469 235 483 q 392 431 309 444 q 519 398 476 419 q 589 349 563 378 q 638 208 638 296 q 562 53 638 113 q 338 -10 481 -10 m 337 1019 q 554 1031 439 1019 l 553 1026 l 376 807 l 222 807 l 337 1019 z "},"Ŝ":{"ha":809,"x_min":87,"x_max":742,"o":"m 661 852 l 648 652 l 644 651 q 473 749 593 726 q 400 756 435 756 q 340 750 365 756 q 298 732 315 744 q 260 669 260 708 q 293 591 260 617 q 428 548 334 560 q 579 513 522 535 q 673 458 636 492 q 742 282 742 396 q 629 52 742 133 q 387 -17 533 -17 q 153 28 269 -17 q 87 62 115 43 l 94 289 l 97 291 q 373 146 181 146 q 553 212 509 146 q 568 261 568 234 q 559 307 568 289 q 530 338 551 325 q 398 372 491 363 q 246 406 305 381 q 152 466 187 430 q 88 648 88 531 q 173 843 88 768 q 405 919 259 919 q 661 852 551 919 m 336 999 q 157 997 190 999 l 155 999 l 319 1223 q 364 1221 336 1221 l 399 1221 l 481 1223 l 654 999 l 651 997 l 478 999 l 401 1119 l 336 999 z "},"ŝ":{"ha":696,"x_min":50,"x_max":638,"o":"m 338 -10 q 50 60 147 -10 q 54 106 52 80 l 60 155 q 67 215 66 203 q 69 228 68 227 q 80 217 70 229 q 119 188 90 205 q 184 158 147 171 q 353 130 265 130 q 470 208 470 130 q 448 245 470 233 q 330 276 408 266 q 203 307 252 287 q 122 356 153 328 q 64 496 64 410 q 146 663 64 602 q 369 722 227 722 q 610 642 510 722 q 600 608 605 625 q 576 544 584 564 l 561 504 q 559 498 559 498 q 548 513 557 498 q 415 578 505 562 q 358 583 387 583 q 235 509 235 583 q 260 469 235 483 q 392 431 309 444 q 519 398 476 419 q 589 349 563 378 q 638 208 638 296 q 562 53 638 113 q 338 -10 481 -10 m 279 806 q 100 804 133 806 l 98 806 l 262 1030 q 307 1028 279 1028 l 342 1028 l 424 1030 l 597 806 l 594 804 l 421 806 l 345 926 l 279 806 z "},"Ş":{"ha":809,"x_min":87,"x_max":742,"o":"m 485 -7 q 491 -105 491 -50 q 476 -197 491 -159 q 441 -245 460 -234 q 295 -293 401 -271 l 291 -289 q 335 -90 324 -241 q 338 -14 338 -49 q 140 33 231 -5 q 87 62 110 46 l 94 289 l 97 291 q 373 146 181 146 q 553 212 509 146 q 568 261 568 234 q 559 307 568 289 q 530 338 551 325 q 398 372 491 363 q 246 406 305 381 q 152 466 187 430 q 88 648 88 531 q 173 843 88 768 q 405 919 259 919 q 661 852 551 919 l 648 652 l 644 651 q 473 749 593 726 q 400 756 435 756 q 340 750 365 756 q 298 732 315 744 q 260 669 260 708 q 293 591 260 617 q 428 548 334 560 q 579 513 522 535 q 673 458 636 492 q 742 282 742 396 q 665 83 742 160 q 485 -7 599 15 z "},"ş":{"ha":696,"x_min":50,"x_max":638,"o":"m 281 -8 q 50 60 132 1 q 54 106 52 80 l 60 155 q 67 215 66 203 q 69 228 68 227 q 80 217 70 229 q 119 188 90 205 q 184 158 147 171 q 353 130 265 130 q 470 208 470 130 q 448 245 470 233 q 330 276 408 266 q 203 307 252 287 q 122 356 153 328 q 64 496 64 410 q 146 663 64 602 q 369 722 227 722 q 610 642 510 722 q 600 608 605 625 q 576 544 584 564 l 561 504 q 559 498 559 498 q 548 513 557 498 q 415 578 505 562 q 358 583 387 583 q 235 509 235 583 q 260 469 235 483 q 392 431 309 444 q 519 398 476 419 q 589 349 563 378 q 638 208 638 296 q 519 26 638 85 q 428 -3 479 6 q 434 -104 434 -49 q 419 -197 434 -159 q 384 -245 404 -234 q 238 -293 344 -271 l 234 -289 q 278 -84 267 -241 q 281 -8 281 -43 z "},"Š":{"ha":809,"x_min":87,"x_max":742,"o":"m 661 852 l 648 652 l 644 651 q 473 749 593 726 q 400 756 435 756 q 340 750 365 756 q 298 732 315 744 q 260 669 260 708 q 293 591 260 617 q 428 548 334 560 q 579 513 522 535 q 673 458 636 492 q 742 282 742 396 q 629 52 742 133 q 387 -17 533 -17 q 153 28 269 -17 q 87 62 115 43 l 94 289 l 97 291 q 373 146 181 146 q 553 212 509 146 q 568 261 568 234 q 559 307 568 289 q 530 338 551 325 q 398 372 491 363 q 246 406 305 381 q 152 466 187 430 q 88 648 88 531 q 173 843 88 768 q 405 919 259 919 q 661 852 551 919 m 399 928 l 364 928 q 319 926 336 928 l 155 1151 l 157 1153 q 336 1151 190 1151 l 401 1031 l 478 1151 l 651 1153 l 654 1151 l 481 926 l 399 928 z "},"š":{"ha":696,"x_min":50,"x_max":638,"o":"m 338 -10 q 50 60 147 -10 q 54 106 52 80 l 60 155 q 67 215 66 203 q 69 228 68 227 q 80 217 70 229 q 119 188 90 205 q 184 158 147 171 q 353 130 265 130 q 470 208 470 130 q 448 245 470 233 q 330 276 408 266 q 203 307 252 287 q 122 356 153 328 q 64 496 64 410 q 146 663 64 602 q 369 722 227 722 q 610 642 510 722 q 600 608 605 625 q 576 544 584 564 l 561 504 q 559 498 559 498 q 548 513 557 498 q 415 578 505 562 q 358 583 387 583 q 235 509 235 583 q 260 469 235 483 q 392 431 309 444 q 519 398 476 419 q 589 349 563 378 q 638 208 638 296 q 562 53 638 113 q 338 -10 481 -10 m 342 806 l 307 806 q 262 804 279 806 l 98 1028 l 100 1030 q 279 1028 133 1028 l 345 908 l 421 1028 l 594 1030 l 597 1028 l 424 804 l 342 806 z "},"Ţ":{"ha":696,"x_min":29,"x_max":667,"o":"m 442 -4 q 275 0 410 0 l 253 0 l 253 750 l 119 750 q 48 744 59 750 q 31 733 37 738 l 29 734 l 29 907 l 31 909 q 152 902 54 902 l 577 902 q 648 908 637 902 q 665 919 659 914 l 667 918 l 667 745 l 665 743 q 544 750 642 750 l 442 750 l 442 -4 m 235 -412 q 277 -261 277 -338 q 269 -130 277 -184 l 438 -102 l 444 -137 q 449 -215 449 -175 q 445 -280 449 -256 q 434 -323 441 -305 q 378 -378 418 -362 q 239 -416 335 -396 l 235 -412 z "},"ţ":{"ha":580,"x_min":42,"x_max":542,"o":"m 414 149 q 534 195 502 149 l 540 195 l 542 37 q 418 -7 509 4 q 358 -10 394 -10 q 279 3 321 -10 q 207 47 237 17 q 145 245 145 111 l 145 553 l 43 553 q 42 593 42 572 l 42 697 q 43 709 42 709 l 145 709 l 145 902 l 311 902 l 311 709 l 498 709 l 498 553 l 311 553 l 311 276 q 370 155 311 170 q 414 149 389 149 m 179 -412 q 220 -261 220 -338 q 213 -130 220 -184 l 382 -102 l 387 -137 q 393 -215 393 -175 q 389 -280 393 -256 q 378 -323 385 -305 q 322 -378 361 -362 q 183 -416 279 -396 l 179 -412 z "},"Ť":{"ha":696,"x_min":29,"x_max":667,"o":"m 442 -4 q 275 0 410 0 l 253 0 l 253 750 l 119 750 q 48 744 59 750 q 31 733 37 738 l 29 734 l 29 907 l 31 909 q 152 902 54 902 l 577 902 q 648 908 637 902 q 665 919 659 914 l 667 918 l 667 745 l 665 743 q 544 750 642 750 l 442 750 l 442 -4 m 342 928 l 308 928 q 263 926 279 928 l 99 1151 l 101 1153 q 279 1151 134 1151 l 345 1031 l 422 1151 l 595 1153 l 597 1151 l 425 926 l 342 928 z "},"ť":{"ha":717,"x_min":42,"x_max":727,"o":"m 414 149 q 534 195 502 149 l 540 195 l 542 37 q 418 -7 509 4 q 358 -10 394 -10 q 279 3 321 -10 q 207 47 237 17 q 145 245 145 111 l 145 553 l 43 553 q 42 593 42 572 l 42 697 q 43 709 42 709 l 145 709 l 145 902 l 311 902 l 311 709 l 498 709 l 498 553 l 311 553 l 311 276 q 370 155 311 170 q 414 149 389 149 m 720 980 q 727 872 727 909 q 725 802 727 836 q 718 741 722 768 q 694 673 708 683 q 637 655 677 663 l 562 640 l 557 644 q 568 766 568 663 l 568 833 q 564 953 568 902 l 720 980 z "},"Ŧ":{"ha":696,"x_min":29,"x_max":667,"o":"m 442 -4 q 275 0 410 0 l 253 0 l 253 440 l 115 440 l 117 458 q 120 491 120 480 q 120 513 120 501 q 119 537 119 526 l 117 559 q 116 576 117 570 l 253 576 l 253 750 l 119 750 q 48 744 59 750 q 31 733 37 738 l 29 734 l 29 907 l 31 909 q 152 902 54 902 l 577 902 q 648 908 637 902 q 665 919 659 914 l 667 918 l 667 745 l 665 743 q 544 750 642 750 l 442 750 l 442 576 l 572 576 q 570 514 570 542 l 570 479 q 572 440 570 475 l 442 440 l 442 -4 z "},"ŧ":{"ha":580,"x_min":37,"x_max":542,"o":"m 414 149 q 534 195 502 149 l 540 195 l 542 37 q 418 -7 509 4 q 358 -10 394 -10 q 279 3 321 -10 q 207 47 237 17 q 145 245 145 111 l 145 323 l 37 323 l 39 341 q 42 374 42 363 q 42 397 42 385 q 41 420 41 409 l 39 442 q 38 459 39 453 l 145 459 l 145 553 l 43 553 q 42 593 42 572 l 42 697 q 43 709 42 709 l 145 709 l 145 902 l 311 902 l 311 709 l 498 709 l 498 553 l 311 553 l 311 459 l 494 459 q 492 397 492 425 l 492 363 q 494 323 492 359 l 311 323 l 311 276 q 370 155 311 170 q 414 149 389 149 z "},"Ũ":{"ha":928,"x_min":111,"x_max":817,"o":"m 631 905 q 701 902 673 902 l 757 902 q 817 907 785 902 l 817 347 q 715 79 817 180 q 475 -17 620 -17 q 220 65 317 -17 q 111 331 111 157 l 111 905 q 217 902 167 902 q 299 907 267 902 l 299 322 q 351 189 299 237 q 473 146 400 146 q 618 257 582 146 q 631 356 631 297 l 631 905 m 353 1061 q 239 1010 289 1061 l 237 1011 l 234 1146 q 359 1200 280 1200 q 475 1163 422 1200 q 586 1126 529 1126 q 692 1183 667 1126 l 693 1182 l 686 1036 q 645 1002 675 1015 q 583 989 615 989 q 530 994 550 989 q 493 1008 510 1000 q 461 1025 476 1016 q 431 1042 447 1034 q 353 1061 393 1061 z "},"ũ":{"ha":809,"x_min":89,"x_max":698,"o":"m 524 62 q 335 -10 437 -10 q 163 64 225 -10 q 103 261 103 136 l 103 530 q 97 686 103 666 q 89 711 92 706 q 154 709 120 709 l 210 709 q 269 711 233 709 l 269 318 q 345 156 269 178 q 395 149 368 149 q 524 208 475 149 l 524 709 l 692 709 l 692 87 q 698 0 692 27 l 524 0 l 524 62 m 276 868 q 163 817 212 868 l 160 818 l 157 953 q 283 1007 203 1007 q 399 970 345 1007 q 509 933 452 933 q 615 990 590 933 l 616 989 l 610 842 q 568 809 598 822 q 506 795 538 795 q 453 801 473 795 q 416 814 433 806 q 385 832 399 823 q 354 849 370 841 q 276 868 316 868 z "},"Ū":{"ha":928,"x_min":111,"x_max":817,"o":"m 631 905 q 701 902 673 902 l 757 902 q 817 907 785 902 l 817 347 q 715 79 817 180 q 475 -17 620 -17 q 220 65 317 -17 q 111 331 111 157 l 111 905 q 217 902 167 902 q 299 907 267 902 l 299 322 q 351 189 299 237 q 473 146 400 146 q 618 257 582 146 q 631 356 631 297 l 631 905 m 696 1153 q 694 1101 694 1119 l 694 1078 q 696 1038 694 1073 l 239 1038 l 241 1055 q 244 1096 244 1078 q 240 1153 244 1114 l 696 1153 z "},"ū":{"ha":809,"x_min":89,"x_max":698,"o":"m 524 62 q 335 -10 437 -10 q 163 64 225 -10 q 103 261 103 136 l 103 530 q 97 686 103 666 q 89 711 92 706 q 154 709 120 709 l 210 709 q 269 711 233 709 l 269 318 q 345 156 269 178 q 395 149 368 149 q 524 208 475 149 l 524 709 l 692 709 l 692 87 q 698 0 692 27 l 524 0 l 524 62 m 616 1033 q 613 981 613 999 l 613 958 q 616 918 613 953 l 158 918 l 160 935 q 163 976 163 958 q 159 1033 163 994 l 616 1033 z "},"Ŭ":{"ha":928,"x_min":111,"x_max":817,"o":"m 631 905 q 701 902 673 902 l 757 902 q 817 907 785 902 l 817 347 q 715 79 817 180 q 475 -17 620 -17 q 220 65 317 -17 q 111 331 111 157 l 111 905 q 217 902 167 902 q 299 907 267 902 l 299 322 q 351 189 299 237 q 473 146 400 146 q 618 257 582 146 q 631 356 631 297 l 631 905 m 697 1225 q 704 1179 704 1218 q 690 1101 704 1139 q 647 1032 676 1063 q 463 964 581 964 q 279 1032 345 964 q 222 1178 222 1092 q 229 1225 222 1218 l 319 1223 q 345 1143 326 1169 q 463 1086 385 1086 q 579 1139 542 1086 q 607 1223 600 1169 l 697 1225 z "},"ŭ":{"ha":809,"x_min":89,"x_max":698,"o":"m 524 62 q 335 -10 437 -10 q 163 64 225 -10 q 103 261 103 136 l 103 530 q 97 686 103 666 q 89 711 92 706 q 154 709 120 709 l 210 709 q 269 711 233 709 l 269 318 q 345 156 269 178 q 395 149 368 149 q 524 208 475 149 l 524 709 l 692 709 l 692 87 q 698 0 692 27 l 524 0 l 524 62 m 621 1092 q 627 1046 627 1085 q 613 968 627 1006 q 570 899 600 930 q 387 831 505 831 q 203 899 269 831 q 146 1045 146 959 q 153 1092 146 1085 l 243 1090 q 268 1010 250 1036 q 387 954 308 954 q 503 1006 465 954 q 530 1090 524 1036 l 621 1092 z "},"Ů":{"ha":928,"x_min":111,"x_max":817,"o":"m 631 905 q 701 902 673 902 l 757 902 q 817 907 785 902 l 817 347 q 715 79 817 180 q 475 -17 620 -17 q 220 65 317 -17 q 111 331 111 157 l 111 905 q 217 902 167 902 q 299 907 267 902 l 299 322 q 351 189 299 237 q 473 146 400 146 q 618 257 582 146 q 631 356 631 297 l 631 905 m 459 927 q 384 938 418 927 q 326 969 350 949 q 274 1086 274 1012 q 325 1203 274 1158 q 469 1250 376 1250 q 602 1203 550 1250 q 652 1089 652 1158 q 598 970 652 1015 q 459 927 545 927 m 402 1043 q 407 1038 402 1043 q 428 1028 412 1034 q 461 1023 444 1023 q 494 1028 479 1023 q 519 1042 508 1033 q 543 1082 543 1062 q 537 1114 543 1102 q 522 1135 532 1126 q 470 1158 499 1158 q 425 1152 440 1158 q 401 1135 410 1145 q 382 1097 382 1117 q 387 1064 382 1076 q 402 1043 392 1052 z "},"ů":{"ha":809,"x_min":89,"x_max":698,"o":"m 524 62 q 335 -10 437 -10 q 163 64 225 -10 q 103 261 103 136 l 103 530 q 97 686 103 666 q 89 711 92 706 q 154 709 120 709 l 210 709 q 269 711 233 709 l 269 318 q 345 156 269 178 q 395 149 368 149 q 524 208 475 149 l 524 709 l 692 709 l 692 87 q 698 0 692 27 l 524 0 l 524 62 m 382 800 q 307 811 341 800 q 249 842 273 822 q 197 959 197 885 q 248 1077 197 1031 q 392 1123 300 1123 q 525 1076 473 1123 q 576 962 576 1031 q 522 844 576 888 q 382 800 469 800 m 326 916 q 331 911 326 916 q 351 901 336 907 q 385 896 367 896 q 417 901 403 896 q 442 916 431 906 q 466 955 466 935 q 461 987 466 975 q 446 1009 456 999 q 393 1031 422 1031 q 349 1025 363 1031 q 324 1009 334 1019 q 305 970 305 990 q 310 937 305 949 q 326 916 315 925 z "},"Ű":{"ha":928,"x_min":111,"x_max":817,"o":"m 631 905 q 701 902 673 902 l 757 902 q 817 907 785 902 l 817 347 q 715 79 817 180 q 475 -17 620 -17 q 220 65 317 -17 q 111 331 111 157 l 111 905 q 217 902 167 902 q 299 907 267 902 l 299 322 q 351 189 299 237 q 473 146 400 146 q 618 257 582 146 q 631 356 631 297 l 631 905 m 621 1226 q 790 1238 675 1226 l 789 1233 l 612 1014 l 506 1014 l 621 1226 m 359 1226 q 420 1229 395 1226 l 515 1238 l 515 1233 l 337 1014 l 245 1014 l 359 1226 z "},"ű":{"ha":809,"x_min":89,"x_max":713,"o":"m 524 62 q 335 -10 437 -10 q 163 64 225 -10 q 103 261 103 136 l 103 530 q 97 686 103 666 q 89 711 92 706 q 154 709 120 709 l 210 709 q 269 711 233 709 l 269 318 q 345 156 269 178 q 395 149 368 149 q 524 208 475 149 l 524 709 l 692 709 l 692 87 q 698 0 692 27 l 524 0 l 524 62 m 544 1019 q 713 1031 598 1019 l 713 1026 l 535 807 l 429 807 l 544 1019 m 283 1019 q 344 1021 318 1019 l 439 1031 l 438 1026 l 260 807 l 168 807 l 283 1019 z "},"Ų":{"ha":928,"x_min":111,"x_max":817,"o":"m 606 -219 q 646 -208 631 -219 l 647 -212 l 610 -376 q 407 -331 492 -376 q 303 -167 303 -275 q 378 -7 303 -81 q 132 197 191 31 q 111 331 111 255 l 111 905 q 217 902 167 902 q 299 907 267 902 l 299 322 q 351 189 299 237 q 473 146 400 146 q 618 257 582 146 q 631 356 631 297 l 631 905 q 701 902 673 902 l 742 902 q 817 907 785 902 l 817 347 q 714 77 817 178 q 662 35 682 46 q 637 22 642 24 l 624 15 q 597 1 615 10 q 554 -25 578 -7 q 510 -62 529 -43 q 469 -148 469 -106 q 606 -219 469 -219 z "},"ų":{"ha":809,"x_min":89,"x_max":698,"o":"m 442 10 q 337 -10 394 -10 q 236 9 279 -10 q 163 64 193 28 q 103 261 103 136 l 103 530 q 97 686 103 666 q 89 711 92 706 q 154 709 120 709 l 210 709 q 269 711 233 709 l 269 318 q 345 156 269 178 q 395 149 368 149 q 524 208 475 149 l 524 709 l 692 709 l 692 87 q 698 0 692 27 l 688 0 l 690 -2 q 563 -49 616 -2 q 514 -148 514 -93 q 650 -219 514 -219 q 690 -208 675 -219 l 692 -212 l 642 -376 q 375 -267 450 -376 q 348 -176 348 -227 q 442 10 348 -69 z "},"Ŵ":{"ha":1160,"x_min":5,"x_max":1147,"o":"m 439 -3 q 370 0 419 0 l 292 0 q 254 -1 269 0 l 253 0 q 256 11 256 5 q 255 24 256 17 q 249 48 254 31 q 236 99 245 66 l 5 905 q 111 902 49 902 q 191 907 172 902 l 351 294 l 507 905 q 525 903 517 904 l 540 903 q 596 902 562 902 q 666 907 630 902 l 825 294 l 961 905 q 1067 902 1002 902 q 1147 907 1133 902 l 952 192 q 913 45 915 68 q 911 14 911 22 q 913 -1 911 5 l 912 -3 q 844 0 890 0 q 770 0 803 0 q 722 -1 736 0 l 721 0 q 724 11 724 5 q 723 23 724 17 q 719 46 722 29 q 709 98 716 64 l 691 190 l 580 612 l 474 192 q 440 43 441 62 q 441 -1 437 5 l 439 -3 m 511 999 q 333 997 366 999 l 331 999 l 495 1223 q 540 1221 511 1221 l 574 1221 l 656 1223 l 829 999 l 827 997 l 654 999 l 577 1119 l 511 999 z "},"ŵ":{"ha":1041,"x_min":5,"x_max":1036,"o":"m 5 709 l 187 709 l 313 199 l 449 709 l 605 709 l 745 189 l 871 709 l 1036 709 l 827 0 l 651 0 l 517 465 l 392 0 l 218 0 l 5 709 m 452 806 q 273 804 306 806 l 271 806 l 435 1030 q 480 1028 452 1028 l 515 1028 l 597 1030 l 770 806 l 767 804 l 594 806 l 517 926 l 452 806 z "},"Ŷ":{"ha":809,"x_min":-5,"x_max":814,"o":"m 306 0 q 315 123 315 26 l 315 312 q 165 634 197 570 q 110 736 132 699 q 25 873 39 855 q -5 902 10 890 l 229 902 q 250 862 237 888 l 414 515 q 441 579 425 544 q 591 902 589 897 l 814 902 q 730 785 780 874 q 699 725 714 759 l 545 406 q 501 302 519 348 l 501 107 q 509 0 501 39 l 306 0 m 336 999 q 157 997 190 999 l 155 999 l 319 1223 q 364 1221 336 1221 l 399 1221 l 481 1223 l 654 999 l 651 997 l 478 999 l 401 1119 l 336 999 z "},"ŷ":{"ha":695,"x_min":18,"x_max":718,"o":"m 35 -236 l 79 -200 q 247 42 180 -118 l 278 117 l 18 709 l 208 709 l 371 299 l 522 709 l 718 709 q 631 527 682 660 l 530 275 q 210 -297 326 -205 l 35 -236 m 317 806 q 139 804 172 806 l 137 806 l 301 1030 q 346 1028 317 1028 l 380 1028 l 463 1030 l 635 806 l 633 804 l 460 806 l 383 926 l 317 806 z "},"Ÿ":{"ha":809,"x_min":-5,"x_max":814,"o":"m 306 0 q 315 123 315 26 l 315 312 q 165 634 197 570 q 110 736 132 699 q 25 873 39 855 q -5 902 10 890 l 229 902 q 250 862 237 888 l 414 515 q 441 579 425 544 q 591 902 589 897 l 814 902 q 730 785 780 874 q 699 725 714 759 l 545 406 q 501 302 519 348 l 501 107 q 509 0 501 39 l 306 0 m 640 1163 q 637 1077 637 1129 q 640 1000 637 1024 l 460 1000 q 466 1083 466 1042 q 462 1163 466 1124 l 640 1163 m 349 1163 q 346 1077 346 1129 q 349 1000 346 1024 l 169 1000 q 174 1083 174 1042 q 170 1163 174 1124 l 349 1163 z "},"Ź":{"ha":806,"x_min":62,"x_max":738,"o":"m 97 841 q 95 902 97 863 l 738 902 l 343 163 l 589 163 q 703 169 686 163 q 730 179 720 174 l 730 -10 q 682 -5 701 -7 q 642 -2 663 -3 q 519 0 610 0 l 62 0 l 471 739 l 257 739 q 89 725 125 739 q 97 821 97 759 l 97 841 m 349 1213 q 566 1224 451 1213 l 566 1219 l 388 1000 l 235 1000 l 349 1213 z "},"ź":{"ha":694,"x_min":38,"x_max":671,"o":"m 98 677 l 97 709 l 670 709 l 324 136 l 591 136 q 671 153 650 136 l 627 -10 q 555 -7 597 -8 l 471 -3 q 323 0 393 0 q 38 -10 170 0 l 393 576 l 224 576 q 96 558 146 576 q 98 640 98 611 l 98 677 m 337 1019 q 554 1031 439 1019 l 553 1026 l 376 807 l 222 807 l 337 1019 z "},"Ż":{"ha":806,"x_min":62,"x_max":738,"o":"m 97 841 q 95 902 97 863 l 738 902 l 343 163 l 589 163 q 703 169 686 163 q 730 179 720 174 l 730 -10 q 682 -5 701 -7 q 642 -2 663 -3 q 519 0 610 0 l 62 0 l 471 739 l 257 739 q 89 725 125 739 q 97 821 97 759 l 97 841 m 285 1097 q 386 1230 329 1168 l 515 1128 q 469 1068 481 1084 l 446 1035 q 421 1000 434 1019 l 285 1097 z "},"ż":{"ha":694,"x_min":38,"x_max":671,"o":"m 98 677 l 97 709 l 670 709 l 324 136 l 591 136 q 671 153 650 136 l 627 -10 q 555 -7 597 -8 l 471 -3 q 323 0 393 0 q 38 -10 170 0 l 393 576 l 224 576 q 96 558 146 576 q 98 640 98 611 l 98 677 m 232 906 q 333 1039 276 977 l 463 937 q 416 877 429 893 l 393 844 q 368 808 381 828 l 232 906 z "},"Ž":{"ha":806,"x_min":62,"x_max":738,"o":"m 97 841 q 95 902 97 863 l 738 902 l 343 163 l 589 163 q 703 169 686 163 q 730 179 720 174 l 730 -10 q 682 -5 701 -7 q 642 -2 663 -3 q 519 0 610 0 l 62 0 l 471 739 l 257 739 q 89 725 125 739 q 97 821 97 759 l 97 841 m 395 928 l 360 928 q 315 926 332 928 l 151 1151 l 153 1153 q 332 1151 186 1151 l 397 1031 l 474 1151 l 647 1153 l 650 1151 l 477 926 l 395 928 z "},"ž":{"ha":694,"x_min":38,"x_max":671,"o":"m 98 677 l 97 709 l 670 709 l 324 136 l 591 136 q 671 153 650 136 l 627 -10 q 555 -7 597 -8 l 471 -3 q 323 0 393 0 q 38 -10 170 0 l 393 576 l 224 576 q 96 558 146 576 q 98 640 98 611 l 98 677 m 342 806 l 307 806 q 262 804 279 806 l 98 1028 l 100 1030 q 279 1028 133 1028 l 345 908 l 421 1028 l 594 1030 l 597 1028 l 424 804 l 342 806 z "},"ƒ":{"ha":583,"x_min":60,"x_max":592,"o":"m 574 825 q 509 851 551 851 q 437 838 467 851 q 385 800 408 825 q 332 667 340 751 l 328 631 l 515 631 q 499 532 508 616 l 493 472 l 310 472 l 245 -115 l 79 -115 l 144 472 l 60 472 l 77 631 l 162 631 q 377 980 192 898 q 506 1007 439 1007 q 592 999 573 1007 l 575 829 l 574 825 z "},"Ǽ":{"ha":1157,"x_min":-10,"x_max":1093,"o":"m 189 -5 q 43 0 116 0 l -10 0 l 466 827 l 488 864 q 500 890 500 882 q 498 903 500 899 l 499 904 q 593 902 543 902 l 734 902 q 815 902 776 902 l 896 903 q 1077 907 985 904 q 1069 748 1069 848 q 1071 732 1069 737 l 1069 730 q 969 740 1034 740 l 745 740 l 745 567 l 922 567 q 1012 571 997 567 l 1014 404 q 930 407 981 407 l 745 407 l 745 163 l 1032 163 q 1090 171 1074 163 l 1093 170 l 1086 0 l 572 0 l 573 195 l 297 195 l 189 -5 m 574 358 l 577 717 l 385 358 l 574 358 m 699 1213 q 916 1224 800 1213 l 915 1219 l 737 1000 l 584 1000 l 699 1213 z "},"ǽ":{"ha":1273,"x_min":85,"x_max":1192,"o":"m 605 71 q 355 -10 500 -10 q 157 57 231 -10 q 85 225 85 123 q 186 412 85 337 q 444 489 289 489 q 475 487 464 489 q 332 583 450 583 q 186 526 253 583 q 149 488 165 509 l 147 489 l 127 646 q 367 722 224 722 q 591 621 511 722 q 867 722 694 722 q 1097 631 1004 722 q 1192 395 1192 539 q 1183 323 1192 355 q 901 302 1108 302 q 788 302 837 302 q 706 303 739 302 q 650 303 673 303 q 734 190 668 230 q 919 149 800 149 q 1126 221 1038 149 q 1116 43 1123 146 q 951 -6 1062 7 q 884 -10 917 -10 q 605 71 710 -10 m 663 452 q 707 450 682 451 l 756 450 q 804 450 781 450 l 841 450 q 917 450 879 450 l 979 452 q 1023 454 1004 453 q 907 558 1000 532 q 847 566 878 566 q 788 558 815 566 q 736 536 760 550 q 663 452 688 506 m 519 184 q 479 347 479 250 q 433 349 466 349 q 365 341 401 349 q 302 319 328 333 q 251 241 251 289 q 284 164 251 193 q 367 135 317 135 q 519 184 460 135 m 614 1019 q 831 1031 715 1019 l 830 1026 l 652 807 l 499 807 l 614 1019 z "},"Ș":{"ha":809,"x_min":87,"x_max":742,"o":"m 661 852 l 648 652 l 644 651 q 473 749 593 726 q 400 756 435 756 q 340 750 365 756 q 298 732 315 744 q 260 669 260 708 q 293 591 260 617 q 428 548 334 560 q 579 513 522 535 q 673 458 636 492 q 742 282 742 396 q 629 52 742 133 q 387 -17 533 -17 q 153 28 269 -17 q 87 62 115 43 l 94 289 l 97 291 q 373 146 181 146 q 553 212 509 146 q 568 261 568 234 q 559 307 568 289 q 530 338 551 325 q 398 372 491 363 q 246 406 305 381 q 152 466 187 430 q 88 648 88 531 q 173 843 88 768 q 405 919 259 919 q 661 852 551 919 m 292 -412 q 333 -261 333 -338 q 326 -130 333 -184 l 494 -102 l 500 -137 q 505 -215 505 -175 q 501 -280 505 -256 q 490 -323 497 -305 q 435 -378 474 -362 q 296 -416 391 -396 l 292 -412 z "},"ș":{"ha":696,"x_min":50,"x_max":638,"o":"m 338 -10 q 50 60 147 -10 q 54 106 52 80 l 60 155 q 67 215 66 203 q 69 228 68 227 q 80 217 70 229 q 119 188 90 205 q 184 158 147 171 q 353 130 265 130 q 470 208 470 130 q 448 245 470 233 q 330 276 408 266 q 203 307 252 287 q 122 356 153 328 q 64 496 64 410 q 146 663 64 602 q 369 722 227 722 q 610 642 510 722 q 600 608 605 625 q 576 544 584 564 l 561 504 q 559 498 559 498 q 548 513 557 498 q 415 578 505 562 q 358 583 387 583 q 235 509 235 583 q 260 469 235 483 q 392 431 309 444 q 519 398 476 419 q 589 349 563 378 q 638 208 638 296 q 562 53 638 113 q 338 -10 481 -10 m 235 -412 q 276 -261 276 -338 q 269 -130 276 -184 l 437 -102 l 443 -137 q 448 -215 448 -175 q 444 -280 448 -256 q 433 -323 440 -305 q 378 -378 417 -362 q 239 -416 334 -396 l 235 -412 z "},"ȷ":{"ha":349,"x_min":-97,"x_max":256,"o":"m -9 -105 q 90 44 90 -105 l 90 709 l 256 709 l 256 93 q 94 -244 256 -192 q -26 -261 41 -261 l -97 -83 l -96 -79 q -9 -105 -57 -105 z "},"ˆ":{"ha":640,"x_min":66,"x_max":564,"o":"m 246 806 q 68 804 100 806 l 66 806 l 230 1030 q 275 1028 246 1028 l 309 1028 l 391 1030 l 564 806 l 562 804 l 389 806 l 312 926 l 246 806 z "},"ˇ":{"ha":687,"x_min":94,"x_max":593,"o":"m 338 806 l 303 806 q 258 804 275 806 l 94 1028 l 96 1030 q 275 1028 129 1028 l 340 908 l 417 1028 l 590 1030 l 593 1028 l 420 804 l 338 806 z "},"˘":{"ha":829,"x_min":103,"x_max":585,"o":"m 578 1092 q 585 1046 585 1085 q 571 968 585 1006 q 528 899 557 930 q 344 831 462 831 q 160 899 226 831 q 103 1045 103 959 q 110 1092 103 1085 l 200 1090 q 225 1010 207 1036 q 344 954 265 954 q 460 1006 422 954 q 488 1090 481 1036 l 578 1092 z "},"˙":{"ha":458,"x_min":115,"x_max":345,"o":"m 115 906 q 216 1039 159 977 l 345 937 q 299 877 311 893 l 275 844 q 251 808 264 828 l 115 906 z "},"˚":{"ha":510,"x_min":66,"x_max":444,"o":"m 251 800 q 176 811 210 800 q 117 842 142 822 q 66 959 66 885 q 117 1077 66 1031 q 260 1123 168 1123 q 393 1076 342 1123 q 444 962 444 1031 q 390 844 444 888 q 251 800 337 800 m 194 916 q 199 911 194 916 q 220 901 204 907 q 253 896 235 896 q 286 901 271 896 q 311 916 300 906 q 334 955 334 935 q 329 987 334 975 q 314 1009 324 999 q 261 1031 291 1031 q 217 1025 232 1031 q 193 1009 202 1019 q 174 970 174 990 q 179 937 174 949 q 194 916 184 925 z "},"˛":{"ha":573,"x_min":90,"x_max":427,"o":"m 303 -203 q 312 -208 303 -203 q 342 -216 321 -212 q 387 -219 364 -219 q 425 -208 410 -219 l 427 -212 l 356 -376 q 173 -342 236 -376 q 90 -187 90 -295 q 136 -52 90 -121 q 182 0 154 -24 l 261 27 l 355 0 q 286 -79 315 -24 q 262 -143 262 -121 q 274 -180 262 -166 q 303 -203 285 -195 z "},"˜":{"ha":604,"x_min":79,"x_max":538,"o":"m 197 868 q 84 817 134 868 l 81 818 l 79 953 q 204 1007 125 1007 q 320 970 267 1007 q 431 933 374 933 q 536 990 511 933 l 538 989 l 531 842 q 490 809 519 822 q 427 795 460 795 q 375 801 395 795 q 338 814 355 806 q 306 832 321 823 q 275 849 292 841 q 197 868 237 868 z "},"˝":{"ha":687,"x_min":137,"x_max":682,"o":"m 513 1019 q 682 1031 567 1019 l 682 1026 l 504 807 l 398 807 l 513 1019 m 252 1019 q 313 1021 287 1019 l 408 1031 l 407 1026 l 229 807 l 137 807 l 252 1019 z "},"Δ":{"ha":1034,"x_min":100,"x_max":934,"o":"m 417 960 l 562 960 l 934 0 l 100 0 l 417 960 m 338 161 l 683 161 l 492 678 l 338 161 z "},"Ω":{"ha":1041,"x_min":109,"x_max":925,"o":"m 425 156 q 433 133 425 156 q 441 71 441 111 q 422 -10 441 31 l 109 -10 l 111 151 q 200 146 126 146 l 254 146 q 215 210 239 178 q 168 283 191 242 q 113 517 113 385 q 217 804 113 699 q 498 907 319 907 q 764 799 662 907 q 866 517 866 690 q 783 209 866 351 q 753 146 764 178 q 853 146 799 146 q 923 151 907 146 l 925 -10 l 602 -10 q 581 87 581 41 q 589 166 581 134 q 608 231 597 199 q 633 293 619 262 q 658 355 646 324 q 684 497 684 431 q 670 612 684 563 q 630 692 656 662 q 489 745 583 745 q 279 488 279 745 q 360 281 279 410 q 425 156 409 202 z "},"π":{"ha":928,"x_min":90,"x_max":844,"o":"m 720 76 q 723 0 720 18 l 554 0 l 554 566 l 376 566 q 289 39 362 185 q 272 11 279 18 q 265 0 265 3 l 97 0 q 203 422 187 205 q 210 566 208 490 l 90 566 l 92 583 q 96 638 96 606 q 92 708 96 671 l 844 708 q 842 643 842 674 l 842 605 q 844 566 842 601 l 720 566 l 720 76 z "},"Ḃ":{"ha":812,"x_min":117,"x_max":782,"o":"m 687 66 q 662 46 687 66 q 557 5 637 26 q 362 -17 478 -17 q 117 4 247 -17 l 117 898 q 345 919 248 919 q 504 901 441 919 q 605 851 566 882 q 682 695 682 791 q 612 536 682 599 q 741 438 695 510 q 782 295 782 374 q 759 161 782 217 q 687 66 736 106 m 296 561 q 368 556 325 556 q 438 567 410 556 q 480 595 465 578 q 505 673 505 623 q 382 777 505 777 q 296 772 331 777 l 296 561 m 397 416 q 296 408 340 416 l 296 142 q 396 130 344 130 q 488 142 448 130 q 555 176 528 155 q 610 290 610 221 q 397 416 610 416 m 351 1097 q 452 1230 395 1168 l 581 1128 q 535 1068 547 1084 l 511 1035 q 487 1000 500 1019 l 351 1097 z "},"ḃ":{"ha":805,"x_min":103,"x_max":756,"o":"m 269 683 q 425 722 345 722 q 561 697 504 722 q 662 627 618 673 q 756 368 756 524 q 654 91 756 196 q 409 -10 555 -10 q 197 57 280 -10 q 103 267 103 133 l 103 1009 l 269 1009 l 269 683 m 269 269 q 418 149 269 149 q 540 213 490 149 q 590 375 590 278 q 537 522 590 473 q 410 566 490 566 q 303 534 361 566 q 269 511 285 524 l 269 269 m 361 906 q 463 1039 406 977 l 592 937 q 546 877 558 893 l 522 844 q 498 808 511 828 l 361 906 z "},"Ḋ":{"ha":925,"x_min":130,"x_max":842,"o":"m 336 -17 q 130 1 227 -17 l 130 908 q 337 919 219 919 q 552 887 456 919 q 712 795 648 854 q 842 460 842 675 q 697 95 842 220 q 336 -17 567 -17 m 306 149 q 394 140 350 140 q 489 158 438 140 q 577 212 540 175 q 657 437 657 289 q 480 735 657 680 q 345 753 422 753 l 327 753 q 306 753 317 753 l 306 149 m 373 1097 q 474 1230 417 1168 l 604 1128 q 557 1068 570 1084 l 534 1035 q 509 1000 522 1019 l 373 1097 z "},"ḋ":{"ha":812,"x_min":60,"x_max":770,"o":"m 586 38 q 414 -10 500 -10 q 263 17 328 -10 q 153 92 199 44 q 60 345 60 189 q 168 614 60 507 q 448 722 277 722 q 550 709 500 722 l 550 1010 l 716 1010 l 716 286 q 725 168 716 195 q 744 127 733 140 q 770 102 754 114 l 643 -10 q 586 38 608 9 m 446 146 q 550 168 503 146 l 550 543 q 447 563 503 563 q 352 548 391 563 q 283 507 312 533 q 224 362 224 451 q 278 208 224 265 q 446 146 336 146 m 231 906 q 332 1039 275 977 l 461 937 q 415 877 427 893 l 391 844 q 367 808 380 828 l 231 906 z "},"Ḟ":{"ha":693,"x_min":117,"x_max":635,"o":"m 592 390 q 508 393 559 393 l 302 393 l 302 0 l 117 0 l 117 907 q 159 905 135 905 l 209 903 q 316 902 260 902 q 635 907 483 902 q 627 748 627 848 q 629 732 627 737 l 627 730 q 527 740 591 740 l 302 740 l 302 553 l 500 553 q 590 557 575 553 l 592 390 m 274 1097 q 375 1230 318 1168 l 505 1128 q 458 1068 471 1084 l 435 1035 q 410 1000 423 1019 l 274 1097 z "},"ḟ":{"ha":464,"x_min":3,"x_max":476,"o":"m 438 631 q 433 532 433 611 l 433 472 l 269 472 l 269 0 l 103 0 l 103 472 l 3 472 q 5 551 4 517 l 6 624 l 6 631 l 103 631 l 103 673 q 179 935 103 836 q 397 1037 258 1037 q 475 1029 456 1037 l 476 859 l 475 855 q 409 881 449 881 q 345 868 370 881 q 304 830 321 854 q 269 696 269 781 l 269 631 l 438 631 m 23 1107 q 124 1240 67 1178 l 254 1138 q 208 1078 220 1095 l 184 1045 q 159 1010 172 1029 l 23 1107 z "},"Ṁ":{"ha":1044,"x_min":120,"x_max":924,"o":"m 300 -4 q 174 0 267 0 l 120 0 l 120 905 q 216 902 163 902 q 290 907 268 902 l 517 520 l 736 907 q 819 902 758 902 q 924 905 880 902 l 924 0 l 869 0 q 744 -4 777 0 l 744 604 l 522 207 l 300 572 l 300 -4 m 406 1097 q 507 1230 450 1168 l 637 1128 q 591 1068 603 1084 l 567 1035 q 543 1000 555 1019 l 406 1097 z "},"ṁ":{"ha":1160,"x_min":111,"x_max":1085,"o":"m 283 196 q 288 0 283 43 l 111 0 l 111 709 l 283 709 l 283 648 q 473 722 376 722 q 641 623 589 722 q 728 693 693 676 q 843 722 785 722 q 942 703 901 722 q 1009 647 983 683 q 1063 448 1063 574 l 1063 178 q 1066 40 1063 63 q 1075 10 1069 17 q 1085 -2 1081 3 l 1084 -5 q 1004 0 1029 0 l 953 0 q 891 -2 928 0 l 891 365 q 842 553 891 524 q 804 563 826 563 q 765 558 782 563 q 733 541 748 553 q 676 469 708 523 q 677 458 677 464 q 677 279 677 453 q 685 0 677 106 q 587 0 627 0 q 510 -2 547 0 l 510 366 q 497 509 510 476 q 469 553 484 543 q 432 563 454 563 q 283 477 342 563 l 283 196 m 498 906 q 600 1039 543 977 l 729 937 q 683 877 695 893 l 659 844 q 635 808 648 828 l 498 906 z "},"Ṗ":{"ha":696,"x_min":104,"x_max":673,"o":"m 104 907 q 297 919 198 919 q 577 832 481 919 q 673 574 673 746 q 568 330 673 420 q 315 246 470 246 q 277 248 298 246 l 277 0 l 104 0 l 104 907 m 317 755 q 277 754 297 755 l 277 397 q 330 395 298 395 q 395 408 361 395 q 452 445 429 421 q 500 575 500 494 q 317 755 500 755 m 233 1097 q 334 1230 277 1168 l 463 1128 q 417 1068 429 1084 l 393 1035 q 369 1000 382 1019 l 233 1097 z "},"ṗ":{"ha":809,"x_min":110,"x_max":766,"o":"m 276 14 l 276 -185 q 279 -261 276 -243 l 110 -261 l 110 709 l 276 709 l 276 665 q 433 722 358 722 q 567 701 509 722 q 669 636 625 680 q 766 363 766 541 q 711 154 766 246 q 582 29 665 76 q 423 -12 509 -12 q 276 14 338 -12 m 276 185 q 410 142 328 142 q 583 271 544 142 q 597 366 597 315 q 587 447 597 416 q 563 499 578 477 q 528 535 547 521 q 490 559 509 550 q 418 574 455 574 q 342 557 382 574 q 276 512 303 541 l 276 185 m 323 906 q 424 1039 367 977 l 553 937 q 507 877 519 893 l 484 844 q 459 808 472 828 l 323 906 z "},"Ṡ":{"ha":809,"x_min":87,"x_max":742,"o":"m 661 852 l 648 652 l 644 651 q 473 749 593 726 q 400 756 435 756 q 340 750 365 756 q 298 732 315 744 q 260 669 260 708 q 293 591 260 617 q 428 548 334 560 q 579 513 522 535 q 673 458 636 492 q 742 282 742 396 q 629 52 742 133 q 387 -17 533 -17 q 153 28 269 -17 q 87 62 115 43 l 94 289 l 97 291 q 373 146 181 146 q 553 212 509 146 q 568 261 568 234 q 559 307 568 289 q 530 338 551 325 q 398 372 491 363 q 246 406 305 381 q 152 466 187 430 q 88 648 88 531 q 173 843 88 768 q 405 919 259 919 q 661 852 551 919 m 289 1097 q 390 1230 333 1168 l 519 1128 q 473 1068 486 1084 l 450 1035 q 425 1000 438 1019 l 289 1097 z "},"ṡ":{"ha":696,"x_min":50,"x_max":638,"o":"m 338 -10 q 50 60 147 -10 q 54 106 52 80 l 60 155 q 67 215 66 203 q 69 228 68 227 q 80 217 70 229 q 119 188 90 205 q 184 158 147 171 q 353 130 265 130 q 470 208 470 130 q 448 245 470 233 q 330 276 408 266 q 203 307 252 287 q 122 356 153 328 q 64 496 64 410 q 146 663 64 602 q 369 722 227 722 q 610 642 510 722 q 600 608 605 625 q 576 544 584 564 l 561 504 q 559 498 559 498 q 548 513 557 498 q 415 578 505 562 q 358 583 387 583 q 235 509 235 583 q 260 469 235 483 q 392 431 309 444 q 519 398 476 419 q 589 349 563 378 q 638 208 638 296 q 562 53 638 113 q 338 -10 481 -10 m 232 906 q 333 1039 276 977 l 463 937 q 416 877 429 893 l 393 844 q 368 808 381 828 l 232 906 z "},"Ṫ":{"ha":696,"x_min":29,"x_max":667,"o":"m 442 -4 q 275 0 410 0 l 253 0 l 253 750 l 119 750 q 48 744 59 750 q 31 733 37 738 l 29 734 l 29 907 l 31 909 q 152 902 54 902 l 577 902 q 648 908 637 902 q 665 919 659 914 l 667 918 l 667 745 l 665 743 q 544 750 642 750 l 442 750 l 442 -4 m 233 1097 q 334 1230 277 1168 l 463 1128 q 417 1068 429 1084 l 393 1035 q 369 1000 382 1019 l 233 1097 z "},"ṫ":{"ha":580,"x_min":42,"x_max":542,"o":"m 414 149 q 534 195 502 149 l 540 195 l 542 37 q 418 -7 509 4 q 358 -10 394 -10 q 279 3 321 -10 q 207 47 237 17 q 145 245 145 111 l 145 553 l 43 553 q 42 593 42 572 l 42 697 q 43 709 42 709 l 145 709 l 145 902 l 311 902 l 311 709 l 498 709 l 498 553 l 311 553 l 311 276 q 370 155 311 170 q 414 149 389 149 m 110 1021 q 211 1154 154 1092 l 340 1052 q 294 992 307 1008 l 271 959 q 246 924 259 943 l 110 1021 z "},"Ẁ":{"ha":1160,"x_min":5,"x_max":1147,"o":"m 439 -3 q 370 0 419 0 l 292 0 q 254 -1 269 0 l 253 0 q 256 11 256 5 q 255 24 256 17 q 249 48 254 31 q 236 99 245 66 l 5 905 q 111 902 49 902 q 191 907 172 902 l 351 294 l 507 905 q 525 903 517 904 l 540 903 q 596 902 562 902 q 666 907 630 902 l 825 294 l 961 905 q 1067 902 1002 902 q 1147 907 1133 902 l 952 192 q 913 45 915 68 q 911 14 911 22 q 913 -1 911 5 l 912 -3 q 844 0 890 0 q 770 0 803 0 q 722 -1 736 0 l 721 0 q 724 11 724 5 q 723 23 724 17 q 719 46 722 29 q 709 98 716 64 l 691 190 l 580 612 l 474 192 q 440 43 441 62 q 441 -1 437 5 l 439 -3 m 414 1224 q 631 1213 530 1213 l 746 1000 l 593 1000 l 415 1219 l 414 1224 z "},"ẁ":{"ha":1041,"x_min":5,"x_max":1036,"o":"m 5 709 l 187 709 l 313 199 l 449 709 l 605 709 l 745 189 l 871 709 l 1036 709 l 827 0 l 651 0 l 517 465 l 392 0 l 218 0 l 5 709 m 314 1031 q 531 1019 429 1019 l 646 807 l 492 807 l 315 1026 l 314 1031 z "},"Ẃ":{"ha":1160,"x_min":5,"x_max":1147,"o":"m 439 -3 q 370 0 419 0 l 292 0 q 254 -1 269 0 l 253 0 q 256 11 256 5 q 255 24 256 17 q 249 48 254 31 q 236 99 245 66 l 5 905 q 111 902 49 902 q 191 907 172 902 l 351 294 l 507 905 q 525 903 517 904 l 540 903 q 596 902 562 902 q 666 907 630 902 l 825 294 l 961 905 q 1067 902 1002 902 q 1147 907 1133 902 l 952 192 q 913 45 915 68 q 911 14 911 22 q 913 -1 911 5 l 912 -3 q 844 0 890 0 q 770 0 803 0 q 722 -1 736 0 l 721 0 q 724 11 724 5 q 723 23 724 17 q 719 46 722 29 q 709 98 716 64 l 691 190 l 580 612 l 474 192 q 440 43 441 62 q 441 -1 437 5 l 439 -3 m 529 1213 q 746 1224 631 1213 l 745 1219 l 568 1000 l 414 1000 l 529 1213 z "},"ẃ":{"ha":1041,"x_min":5,"x_max":1036,"o":"m 5 709 l 187 709 l 313 199 l 449 709 l 605 709 l 745 189 l 871 709 l 1036 709 l 827 0 l 651 0 l 517 465 l 392 0 l 218 0 l 5 709 m 510 1019 q 727 1031 612 1019 l 726 1026 l 549 807 l 395 807 l 510 1019 z "},"Ẅ":{"ha":1160,"x_min":5,"x_max":1147,"o":"m 439 -3 q 370 0 419 0 l 292 0 q 254 -1 269 0 l 253 0 q 256 11 256 5 q 255 24 256 17 q 249 48 254 31 q 236 99 245 66 l 5 905 q 111 902 49 902 q 191 907 172 902 l 351 294 l 507 905 q 525 903 517 904 l 540 903 q 596 902 562 902 q 666 907 630 902 l 825 294 l 961 905 q 1067 902 1002 902 q 1147 907 1133 902 l 952 192 q 913 45 915 68 q 911 14 911 22 q 913 -1 911 5 l 912 -3 q 844 0 890 0 q 770 0 803 0 q 722 -1 736 0 l 721 0 q 724 11 724 5 q 723 23 724 17 q 719 46 722 29 q 709 98 716 64 l 691 190 l 580 612 l 474 192 q 440 43 441 62 q 441 -1 437 5 l 439 -3 m 816 1163 q 813 1077 813 1129 q 816 1000 813 1024 l 636 1000 q 642 1083 642 1042 q 637 1163 642 1124 l 816 1163 m 524 1163 q 522 1077 522 1129 q 524 1000 522 1024 l 345 1000 q 350 1083 350 1042 q 346 1163 350 1124 l 524 1163 z "},"ẅ":{"ha":1041,"x_min":5,"x_max":1036,"o":"m 5 709 l 187 709 l 313 199 l 449 709 l 605 709 l 745 189 l 871 709 l 1036 709 l 827 0 l 651 0 l 517 465 l 392 0 l 218 0 l 5 709 m 756 970 q 753 883 753 936 q 756 807 753 831 l 576 807 q 582 890 582 849 q 578 970 582 931 l 756 970 m 465 970 q 462 883 462 936 q 465 807 462 831 l 285 807 q 290 890 290 849 q 286 970 290 931 l 465 970 z "},"Ỳ":{"ha":809,"x_min":-5,"x_max":814,"o":"m 306 0 q 315 123 315 26 l 315 312 q 165 634 197 570 q 110 736 132 699 q 25 873 39 855 q -5 902 10 890 l 229 902 q 250 862 237 888 l 414 515 q 441 579 425 544 q 591 902 589 897 l 814 902 q 730 785 780 874 q 699 725 714 759 l 545 406 q 501 302 519 348 l 501 107 q 509 0 501 39 l 306 0 m 239 1224 q 456 1213 354 1213 l 570 1000 l 417 1000 l 239 1219 l 239 1224 z "},"ỳ":{"ha":695,"x_min":18,"x_max":718,"o":"m 35 -236 l 79 -200 q 247 42 180 -118 l 278 117 l 18 709 l 208 709 l 371 299 l 522 709 l 718 709 q 631 527 682 660 l 530 275 q 210 -297 326 -205 l 35 -236 m 180 1031 q 397 1019 295 1019 l 511 807 l 358 807 l 180 1026 l 180 1031 z "},"–":{"ha":918,"x_min":108,"x_max":807,"o":"m 192 339 q 108 336 140 339 l 110 503 q 199 499 125 499 l 715 499 q 805 503 789 499 l 807 336 q 723 339 774 339 l 192 339 z "},"—":{"ha":1149,"x_min":110,"x_max":1038,"o":"m 194 339 q 110 336 142 339 l 112 503 q 201 499 127 499 l 946 499 q 1036 503 1020 499 l 1038 336 q 954 339 1005 339 l 194 339 z "},"‘":{"ha":464,"x_min":134,"x_max":330,"o":"m 141 619 q 134 727 134 690 q 136 797 134 763 q 142 858 138 831 q 167 926 153 916 q 326 973 200 947 l 330 969 q 306 766 306 929 q 310 646 306 697 l 141 619 z "},"’":{"ha":464,"x_min":134,"x_max":330,"o":"m 323 980 q 330 872 330 909 q 328 802 330 836 q 321 741 326 768 q 297 673 311 683 q 138 626 263 652 l 134 630 q 158 833 158 675 q 154 953 158 902 l 323 980 z "},"‚":{"ha":464,"x_min":134,"x_max":330,"o":"m 323 149 q 330 42 330 79 q 328 -28 330 5 q 321 -90 326 -62 q 297 -157 311 -148 q 138 -205 264 -178 l 134 -201 q 158 2 158 -155 q 154 122 158 71 l 323 149 z "},"“":{"ha":696,"x_min":97,"x_max":599,"o":"m 574 755 q 578 653 574 704 l 410 626 q 402 733 402 697 q 405 804 402 770 q 411 865 407 838 q 435 932 421 923 q 595 980 469 954 l 599 976 q 574 755 574 936 m 269 755 q 273 653 269 704 l 104 626 q 97 733 97 697 q 99 804 97 770 q 106 865 102 838 q 130 932 116 923 q 290 980 163 954 l 294 976 q 269 755 269 936 z "},"”":{"ha":696,"x_min":97,"x_max":599,"o":"m 121 850 q 117 953 121 902 l 286 980 q 294 872 294 909 q 291 802 294 836 q 285 741 289 768 q 260 673 275 683 q 101 626 227 652 l 97 630 q 121 850 121 670 m 427 850 q 422 953 427 902 l 591 980 q 599 872 599 909 q 596 802 599 836 q 590 741 594 768 q 566 673 580 683 q 406 626 532 652 l 402 630 q 427 850 427 670 z "},"„":{"ha":696,"x_min":115,"x_max":581,"o":"m 304 150 q 311 42 311 79 q 309 -28 311 6 q 302 -89 307 -62 q 278 -157 292 -147 q 119 -204 244 -178 l 115 -200 q 139 3 139 -155 q 135 123 139 72 l 304 150 m 574 150 q 581 42 581 79 q 579 -28 581 6 q 572 -89 576 -62 q 548 -157 562 -147 q 389 -204 514 -178 l 385 -200 q 409 3 409 -155 q 405 123 409 72 l 574 150 z "},"†":{"ha":580,"x_min":90,"x_max":490,"o":"m 201 -170 q 203 -89 203 -126 l 203 549 l 174 549 q 90 545 123 549 l 92 713 q 182 709 107 709 l 203 709 l 203 887 q 200 970 203 902 l 380 970 q 376 846 376 902 l 376 709 l 398 709 q 488 713 472 709 l 490 545 q 406 549 457 549 l 376 549 l 376 -94 q 379 -170 376 -152 l 201 -170 z "},"‡":{"ha":580,"x_min":90,"x_max":490,"o":"m 174 185 q 90 182 123 185 l 92 349 q 182 345 107 345 l 203 345 l 203 549 l 174 549 q 90 545 123 549 l 92 713 q 182 709 107 709 l 203 709 l 203 887 q 200 970 203 902 l 380 970 q 376 846 376 902 l 376 709 l 398 709 q 488 713 472 709 l 490 545 q 406 549 457 549 l 376 549 l 376 345 l 398 345 q 488 349 472 345 l 490 182 q 406 185 457 185 l 376 185 l 376 -94 q 379 -170 376 -152 l 201 -170 q 203 -89 203 -126 l 203 185 l 174 185 z "},"•":{"ha":583,"x_min":110,"x_max":473,"o":"m 294 325 q 224 336 257 325 q 165 368 191 347 q 110 482 110 413 q 159 593 110 547 q 289 641 210 641 q 423 591 370 641 q 473 484 473 545 q 420 367 473 412 q 294 325 370 325 z "},"…":{"ha":1038,"x_min":74,"x_max":964,"o":"m 960 109 q 960 60 960 96 q 964 0 960 24 l 766 0 q 772 73 772 41 q 771 117 772 105 q 770 140 771 129 q 769 162 770 152 l 767 179 l 964 179 q 962 137 962 153 l 960 109 m 614 109 q 614 60 614 96 q 618 0 614 24 l 420 0 q 426 73 426 41 q 426 117 426 105 q 425 140 425 129 q 423 162 424 152 l 421 179 l 618 179 q 616 137 616 153 l 614 109 m 269 109 q 269 60 269 96 q 272 0 269 24 l 74 0 q 80 73 80 41 q 80 117 80 105 q 79 140 79 129 q 77 162 78 152 l 75 179 l 272 179 q 270 137 270 153 l 269 109 z "},"‰":{"ha":2195,"x_min":110,"x_max":2072,"o":"m 383 415 q 273 433 322 415 q 187 484 223 452 q 110 663 110 555 q 180 837 110 764 q 394 919 259 919 q 593 842 517 919 q 664 668 664 770 q 586 491 664 564 q 383 415 505 415 m 922 902 l 1088 902 l 580 0 l 414 0 l 922 902 m 391 553 q 447 563 422 553 q 488 589 471 572 q 524 670 524 621 q 488 749 524 715 q 387 785 450 785 q 288 749 326 785 q 253 668 253 717 q 289 589 253 621 q 391 553 328 553 m 1518 227 q 1536 322 1518 277 q 1588 405 1553 368 q 1803 487 1668 487 q 2002 410 1926 487 q 2072 236 2072 338 q 1995 59 2072 132 q 1788 -17 1914 -17 q 1596 53 1672 -17 q 1518 227 1518 123 m 857 227 q 874 322 857 277 q 926 405 891 368 q 1141 487 1006 487 q 1340 410 1264 487 q 1411 236 1411 338 q 1333 59 1411 132 q 1126 -17 1252 -17 q 934 53 1010 -17 q 857 227 857 123 m 1662 236 q 1671 192 1662 213 q 1698 156 1681 172 q 1801 121 1737 121 q 1898 156 1860 121 q 1933 237 1933 189 q 1898 316 1933 283 q 1796 352 1860 352 q 1697 317 1735 352 q 1662 236 1662 284 m 1000 236 q 1009 192 1000 213 q 1036 156 1019 172 q 1139 121 1075 121 q 1236 156 1198 121 q 1272 237 1272 189 q 1236 316 1272 283 q 1135 352 1198 352 q 1035 317 1073 352 q 1000 236 1000 284 z "},"‹":{"ha":580,"x_min":123,"x_max":452,"o":"m 142 304 q 123 351 123 338 q 139 404 123 374 l 275 621 l 448 621 l 294 357 l 452 95 l 279 95 l 142 304 z "},"›":{"ha":577,"x_min":130,"x_max":459,"o":"m 440 411 q 459 365 459 378 q 444 312 459 342 l 307 95 l 134 95 l 288 358 l 130 621 l 303 621 l 440 411 z "},"⁄":{"ha":918,"x_min":121,"x_max":796,"o":"m 630 902 l 796 902 l 288 0 l 121 0 l 630 902 z "},"€":{"ha":1041,"x_min":55,"x_max":906,"o":"m 906 76 q 621 -17 794 -17 q 335 69 451 -17 q 182 298 220 154 l 55 298 l 96 431 l 164 431 l 164 440 q 168 502 164 463 l 56 502 l 98 635 l 201 635 q 381 843 258 767 q 664 919 506 919 q 892 868 789 919 l 844 693 l 842 693 q 660 756 780 756 q 503 724 570 756 q 393 635 435 691 l 665 635 q 755 639 739 635 l 716 498 q 632 502 684 502 l 340 502 q 337 464 337 481 l 337 442 q 338 431 337 437 l 610 431 q 700 435 685 431 l 654 295 q 570 298 622 298 l 370 298 q 564 154 427 182 q 641 146 604 146 q 716 154 677 146 q 789 179 754 163 q 904 271 864 214 l 906 269 l 906 76 z "},"™":{"ha":1505,"x_min":49,"x_max":1455,"o":"m 412 330 l 279 332 l 271 332 l 271 790 l 138 790 q 50 775 64 790 q 50 801 49 775 q 51 852 51 827 q 51 888 51 878 q 50 910 50 899 q 169 903 73 903 l 528 903 q 597 908 588 903 q 611 918 607 913 l 611 909 l 612 886 q 610 782 612 839 q 496 790 602 790 l 412 790 l 412 330 m 857 326 q 718 329 835 329 l 718 904 q 747 903 739 903 l 768 903 q 860 906 825 903 l 1084 548 l 1297 906 q 1351 903 1318 903 q 1415 903 1389 903 q 1455 904 1440 903 l 1455 329 q 1317 326 1351 329 l 1317 685 l 1087 313 l 857 661 l 857 326 z "},"∂":{"ha":809,"x_min":60,"x_max":715,"o":"m 108 909 q 271 922 184 922 q 434 892 359 922 q 561 815 510 863 q 643 706 612 768 q 689 580 673 644 q 715 370 715 477 q 688 198 715 263 q 616 87 661 134 q 382 -10 519 -10 q 151 82 243 -10 q 60 300 60 172 q 158 541 60 454 q 378 621 245 621 q 511 575 444 621 q 423 721 481 672 q 243 779 353 779 q 136 768 199 779 l 108 909 m 543 336 q 517 392 538 361 q 476 437 496 423 q 371 461 439 461 q 277 419 313 461 q 240 308 240 377 q 281 195 240 240 q 395 149 323 149 q 532 251 495 149 q 543 336 544 286 z "},"∏":{"ha":928,"x_min":136,"x_max":777,"o":"m 310 -115 q 159 -111 277 -111 l 137 -111 l 137 741 l 136 741 l 137 891 l 137 904 l 775 904 l 777 741 l 774 741 l 774 -115 q 649 -111 742 -111 l 602 -111 l 602 741 l 310 741 l 310 -115 z "},"∑":{"ha":928,"x_min":140,"x_max":777,"o":"m 142 -117 q 145 -45 145 -74 q 140 5 145 -17 l 458 393 l 140 770 q 145 826 145 792 q 142 903 145 860 l 773 903 q 777 758 773 790 l 378 758 l 677 400 l 392 28 l 777 28 q 773 -117 773 -4 l 142 -117 z "},"−":{"ha":689,"x_min":121,"x_max":568,"o":"m 205 339 q 121 336 153 339 l 123 503 q 212 499 138 499 l 476 499 q 566 503 551 499 l 568 336 q 484 339 535 339 l 205 339 z "},"√":{"ha":922,"x_min":29,"x_max":939,"o":"m 213 705 q 302 709 288 705 l 473 246 l 751 1249 l 939 1249 l 543 0 l 403 0 l 172 545 l 113 545 q 29 541 62 545 l 31 709 q 121 705 46 705 l 213 705 z "},"∞":{"ha":1265,"x_min":149,"x_max":1116,"o":"m 856 136 q 615 264 694 136 q 479 151 564 179 q 433 143 455 143 q 217 252 296 143 q 149 481 149 346 q 242 734 149 645 q 406 807 318 807 q 531 787 492 807 q 598 743 571 768 q 653 677 625 718 q 796 799 704 772 q 865 807 825 807 q 951 789 904 807 q 1034 731 998 770 q 1116 488 1116 645 q 1039 227 1116 324 q 856 136 966 136 m 715 534 q 845 309 769 309 q 917 353 888 309 q 946 477 946 396 q 917 604 946 558 q 840 648 888 650 q 715 534 769 646 m 319 489 q 456 315 319 315 q 511 333 488 315 q 553 392 534 351 q 540 440 547 414 q 522 496 533 467 l 503 552 q 463 623 484 607 q 420 638 441 638 q 381 627 399 638 q 349 597 363 616 q 319 489 319 553 z "},"∫":{"ha":583,"x_min":66,"x_max":497,"o":"m 68 -164 q 157 -190 109 -190 q 243 -77 243 -190 q 241 -41 243 -60 l 161 869 q 157 973 157 912 q 174 1085 157 1034 q 231 1166 192 1136 q 481 1223 302 1223 l 497 1045 l 496 1042 q 408 1067 454 1067 q 321 955 321 1067 q 323 918 321 937 l 403 8 q 408 -96 408 -35 q 390 -208 408 -157 q 334 -289 373 -258 q 85 -346 262 -346 l 66 -168 l 68 -164 z "},"≈":{"ha":925,"x_min":31,"x_max":896,"o":"m 687 576 q 879 715 831 576 l 883 713 l 896 528 q 667 420 837 420 q 450 510 574 420 q 331 583 374 566 q 254 600 288 600 q 191 593 219 600 q 137 572 162 587 q 46 474 87 543 l 42 476 l 37 663 q 272 760 119 760 q 488 668 354 760 q 687 576 623 576 m 681 179 q 873 318 825 179 l 877 316 l 890 131 q 661 23 831 23 q 444 113 568 23 q 325 186 368 169 q 248 203 282 203 q 184 197 213 203 q 131 176 156 191 q 40 77 81 146 l 36 79 l 31 267 q 266 363 113 363 q 482 271 348 363 q 681 179 616 179 z "},"≠":{"ha":925,"x_min":154,"x_max":770,"o":"m 770 200 q 686 203 738 203 l 467 203 l 404 -18 l 251 -18 l 314 203 l 238 203 q 154 200 186 203 l 156 368 q 245 363 171 363 l 359 363 l 395 488 l 238 488 q 154 485 186 488 l 156 652 q 245 648 171 648 l 441 648 l 509 884 l 662 884 l 594 648 l 679 648 q 768 652 753 648 l 770 485 q 686 488 738 488 l 549 488 l 513 363 l 679 363 q 768 368 753 363 l 770 200 z "},"≤":{"ha":583,"x_min":58,"x_max":515,"o":"m 58 633 l 515 916 l 515 725 l 217 557 l 515 373 l 515 183 l 58 488 l 58 633 m 144 -17 q 60 -20 93 -17 l 62 140 q 152 136 77 136 l 416 136 q 505 140 490 136 l 507 -20 q 423 -17 475 -17 l 144 -17 z "},"≥":{"ha":583,"x_min":62,"x_max":519,"o":"m 519 633 l 62 916 l 62 725 l 360 557 l 62 373 l 62 183 l 519 488 l 519 633 m 433 -17 q 517 -20 484 -17 l 515 140 q 425 136 500 136 l 161 136 q 72 140 87 136 l 70 -20 q 154 -17 102 -17 l 433 -17 z "},"◊":{"ha":918,"x_min":109,"x_max":808,"o":"m 109 460 l 110 460 l 380 1036 l 526 1036 l 808 460 l 808 460 l 537 -117 l 392 -117 l 109 460 m 617 460 l 454 841 l 300 460 l 463 78 l 617 460 z "},"ﬀ":{"ha":928,"x_min":3,"x_max":940,"o":"m 438 631 q 433 532 433 611 l 433 472 l 269 472 l 269 0 l 103 0 l 103 472 l 3 472 q 5 551 4 517 l 6 624 l 6 631 l 103 631 l 103 673 q 179 935 103 836 q 397 1037 258 1037 q 475 1029 456 1037 l 476 859 l 475 855 q 409 881 449 881 q 345 868 370 881 q 304 830 321 854 q 269 696 269 781 l 269 631 l 438 631 m 902 631 q 897 532 897 611 l 897 472 l 733 472 l 733 0 l 567 0 l 567 472 l 467 472 q 469 551 468 517 l 470 624 l 470 631 l 567 631 l 567 673 q 643 935 567 836 q 861 1037 722 1037 q 939 1029 920 1037 l 940 859 l 939 855 q 873 881 913 881 q 809 868 833 881 q 768 830 785 854 q 733 696 733 781 l 733 631 l 902 631 z "},"ﬁ":{"ha":812,"x_min":3,"x_max":801,"o":"m 438 631 q 433 532 433 611 l 433 472 l 269 472 l 269 0 l 103 0 l 103 472 l 3 472 q 5 551 4 517 l 6 624 l 6 631 l 103 631 l 103 673 q 179 935 103 836 q 397 1037 258 1037 q 475 1029 456 1037 l 476 859 l 475 855 q 409 881 449 881 q 345 868 370 881 q 304 830 321 854 q 269 696 269 781 l 269 631 l 438 631 m 542 911 q 655 1060 596 996 l 801 945 q 747 875 772 909 q 694 801 747 875 l 542 911 m 720 76 q 723 0 720 18 l 551 0 l 551 709 l 720 709 l 720 76 z "},"ﬂ":{"ha":812,"x_min":3,"x_max":724,"o":"m 438 631 q 433 532 433 611 l 433 472 l 269 472 l 269 0 l 103 0 l 103 472 l 3 472 q 5 551 4 517 l 6 624 l 6 631 l 103 631 l 103 673 q 179 935 103 836 q 397 1037 258 1037 q 475 1029 456 1037 l 476 859 l 475 855 q 409 881 449 881 q 345 868 370 881 q 304 830 321 854 q 269 696 269 781 l 269 631 l 438 631 m 721 76 q 724 0 721 18 l 551 0 l 551 1010 l 721 1010 l 721 76 z "}}}
